<svg version="1.1" id="Layer_1" xmlns="http://www.w3.org/2000/svg" xmlns:xlink="http://www.w3.org/1999/xlink" x="0px" y="0px"
	 width="100%" viewBox="0 0 200 200" enable-background="new 0 0 200 200" xml:space="preserve" style="border-radius: 50%;">
<path fill="#FE120F" opacity="1.000000" stroke="none" 
	d="
M137.000000,201.000000 
	C91.333336,201.000000 46.166672,201.000000 1.000006,201.000000 
	C1.000004,134.333344 1.000004,67.666679 1.000002,1.000015 
	C67.666656,1.000010 134.333313,1.000010 200.999969,1.000005 
	C200.999985,67.666649 200.999985,134.333298 201.000000,200.999969 
	C179.833328,201.000000 158.666672,201.000000 137.000000,201.000000 
M115.500000,77.980240 
	C127.442169,77.980240 139.384338,77.980240 151.518250,77.980240 
	C153.399384,67.453529 155.178345,57.498489 156.979446,47.419586 
	C120.119995,47.419586 83.515968,47.419586 46.032150,47.419586 
	C53.738068,53.444981 61.232368,58.310608 67.505676,64.428299 
	C78.700317,75.345238 91.380676,80.540565 107.014763,78.034828 
	C109.450195,77.644493 112.002007,77.980247 115.500000,77.980240 
M143.469299,122.914673 
	C145.186310,113.321884 146.903305,103.729095 148.626053,94.104263 
	C109.585213,89.704498 75.348824,121.092819 71.633430,153.468430 
	C80.956245,153.468430 90.224823,153.353592 99.487579,153.535416 
	C102.428909,153.593155 103.780228,152.621994 105.012756,149.900330 
	C111.742073,135.040665 123.367073,126.740891 139.602905,124.882889 
	C140.815994,124.744064 141.970901,124.097054 143.469299,122.914673 
z"/>
<path fill="#FEFBFB" opacity="1.000000" stroke="none" 
	d="
M115.000000,77.980240 
	C112.002007,77.980247 109.450195,77.644493 107.014763,78.034828 
	C91.380676,80.540565 78.700317,75.345238 67.505676,64.428299 
	C61.232368,58.310608 53.738068,53.444981 46.032150,47.419586 
	C83.515968,47.419586 120.119995,47.419586 156.979446,47.419586 
	C155.178345,57.498489 153.399384,67.453529 151.518250,77.980240 
	C139.384338,77.980240 127.442169,77.980240 115.000000,77.980240 
z"/>
<path fill="#FEFAFA" opacity="1.000000" stroke="none" 
	d="
M143.311081,123.300476 
	C141.970901,124.097054 140.815994,124.744064 139.602905,124.882889 
	C123.367073,126.740891 111.742073,135.040665 105.012756,149.900330 
	C103.780228,152.621994 102.428909,153.593155 99.487579,153.535416 
	C90.224823,153.353592 80.956245,153.468430 71.633430,153.468430 
	C75.348824,121.092819 109.585213,89.704498 148.626053,94.104263 
	C146.903305,103.729095 145.186310,113.321884 143.311081,123.300476 
z"/>
</svg>