<svg version="1.1" id="Layer_1" xmlns="http://www.w3.org/2000/svg" xmlns:xlink="http://www.w3.org/1999/xlink" x="0px" y="0px"
	 width="100%" viewBox="0 0 200 200" enable-background="new 0 0 200 200" xml:space="preserve" style="border-radius: 50%;">
   
<path fill="#46ABD3" opacity="1.000000" stroke="none" 
	d="
M103.000000,226.000000 
	C68.666672,226.000000 34.833336,226.000000 1.000005,226.000000 
	C1.000003,151.000000 1.000003,76.000015 1.000002,1.000015 
	C75.999992,1.000010 150.999985,1.000010 225.999969,1.000005 
	C225.999985,75.999985 225.999985,150.999969 226.000000,225.999969 
	C185.166672,226.000000 144.333328,226.000000 103.000000,226.000000 
M113.044373,70.633560 
	C85.047165,80.774826 57.062214,90.950256 29.034470,101.006432 
	C26.115742,102.053642 24.737423,103.444008 24.943956,106.722916 
	C25.236652,111.369820 24.885551,116.056328 25.150629,120.706474 
	C25.228685,122.075806 26.126490,124.060677 27.220287,124.596519 
	C32.270714,127.070679 37.522812,129.133179 42.920013,131.435989 
	C43.625420,130.045303 44.161861,128.987732 44.770020,127.788757 
	C48.295197,129.288574 52.553535,129.265869 52.308041,134.543060 
	C52.281124,135.121704 53.566921,135.983658 54.403370,136.346313 
	C64.308586,140.640778 74.244164,144.865234 84.424927,149.216293 
	C84.908791,147.571106 85.284943,146.292160 85.639038,145.088196 
	C90.663742,145.805313 93.030258,147.972321 93.804932,152.989990 
	C94.249908,155.872208 107.688148,159.068741 110.996826,157.847717 
	C136.124374,148.574829 161.237000,139.261322 186.375839,130.019180 
	C201.779495,124.356125 201.656601,124.398598 202.133636,108.009598 
	C202.245010,104.182587 200.969467,102.472847 197.563965,101.042618 
	C173.786484,91.056641 150.036224,80.999977 126.422729,70.634514 
	C121.958458,68.674858 118.050880,67.902023 113.044373,70.633560 
z"/>
<path fill="#484949" opacity="1.000000" stroke="none" 
	d="
M113.400009,70.469666 
	C118.050880,67.902023 121.958458,68.674858 126.422729,70.634514 
	C150.036224,80.999977 173.786484,91.056641 197.563965,101.042618 
	C200.969467,102.472847 202.245010,104.182587 202.133636,108.009598 
	C201.656601,124.398598 201.779495,124.356125 186.375839,130.019180 
	C161.237000,139.261322 136.124374,148.574829 110.996826,157.847717 
	C107.688148,159.068741 94.249908,155.872208 93.804932,152.989990 
	C93.030258,147.972321 90.663742,145.805313 85.639038,145.088196 
	C85.284943,146.292160 84.908791,147.571106 84.424927,149.216293 
	C74.244164,144.865234 64.308586,140.640778 54.403370,136.346313 
	C53.566921,135.983658 52.281124,135.121704 52.308041,134.543060 
	C52.553535,129.265869 48.295197,129.288574 44.770020,127.788757 
	C44.161861,128.987732 43.625420,130.045303 42.920013,131.435989 
	C37.522812,129.133179 32.270714,127.070679 27.220287,124.596519 
	C26.126490,124.060677 25.228685,122.075806 25.150629,120.706474 
	C24.885551,116.056328 25.236652,111.369820 24.943956,106.722916 
	C24.737423,103.444008 26.115742,102.053642 29.034470,101.006432 
	C57.062214,90.950256 85.047165,80.774826 113.400009,70.469666 
M107.730682,153.597580 
	C126.411316,146.694519 145.091934,139.791443 164.405045,132.654663 
	C163.990417,127.758324 163.579666,122.907700 162.624466,117.578941 
	C156.543152,114.909195 150.523743,112.080734 144.341782,109.668976 
	C142.549179,108.969635 140.098633,108.895248 138.279266,109.509903 
	C130.415970,112.166489 122.724945,115.334457 114.854256,117.966530 
	C112.883102,118.625725 110.255608,118.571144 108.311531,117.835587 
	C101.637665,115.310486 95.159508,112.272873 88.543350,109.586784 
	C87.118584,109.008331 85.219353,108.487328 83.895454,108.953369 
	C75.770767,111.813469 67.748627,114.964867 59.020367,118.516350 
	C58.899921,122.487984 58.640194,126.463516 58.751297,130.428665 
	C58.781227,131.497055 59.690529,133.075714 60.616383,133.497253 
	C66.613655,136.227829 72.727127,138.703156 78.940308,141.320160 
	C79.609825,139.730606 80.091179,138.587799 80.748863,137.026337 
	C85.999702,139.299438 91.007454,141.432770 95.974541,143.656906 
	C96.673027,143.969666 97.711632,144.756805 97.682709,145.273407 
	C97.302628,152.061234 103.319092,151.463791 107.730682,153.597580 
M168.900070,117.134422 
	C168.900070,121.575500 168.900070,126.016579 168.900070,130.990463 
	C177.816391,127.727455 186.192032,124.712532 194.509857,121.545731 
	C195.405777,121.204628 196.570831,119.988457 196.580566,119.165993 
	C196.632309,114.798973 196.355042,110.428047 195.658173,105.564285 
	C171.339935,95.133026 147.041565,84.654648 122.661430,74.370117 
	C120.923637,73.637054 118.402657,73.798401 116.557304,74.439873 
	C105.242798,78.372948 94.007187,82.534760 82.766022,86.676620 
	C65.452248,93.055946 48.155174,99.480568 30.230171,106.477226 
	C30.162952,108.635803 30.044209,110.794235 30.037750,112.952995 
	C30.014288,120.797791 30.028469,120.797836 37.901077,123.471733 
	C38.457550,122.419357 39.033871,121.329437 39.645416,120.172897 
	C44.170837,121.944099 48.426399,123.609673 53.610939,125.638847 
	C53.610939,121.846184 53.610939,118.911629 54.317745,115.697617 
	C56.023972,115.051834 57.726536,114.396164 59.437046,113.761925 
	C67.840744,110.645950 76.258759,105.077194 84.648163,105.118851 
	C92.940659,105.160019 101.205444,110.869896 109.480453,114.098030 
	C109.944382,114.279007 110.373138,114.592087 110.849663,114.688515 
	C111.486275,114.817329 112.231331,115.008606 112.796005,114.803925 
	C120.168465,112.131584 127.517258,109.393944 136.220459,106.173813 
	C127.268219,102.191849 119.739815,98.843216 112.211418,95.494583 
	C113.426109,94.146111 114.539833,93.404289 115.226067,93.689835 
	C133.139511,101.143730 151.008591,108.704193 168.900070,117.134422 
z"/>
<path fill="#46AAD1" opacity="1.000000" stroke="none" 
	d="
M30.851017,105.885979 
	C48.155174,99.480568 65.452248,93.055946 82.766022,86.676620 
	C94.007187,82.534760 105.242798,78.372948 116.557304,74.439873 
	C118.402657,73.798401 120.923637,73.637054 122.661430,74.370117 
	C147.041565,84.654648 171.339935,95.133026 195.629761,106.039871 
	C186.696014,109.759079 177.790665,113.002701 168.885315,116.246323 
	C151.008591,108.704193 133.139511,101.143730 115.226067,93.689835 
	C114.539833,93.404289 113.426109,94.146111 112.211418,95.494583 
	C119.739815,98.843216 127.268219,102.191849 136.220459,106.173813 
	C127.517258,109.393944 120.168465,112.131584 112.796005,114.803925 
	C112.231331,115.008606 111.486275,114.817329 110.849663,114.688515 
	C110.373138,114.592087 109.944382,114.279007 109.480453,114.098030 
	C101.205444,110.869896 92.940659,105.160019 84.648163,105.118851 
	C76.258759,105.077194 67.840744,110.645950 59.437046,113.761925 
	C57.726536,114.396164 56.023972,115.051834 53.668991,115.682281 
	C45.630497,112.406624 38.240757,109.146301 30.851017,105.885979 
z"/>
<path fill="#FD6602" opacity="1.000000" stroke="none" 
	d="
M59.692345,118.019272 
	C67.748627,114.964867 75.770767,111.813469 83.895454,108.953369 
	C85.219353,108.487328 87.118584,109.008331 88.543350,109.586784 
	C95.159508,112.272873 101.637665,115.310486 108.311531,117.835587 
	C110.255608,118.571144 112.883102,118.625725 114.854256,117.966530 
	C122.724945,115.334457 130.415970,112.166489 138.279266,109.509903 
	C140.098633,108.895248 142.549179,108.969635 144.341782,109.668976 
	C150.523743,112.080734 156.543152,114.909195 162.617371,118.058289 
	C144.072678,125.349197 125.535080,132.160751 106.727539,138.753937 
	C103.428291,137.208862 100.398140,135.884064 97.369789,134.555161 
	C84.810349,129.043869 72.251442,123.531342 59.692345,118.019272 
z"/>
<path fill="#FDB07D" opacity="1.000000" stroke="none" 
	d="
M106.997475,138.972305 
	C125.535080,132.160751 144.072678,125.349197 162.889603,118.297363 
	C163.579666,122.907700 163.990417,127.758324 164.405045,132.654663 
	C145.091934,139.791443 126.411316,146.694519 107.386017,153.121964 
	C107.026718,148.088333 107.012100,143.530319 106.997475,138.972305 
z"/>
<path fill="#FD934C" opacity="1.000000" stroke="none" 
	d="
M106.727539,138.753937 
	C107.012100,143.530319 107.026718,148.088333 107.032791,153.079956 
	C103.319092,151.463791 97.302628,152.061234 97.682709,145.273407 
	C97.711632,144.756805 96.673027,143.969666 95.974541,143.656906 
	C91.007454,141.432770 85.999702,139.299438 80.748863,137.026337 
	C80.091179,138.587799 79.609825,139.730606 78.940308,141.320160 
	C72.727127,138.703156 66.613655,136.227829 60.616383,133.497253 
	C59.690529,133.075714 58.781227,131.497055 58.751297,130.428665 
	C58.640194,126.463516 58.899921,122.487984 59.356354,118.267807 
	C72.251442,123.531342 84.810349,129.043869 97.369789,134.555161 
	C100.398140,135.884064 103.428291,137.208862 106.727539,138.753937 
z"/>
<path fill="#A0D3E7" opacity="1.000000" stroke="none" 
	d="
M168.892700,116.690369 
	C177.790665,113.002701 186.696014,109.759079 195.896545,106.286972 
	C196.355042,110.428047 196.632309,114.798973 196.580566,119.165993 
	C196.570831,119.988457 195.405777,121.204628 194.509857,121.545731 
	C186.192032,124.712532 177.816391,127.727455 168.900070,130.990463 
	C168.900070,126.016579 168.900070,121.575500 168.892700,116.690369 
z"/>
<path fill="#7DC2DE" opacity="1.000000" stroke="none" 
	d="
M30.540596,106.181602 
	C38.240757,109.146301 45.630497,112.406624 53.315586,115.822006 
	C53.610939,118.911629 53.610939,121.846184 53.610939,125.638847 
	C48.426399,123.609673 44.170837,121.944099 39.645416,120.172897 
	C39.033871,121.329437 38.457550,122.419357 37.901077,123.471733 
	C30.028469,120.797836 30.014288,120.797791 30.037750,112.952995 
	C30.044209,110.794235 30.162952,108.635803 30.540596,106.181602 
z"/>
</svg>