<svg version="1.1" id="Layer_1" xmlns="http://www.w3.org/2000/svg" xmlns:xlink="http://www.w3.org/1999/xlink" x="0px" y="0px"
	 width="100%" viewBox="0 0 366 283" enable-background="new 0 0 366 283" xml:space="preserve">
<path fill="#FDFDFE" opacity="1.000000" stroke="none" 
	d="
M185.000000,284.000000 
	C123.687370,284.000000 62.374737,284.000000 1.031054,284.000000 
	C1.031054,189.719223 1.031054,95.438423 1.031054,1.078816 
	C122.906235,1.078816 244.812546,1.078816 366.859436,1.078816 
	C366.859436,95.333206 366.859436,189.666565 366.859436,284.000000 
	C307.230347,284.000000 247.583832,284.000000 187.650284,283.697510 
	C196.331085,279.535858 205.275131,275.620239 214.271790,271.829498 
	C232.139526,264.300873 249.981171,256.703979 267.969849,249.474380 
	C271.358643,248.112411 271.971527,246.333389 271.940979,243.174957 
	C271.815308,230.179153 271.888397,217.181442 271.888428,204.184433 
	C271.888428,202.417252 271.888428,200.650070 271.888428,198.606216 
	C286.593781,198.606216 300.581787,198.731354 314.563660,198.494781 
	C317.185699,198.450424 319.783264,196.960175 322.392151,196.137161 
	C322.245544,195.698242 322.098938,195.259323 321.952362,194.820404 
	C231.407898,194.820404 140.863434,194.820404 50.318966,194.820404 
	C50.193424,195.301605 50.067883,195.782791 49.942341,196.263992 
	C52.565548,197.044724 55.178547,198.457901 57.813679,198.500458 
	C71.760742,198.725677 85.713379,198.606186 100.262184,198.606186 
	C100.262184,200.887924 100.262177,202.673462 100.262184,204.459015 
	C100.262215,217.622650 100.317810,230.786713 100.218109,243.949585 
	C100.196693,246.777328 100.901573,248.231918 103.845940,249.424332 
	C122.733673,257.073395 141.516312,264.985046 160.276917,272.943726 
	C168.586014,276.468658 176.763031,280.305023 185.000000,284.000000 
M138.735611,37.203766 
	C126.959114,42.121910 115.127716,46.916798 103.472595,52.107468 
	C101.941681,52.789265 100.440140,55.480145 100.405685,57.269012 
	C100.149086,70.593872 100.274925,83.925941 100.255234,97.255714 
	C100.252647,99.011055 100.105301,100.766182 100.011086,102.825562 
	C85.358681,102.825562 71.220039,102.728767 57.085308,102.920326 
	C54.714439,102.952454 52.360497,104.233482 49.998734,104.937439 
	C50.115395,105.384384 50.232056,105.831322 50.348717,106.278259 
	C140.990662,106.278259 231.632614,106.278259 322.274567,106.278259 
	C320.789032,104.475731 319.048981,103.337364 317.151764,102.928696 
	C315.240112,102.516914 313.172272,102.826256 311.172882,102.826073 
	C298.226593,102.824890 285.280304,102.825470 272.117432,102.825470 
	C272.026855,100.834297 271.903870,99.367729 271.902222,97.901024 
	C271.887177,84.571243 271.822968,71.240791 271.943909,57.912094 
	C271.973236,54.677139 271.069611,53.001785 267.786926,51.663750 
	C243.396057,41.721920 219.009689,31.748882 194.893433,21.166821 
	C188.470886,18.348650 183.203003,18.372929 176.996735,21.185774 
	C164.640137,26.786106 152.010345,31.783625 138.735611,37.203766 
M20.900427,189.049545 
	C21.772758,187.191193 22.826900,185.394974 23.486723,183.464020 
	C26.779095,173.828964 29.967905,164.158508 33.193150,154.500519 
	C33.610035,154.561508 34.026920,154.622498 34.443806,154.683502 
	C33.504250,166.046402 32.564693,177.409317 31.599922,189.077179 
	C35.953098,189.077179 39.949799,188.859085 43.909569,189.147675 
	C46.958294,189.369858 48.317654,188.179916 49.256012,185.404800 
	C52.224556,176.625565 55.359516,167.900864 58.543739,159.196655 
	C64.101540,144.004120 69.744026,128.842560 75.589081,113.023766 
	C71.866074,113.023766 68.908638,113.194717 65.980316,112.975899 
	C63.024532,112.755043 61.661903,113.657257 60.833984,116.751457 
	C58.905548,123.958641 56.472641,131.035797 54.106567,138.119690 
	C51.044849,147.286285 47.849251,156.408142 44.711296,165.549271 
	C44.459610,165.481720 44.207924,165.414185 43.956238,165.346634 
	C45.590698,148.034119 47.225163,130.721588 48.879036,113.203453 
	C44.603321,113.203453 40.654896,113.203453 36.599377,113.203453 
	C30.859142,129.875488 25.157761,146.434677 19.456379,162.993866 
	C18.959301,162.895554 18.462225,162.797226 17.965147,162.698898 
	C19.581003,146.267700 21.196859,129.836502 22.819729,113.333969 
	C18.260965,113.333969 14.186587,113.333969 9.928166,113.333969 
	C8.301918,138.644440 6.694709,163.658615 5.061722,189.073975 
	C10.400268,189.073975 15.201734,189.073975 20.900427,189.049545 
M308.939606,137.454010 
	C308.939606,129.369949 308.939606,121.285881 308.939606,113.205750 
	C303.962311,113.205750 300.158966,113.205750 295.934601,113.205750 
	C290.670715,138.407074 285.425568,163.518661 280.086975,189.077606 
	C282.768768,189.077606 285.103424,188.872925 287.388123,189.123596 
	C291.210876,189.543030 292.637634,188.456772 293.296570,184.215424 
	C294.731689,174.977875 297.235413,165.906326 299.302460,156.766937 
	C299.621918,156.801895 299.941406,156.836838 300.260895,156.871796 
	C300.260895,167.465622 300.260895,178.059464 300.260895,188.797089 
	C304.817932,188.797089 308.872742,188.797089 313.040588,188.797089 
	C318.313782,163.518570 323.535797,138.485458 328.807678,113.213341 
	C324.413940,113.213341 320.794983,113.213341 317.179993,113.213341 
	C314.625183,124.762726 312.110626,136.130173 309.596069,147.497620 
	C309.380249,147.468796 309.164398,147.439957 308.948578,147.411118 
	C308.948578,144.418396 308.948578,141.425674 308.939606,137.454010 
M77.333549,131.735901 
	C73.446083,150.701645 69.558617,169.667404 65.621429,188.875732 
	C69.825378,188.875732 73.768135,188.875732 77.806244,188.875732 
	C80.069855,178.827988 82.306465,168.900085 84.543076,158.972198 
	C85.001068,159.035385 85.459061,159.098572 85.917053,159.161774 
	C86.429855,169.019791 86.942650,178.877808 87.455620,188.739075 
	C92.168526,188.739075 96.550819,188.739075 101.215134,188.739075 
	C99.880096,179.661057 98.566185,170.958435 97.332512,162.244446 
	C96.671623,157.576294 95.344627,152.746887 101.937683,150.680023 
	C103.494667,150.191895 105.072090,147.896606 105.542526,146.138870 
	C107.584290,138.510162 109.739456,130.844727 110.819229,123.049385 
	C111.530380,117.915268 107.625053,113.610825 102.828766,113.351341 
	C95.738708,112.967773 88.612511,113.252220 81.454926,113.252220 
	C80.307579,118.034454 79.197266,122.520241 78.172081,127.025398 
	C77.879555,128.310913 77.834061,129.652618 77.333549,131.735901 
M342.938202,141.550583 
	C343.257141,140.261490 343.623596,138.981964 343.885651,137.681396 
	C344.540283,134.432571 344.646912,130.951645 345.958374,128.001740 
	C346.765869,126.185379 349.415588,124.006737 351.182251,124.054588 
	C354.429901,124.142555 353.781860,126.989426 353.150055,129.403824 
	C352.404449,132.253143 351.947632,135.178024 351.363861,138.078934 
	C363.215637,139.634308 363.302917,139.652847 365.627167,128.711792 
	C366.171387,126.150017 366.630981,123.166870 365.826416,120.825348 
	C364.848236,117.978676 363.004639,114.094635 360.640564,113.290657 
	C350.563019,109.863434 337.377197,111.577538 333.969299,125.937035 
	C331.670929,135.621429 329.322784,145.296707 327.227692,155.025772 
	C325.694397,162.146027 324.311127,169.314728 323.275818,176.521423 
	C322.285156,183.417282 323.920288,187.486099 328.893768,188.929306 
	C341.073486,192.463684 352.171509,189.335541 355.832520,176.115005 
	C358.610779,166.082199 360.284180,155.743454 362.532959,145.146225 
	C356.757111,145.146225 351.667816,145.146225 346.375885,145.146225 
	C345.553741,148.953049 344.759155,152.632294 343.933990,156.453064 
	C345.106049,156.824371 346.108337,157.141907 347.118835,157.462036 
	C345.781525,163.366943 344.758301,169.101486 343.045502,174.622116 
	C342.597992,176.064529 340.005341,176.841415 338.397858,177.923950 
	C337.790344,176.145905 336.409943,174.228424 336.701447,172.612564 
	C338.525330,162.503220 340.722321,152.461182 342.938202,141.550583 
M155.007736,146.249054 
	C157.310349,148.813522 159.431412,151.574249 161.950531,153.904694 
	C168.790115,160.232025 170.187195,167.431595 165.399963,175.300323 
	C164.575089,176.656189 162.231659,177.088226 160.589691,177.947006 
	C159.935501,176.279526 158.646179,174.566849 158.760941,172.954086 
	C158.991318,169.716110 159.988190,166.532684 160.724045,163.066177 
	C156.522675,163.066177 152.608444,163.066177 148.363693,163.066177 
	C147.320312,167.944397 146.114182,172.601913 145.368134,177.332031 
	C144.526489,182.668106 146.986572,186.948654 151.663925,189.165359 
	C156.845428,191.621002 167.693054,190.008041 171.860046,186.129150 
	C179.304352,179.199585 179.874649,169.712296 181.058060,160.573349 
	C181.963913,153.577957 177.101730,149.462326 172.534012,145.187668 
	C166.373367,139.422302 165.421417,133.847443 169.230652,126.458633 
	C169.885468,125.188438 171.998428,124.669952 173.437805,123.804214 
	C174.163635,125.213486 175.585785,126.678497 175.478333,128.021057 
	C175.208878,131.387299 174.247025,134.698120 173.556915,138.060318 
	C186.151382,139.653610 187.278137,139.058685 188.787262,127.721390 
	C189.424606,122.933594 190.434387,117.483276 185.461960,113.962524 
	C180.065369,110.141457 166.508255,111.614693 161.537567,116.336494 
	C155.427063,122.141022 151.917419,137.548248 155.007736,146.249054 
M120.987984,119.357147 
	C116.086090,142.461243 111.184204,165.565338 106.230247,188.914856 
	C116.314659,188.914856 125.931381,188.914856 135.775543,188.914856 
	C136.651047,184.941528 137.509308,181.046463 138.513992,176.486893 
	C132.386154,176.486893 127.166428,176.486893 121.466408,176.486893 
	C122.981781,169.638382 124.366966,163.378265 125.792732,156.934738 
	C130.300095,156.934738 135.277878,158.330429 138.349762,156.510010 
	C140.988831,154.946091 141.459946,149.711777 142.853378,146.086533 
	C142.940796,145.859100 142.712112,145.510147 142.520615,144.824020 
	C138.045883,144.824020 133.464294,144.824020 128.419327,144.824020 
	C129.851456,138.062592 131.182541,131.778229 132.582870,125.166931 
	C138.349670,125.166931 143.953964,125.166931 149.728546,125.166931 
	C150.524445,121.051483 151.255569,117.270973 152.041855,113.205299 
	C141.783798,113.205299 132.175552,113.205299 122.310585,113.205299 
	C121.857925,115.035500 121.428772,116.770691 120.987984,119.357147 
M200.016510,153.490189 
	C197.485214,165.232132 194.953934,176.974075 192.415665,188.748413 
	C197.003082,188.748413 201.248596,188.748413 205.478622,188.748413 
	C209.113419,170.761627 212.598969,153.074173 216.287994,135.429260 
	C218.374115,125.451225 218.524918,125.486282 227.908249,124.969238 
	C228.210831,124.952568 228.500320,124.698051 228.789856,124.549225 
	C229.551559,120.829819 230.313263,117.110420 231.099457,113.271393 
	C220.158295,113.271393 209.405762,113.271393 198.461517,113.271393 
	C197.624542,117.161827 196.829010,120.859634 195.930496,125.036118 
	C199.336426,125.036118 202.584610,125.036118 206.288666,125.036118 
	C204.164749,134.595581 202.158844,143.623886 200.016510,153.490189 
M253.857315,176.903076 
	C248.612335,176.903076 243.367340,176.903076 237.767090,176.903076 
	C242.277740,155.079178 246.585831,134.235275 250.904495,113.340286 
	C246.381866,113.340286 242.454315,113.340286 238.174927,113.340286 
	C232.921097,138.605164 227.715622,163.637512 222.457092,188.925018 
	C232.795715,188.925018 242.258469,188.925018 252.033096,188.925018 
	C252.817749,185.111801 253.585098,181.382660 253.857315,176.903076 
M273.219879,120.667458 
	C268.509186,143.340393 263.798492,166.013351 259.071838,188.763062 
	C263.434387,188.763062 267.523041,188.763062 271.618896,188.763062 
	C276.993347,163.498611 282.303986,138.534058 287.684082,113.243103 
	C283.172119,113.243103 279.226379,113.243103 274.879272,113.243103 
	C274.438995,115.414177 273.985962,117.648102 273.219879,120.667458 
z"/>
<path fill="#2272C4" opacity="1.000000" stroke="none" 
	d="
M185.333328,284.000000 
	C176.763031,280.305023 168.586014,276.468658 160.276917,272.943726 
	C141.516312,264.985046 122.733673,257.073395 103.845940,249.424332 
	C100.901573,248.231918 100.196693,246.777328 100.218109,243.949585 
	C100.317810,230.786713 100.262215,217.622650 100.262184,204.459015 
	C100.262177,202.673462 100.262184,200.887924 100.262184,198.606186 
	C85.713379,198.606186 71.760742,198.725677 57.813679,198.500458 
	C55.178547,198.457901 52.565548,197.044724 49.942341,196.263992 
	C50.067883,195.782791 50.193424,195.301605 50.318966,194.820404 
	C140.863434,194.820404 231.407898,194.820404 321.952362,194.820404 
	C322.098938,195.259323 322.245544,195.698242 322.392151,196.137161 
	C319.783264,196.960175 317.185699,198.450424 314.563660,198.494781 
	C300.581787,198.731354 286.593781,198.606216 271.888428,198.606216 
	C271.888428,200.650070 271.888428,202.417252 271.888428,204.184433 
	C271.888397,217.181442 271.815308,230.179153 271.940979,243.174957 
	C271.971527,246.333389 271.358643,248.112411 267.969849,249.474380 
	C249.981171,256.703979 232.139526,264.300873 214.271790,271.829498 
	C205.275131,275.620239 196.331085,279.535858 187.181625,283.697510 
	C186.555557,284.000000 186.111099,284.000000 185.333328,284.000000 
M152.604019,257.611328 
	C153.247833,257.739807 153.891525,257.979797 154.535477,257.980499 
	C174.805099,258.002441 195.074768,258.018677 215.344238,257.959595 
	C216.563019,257.956024 217.779968,257.322815 218.403122,256.399048 
	C217.759842,256.269165 217.116684,256.026459 216.473267,256.025757 
	C196.205719,256.003601 175.938095,255.987335 155.670700,256.046478 
	C154.450531,256.050018 153.232208,256.683411 152.604019,257.611328 
M139.367157,256.126343 
	C130.145111,252.394958 120.992737,248.474792 111.664108,245.032196 
	C108.290924,243.787369 107.677811,241.910370 107.720032,238.718369 
	C107.878700,226.724152 107.852211,214.725693 107.693787,202.731491 
	C107.674606,201.279373 106.429924,199.843475 105.753220,198.400055 
	C105.173874,199.880463 104.112076,201.354462 104.092361,202.842285 
	C103.948891,213.670380 104.015175,224.501251 104.015175,235.331253 
	C104.015167,245.142899 103.996292,245.187943 112.874405,248.907349 
	C136.126999,258.648804 159.379852,268.390503 182.696045,277.977783 
	C184.504257,278.721283 187.091843,278.962128 188.837997,278.254364 
	C214.035904,268.041046 239.171539,257.672424 264.238495,247.141983 
	C265.771301,246.498047 267.580200,244.207352 267.610229,242.651031 
	C267.873749,228.993683 267.792969,215.328873 267.705933,201.666977 
	C267.698547,200.504227 266.907715,199.346451 266.480804,198.186371 
	C265.967651,198.259674 265.454468,198.332993 264.941315,198.406311 
	C264.748627,200.094131 264.395752,201.781326 264.388947,203.469894 
	C264.340576,215.466003 264.280884,227.463348 264.422089,239.457993 
	C264.456329,242.365738 263.688171,243.939835 260.758820,244.927505 
	C255.278702,246.775223 249.927795,249.024033 244.579788,251.242569 
	C226.041992,258.932678 207.545471,266.722870 188.974350,274.331207 
	C187.447571,274.956726 185.250336,275.059906 183.746872,274.455261 
	C169.134064,268.578461 154.602875,262.498779 139.367157,256.126343 
M174.319489,216.393341 
	C173.031052,210.962326 171.742615,205.531311 170.488846,200.246399 
	C168.024323,200.246399 166.078339,200.246399 163.894318,200.246399 
	C163.894318,214.367294 163.894318,228.251144 163.894318,242.370392 
	C166.073746,242.370392 167.958435,242.370392 170.151947,242.370392 
	C170.151947,236.824677 170.151947,231.603302 170.151947,226.381912 
	C171.932419,229.842209 172.894058,233.442139 173.643402,237.085724 
	C174.921021,243.298004 175.485504,243.670273 182.014923,241.935028 
	C182.014923,228.057541 182.014923,214.180054 182.014923,200.345154 
	C179.713028,200.345154 177.800262,200.345154 175.601212,200.345154 
	C175.601212,205.824692 175.613617,210.973587 175.576263,216.122101 
	C175.573471,216.508347 175.215408,216.891983 175.022507,217.276840 
	C174.916595,217.148331 174.810684,217.019836 174.319489,216.393341 
M253.196365,242.698563 
	C253.702209,241.808640 254.809586,240.750717 254.615646,240.056229 
	C253.416534,235.762619 251.729111,231.600510 250.631760,227.285904 
	C250.226410,225.692017 250.381866,223.335526 251.318130,222.135834 
	C254.205215,218.436462 255.436523,207.045944 252.567627,203.371902 
	C251.428726,201.913345 249.495392,200.419128 247.769180,200.208633 
	C243.904144,199.737305 239.942139,200.061127 236.119080,200.061127 
	C236.119080,214.552505 236.119080,228.419235 236.119080,242.276367 
	C238.668930,242.276367 240.856888,242.276367 243.416229,242.276367 
	C243.416229,237.005554 243.416229,232.153809 243.416229,227.302063 
	C245.515869,231.030380 246.670181,234.911850 247.352173,238.874634 
	C247.885132,241.971298 249.359283,243.196808 253.196365,242.698563 
M126.999367,234.104507 
	C126.051277,234.730286 125.161835,235.595993 124.122856,235.849960 
	C123.765717,235.937271 122.558144,234.503036 122.548256,233.753250 
	C122.438629,225.438553 122.414543,217.119980 122.615555,208.808472 
	C122.634384,208.030106 124.346214,207.292694 125.271980,206.536270 
	C125.857430,207.401581 126.753700,208.199860 126.958046,209.147354 
	C127.293983,210.705048 127.181511,212.359436 127.264168,214.100891 
	C129.678131,214.100891 131.743271,214.100891 134.386322,214.100891 
	C134.210419,211.014053 134.330643,208.200546 133.835876,205.499741 
	C132.900101,200.391876 128.954071,199.182938 124.500221,199.242828 
	C119.022011,199.316467 115.759811,201.614456 115.574135,206.533875 
	C115.198746,216.479568 115.377876,226.451019 115.522179,236.409058 
	C115.578545,240.299423 118.122185,242.286621 121.778465,243.068237 
	C131.373795,245.119431 136.520355,238.648666 133.512939,228.422394 
	C131.407303,228.422394 129.338120,228.422394 127.029747,228.422394 
	C127.029747,230.266037 127.029747,231.751328 126.999367,234.104507 
M143.676758,200.006241 
	C142.455338,200.823517 140.183685,201.623062 140.169556,202.460739 
	C139.946075,215.701355 140.012527,228.946854 140.012527,242.450577 
	C145.886032,242.450577 151.280014,242.450577 156.938675,242.450577 
	C156.938675,240.149170 156.938675,238.106384 156.938675,235.842209 
	C153.876205,235.678513 151.118179,235.531097 148.121902,235.370926 
	C148.121902,231.866837 148.121902,228.644943 148.121902,224.954681 
	C150.777390,224.954681 153.182465,224.954681 155.730804,224.954681 
	C155.730804,222.417236 155.730804,220.353973 155.730804,218.120163 
	C153.077850,217.945847 150.669800,217.787643 148.247498,217.628479 
	C148.247498,213.921219 148.247498,210.558960 148.247498,206.813202 
	C151.393570,206.813202 154.160248,206.813202 156.895782,206.813202 
	C156.895782,204.371658 156.895782,202.330978 156.895782,200.005997 
	C152.568878,200.005997 148.603134,200.005997 143.676758,200.006241 
M219.997467,230.433350 
	C219.997467,228.680695 219.997467,226.928040 219.997467,225.213821 
	C223.267715,225.015869 225.835556,224.860428 228.395721,224.705460 
	C228.395721,222.270828 228.395721,220.339828 228.395721,218.130295 
	C225.594666,217.966507 223.020828,217.816010 220.322769,217.658234 
	C220.322769,213.994507 220.322769,210.622787 220.322769,206.799774 
	C223.553207,206.799774 226.459427,206.799774 229.320343,206.799774 
	C229.320343,204.293030 229.320343,202.250305 229.320343,200.245239 
	C223.650665,200.245239 218.380615,200.245239 212.854004,200.245239 
	C212.854004,214.357285 212.854004,228.226883 212.854004,242.377609 
	C218.462723,242.377609 223.830322,242.377609 229.295471,242.377609 
	C229.295471,240.003677 229.295471,237.982101 229.295471,235.562622 
	C226.105560,235.562622 223.331604,235.562622 220.290268,235.562622 
	C220.174911,233.903503 220.086212,232.627731 219.997467,230.433350 
M201.041733,222.503433 
	C201.041733,217.395386 201.041733,212.287354 201.041733,207.275894 
	C203.483994,207.013840 205.251175,206.824203 207.012421,206.635223 
	C207.012421,204.375137 207.012421,202.434540 207.012421,200.254425 
	C200.704193,200.254425 194.620651,200.254425 188.347305,200.254425 
	C188.347305,202.533218 188.347305,204.589493 188.347305,206.788574 
	C190.222885,206.935455 191.831055,207.061401 193.947571,207.227142 
	C193.947571,219.000061 193.947571,230.591904 193.947571,242.258514 
	C196.535400,242.258514 198.591660,242.258514 201.041733,242.258514 
	C201.041733,235.786560 201.041733,229.644073 201.041733,222.503433 
M141.554688,249.011276 
	C174.327225,249.011276 207.099777,249.011276 239.872314,249.011276 
	C239.870499,248.781998 239.868683,248.552734 239.866852,248.323456 
	C203.970840,248.323456 168.074844,248.323456 132.178833,248.323456 
	C132.175339,248.552734 132.171829,248.782013 132.168335,249.011292 
	C134.972305,249.011292 137.776291,249.011292 141.554688,249.011276 
M181.500153,261.006104 
	C191.448730,261.006104 201.397308,261.006104 211.345886,261.006104 
	C211.330566,260.565186 211.315262,260.124237 211.299942,259.683319 
	C194.425949,259.683319 177.551941,259.683319 160.677948,259.683319 
	C160.677490,260.124237 160.677017,260.565186 160.676544,261.006104 
	C167.284439,261.006104 173.892349,261.006104 181.500153,261.006104 
M165.500000,252.003052 
	C187.946640,252.003052 210.393265,252.003052 232.839905,252.003052 
	C232.837662,251.771484 232.835419,251.539917 232.833176,251.308350 
	C201.609848,251.308350 170.386536,251.308350 139.163223,251.308350 
	C139.162003,251.539917 139.160797,251.771484 139.159576,252.003052 
	C147.606384,252.003052 156.053192,252.003052 165.500000,252.003052 
M213.485016,255.005859 
	C217.578949,255.005859 221.672882,255.005859 225.766800,255.005859 
	C225.753433,254.784744 225.740051,254.563614 225.726669,254.342499 
	C199.570465,254.342499 173.414261,254.342499 147.258057,254.342499 
	C147.258682,254.563629 147.259323,254.784760 147.259949,255.005890 
	C169.003433,255.005890 190.746902,255.005890 213.485016,255.005859 
M183.502304,262.002441 
	C178.217850,262.002441 172.933395,262.002441 167.648941,262.002441 
	C167.674973,262.438507 167.700989,262.874542 167.727005,263.310608 
	C179.918610,263.310608 192.110199,263.310608 204.301788,263.310608 
	C204.301285,262.874542 204.300781,262.438507 204.300262,262.002441 
	C197.700684,262.002441 191.101120,262.002441 183.502304,262.002441 
M184.522018,264.989685 
	C181.227951,264.989685 177.933899,264.989685 174.639832,264.989685 
	C174.669205,265.429596 174.698593,265.869537 174.727966,266.309448 
	C181.930710,266.309448 189.133438,266.309448 196.336182,266.309448 
	C196.331055,265.869507 196.325928,265.429596 196.320801,264.989655 
	C192.713959,264.989655 189.107117,264.989655 184.522018,264.989685 
z"/>
<path fill="#B8213E" opacity="1.000000" stroke="none" 
	d="
M139.114502,37.116970 
	C152.010345,31.783625 164.640137,26.786106 176.996735,21.185774 
	C183.203003,18.372929 188.470886,18.348650 194.893433,21.166821 
	C219.009689,31.748882 243.396057,41.721920 267.786926,51.663750 
	C271.069611,53.001785 271.973236,54.677139 271.943909,57.912094 
	C271.822968,71.240791 271.887177,84.571243 271.902222,97.901024 
	C271.903870,99.367729 272.026855,100.834297 272.117432,102.825470 
	C285.280304,102.825470 298.226593,102.824890 311.172882,102.826073 
	C313.172272,102.826256 315.240112,102.516914 317.151764,102.928696 
	C319.048981,103.337364 320.789032,104.475731 322.274567,106.278259 
	C231.632614,106.278259 140.990662,106.278259 50.348717,106.278259 
	C50.232056,105.831322 50.115395,105.384384 49.998734,104.937439 
	C52.360497,104.233482 54.714439,102.952454 57.085308,102.920326 
	C71.220039,102.728767 85.358681,102.825562 100.011086,102.825562 
	C100.105301,100.766182 100.252647,99.011055 100.255234,97.255714 
	C100.274925,83.925941 100.149086,70.593872 100.405685,57.269012 
	C100.440140,55.480145 101.941681,52.789265 103.472595,52.107468 
	C115.127716,46.916798 126.959114,42.121910 139.114502,37.116970 
M191.129105,47.673122 
	C191.985611,46.256096 192.842117,44.839066 194.213226,44.184772 
	C202.286652,45.901897 210.287262,44.689922 218.324753,44.961609 
	C218.317673,44.316494 218.310577,43.671383 218.303497,43.026268 
	C210.255798,43.026268 202.208084,43.026268 194.402161,42.391273 
	C195.146606,41.849548 195.891052,41.307819 196.635483,40.766094 
	C190.696747,41.392330 187.221268,39.109112 185.932404,32.899105 
	C184.971252,35.175713 184.010101,37.452324 183.001999,39.840118 
	C180.531113,39.965843 178.003738,40.094440 174.942688,40.250195 
	C176.071579,41.459274 176.717834,42.151440 176.380005,42.929474 
	C168.808273,42.929474 161.236542,42.929474 153.664810,42.929474 
	C153.670380,43.462334 153.675949,43.995193 153.681519,44.528053 
	C161.570511,44.528053 169.459579,44.538193 177.348022,44.472370 
	C177.555359,44.470638 177.755798,43.641598 178.638916,43.322670 
	C179.203613,44.784920 179.768326,46.247173 179.834915,46.904449 
	C179.250870,46.627907 178.667740,46.112568 178.082626,46.110283 
	C167.652466,46.069557 157.222031,46.079472 146.791992,46.140018 
	C146.356659,46.142544 145.924789,46.742691 144.329590,47.926659 
	C157.244736,47.926659 168.781357,47.926659 180.382019,48.653938 
	C179.933792,49.459236 179.485550,50.264534 178.846039,50.266090 
	C177.696030,49.843967 176.548859,49.064178 175.395584,49.055092 
	C163.946411,48.964832 152.496185,48.989273 141.046417,49.029720 
	C140.220276,49.032642 139.395462,49.414864 138.570038,49.620728 
	C138.609100,50.091770 138.648148,50.562813 138.687210,51.033855 
	C152.146423,51.033855 165.605637,51.033855 179.117279,51.572624 
	C179.408554,51.775646 179.699814,51.978664 180.044418,52.679939 
	C180.693573,52.484974 181.342712,52.290009 182.514999,51.655796 
	C183.794205,50.707222 185.073410,49.758652 186.555801,48.659416 
	C188.002625,50.237286 189.267670,51.616905 189.615997,52.976559 
	C187.775482,52.976559 185.934967,52.976559 184.094467,52.976559 
	C184.129395,53.393539 184.164337,53.810520 184.199265,54.227497 
	C186.316376,53.819088 188.433472,53.410679 191.242081,52.809383 
	C191.393387,51.267094 191.544693,49.724808 192.695740,48.072868 
	C203.905441,48.072868 215.115143,48.072868 226.324860,48.072868 
	C226.316147,47.396286 226.307434,46.719700 226.298721,46.043118 
	C215.560181,46.043118 204.821030,45.996555 194.084290,46.135551 
	C193.265686,46.146145 192.464081,47.470669 191.129105,47.673122 
M267.722839,70.508598 
	C267.722900,67.344887 267.439026,64.148956 267.793579,61.025486 
	C268.254944,56.961105 266.467987,55.294750 262.829407,53.808559 
	C238.271667,43.777882 213.851837,33.409637 189.295456,23.375565 
	C187.305481,22.562431 184.359741,22.776310 182.311539,23.617264 
	C157.314133,33.880741 132.422394,44.401409 107.436401,54.693058 
	C104.815056,55.772789 103.971581,57.066952 104.013832,59.812122 
	C104.167587,69.800568 104.073494,79.792809 104.074814,89.783623 
	C104.075279,93.280373 103.969589,96.783493 104.167862,100.269165 
	C104.214272,101.085045 105.299072,101.841858 105.906128,102.625847 
	C106.491341,101.935837 107.369339,101.327644 107.590569,100.535934 
	C107.893890,99.450409 107.714714,98.225647 107.715118,97.060547 
	C107.719193,85.404602 107.612991,73.746674 107.832802,62.094875 
	C107.865051,60.385563 109.024216,57.722878 110.361954,57.157482 
	C134.495529,46.957386 158.718719,36.967693 182.992218,27.103907 
	C184.763000,26.384331 187.299210,26.364534 189.081360,27.051878 
	C199.439194,31.046700 209.695892,35.307034 219.952286,39.560829 
	C233.577576,45.211853 247.084976,51.162865 260.842499,56.467690 
	C264.052917,57.705605 264.842529,59.021816 264.811890,62.069035 
	C264.693176,73.890305 264.747498,85.713516 264.782318,97.535881 
	C264.787231,99.203209 265.041016,100.869812 265.179596,102.536751 
	C265.924591,102.536179 266.669586,102.535606 267.414581,102.535042 
	C268.064606,92.223473 267.565491,81.845848 267.722839,70.508598 
M180.464035,58.577011 
	C179.622330,59.625340 178.110962,60.638474 178.053696,61.728035 
	C177.792236,66.702568 177.938889,71.698540 177.938889,76.686813 
	C177.776184,76.714752 177.613464,76.742691 177.450760,76.770630 
	C175.965744,70.778366 174.480713,64.786110 173.008759,58.846519 
	C170.637726,58.846519 168.706741,58.846519 166.518402,58.846519 
	C166.518402,73.024338 166.518402,86.927353 166.518402,101.129349 
	C168.685776,101.129349 170.600769,101.129349 173.030029,101.129349 
	C173.030029,96.251518 173.030029,91.434891 173.030029,86.618263 
	C173.360977,86.580948 173.691940,86.543633 174.022888,86.506317 
	C175.212402,91.382378 176.401932,96.258430 177.578842,101.082840 
	C180.030396,101.082840 182.267715,101.082840 184.886780,101.082840 
	C184.886780,87.620056 184.958603,74.499268 184.738037,61.383396 
	C184.721954,60.427635 182.585449,59.507534 180.464035,58.577011 
M157.020508,69.494698 
	C156.693283,67.026985 156.212448,64.567665 156.077087,62.089478 
	C155.901031,58.866623 154.000259,58.323425 151.349640,58.575314 
	C149.057480,58.793133 146.286743,57.642689 145.852249,61.685410 
	C145.340897,66.443481 144.133560,71.122131 143.425644,75.864723 
	C142.185883,84.170273 141.096848,92.498322 139.926010,100.951698 
	C144.676880,102.054993 148.154922,101.980362 148.106705,95.955856 
	C148.078339,92.414482 150.383835,92.559448 152.864120,93.308289 
	C155.641891,102.106949 155.641891,102.106949 162.055405,100.667198 
	C160.424377,90.579994 158.789368,80.468140 157.020508,69.494698 
M232.810440,94.982826 
	C231.294937,85.304726 229.635696,75.646263 228.310287,65.942200 
	C227.286743,58.448315 227.472748,58.417927 219.918839,58.612965 
	C219.447449,58.625137 218.980484,58.808365 217.817398,59.065372 
	C215.685425,72.875954 213.528259,86.849648 211.315430,101.183983 
	C214.294800,101.183983 216.379715,101.183983 218.707840,101.183983 
	C219.139236,98.466682 219.547470,95.895157 219.983673,93.147583 
	C221.771042,93.147583 223.382599,93.147583 225.131226,93.147583 
	C225.786469,95.937050 226.412689,98.602997 227.078125,101.435883 
	C229.285797,101.336617 231.028381,101.258263 232.939011,101.172356 
	C232.939011,99.147278 232.939011,97.509590 232.810440,94.982826 
M116.583069,58.815651 
	C116.583069,72.870865 116.583069,86.926071 116.583069,101.184952 
	C118.525230,101.184952 120.607185,101.184952 123.278648,101.184952 
	C123.278648,96.363007 123.278648,91.732002 123.278648,87.100998 
	C125.205009,90.311714 126.955986,93.441948 127.502457,96.769958 
	C128.446915,102.521751 131.870956,101.781044 135.982910,100.933182 
	C134.157730,95.672203 132.732101,90.544403 130.600281,85.729256 
	C128.782333,81.623039 128.706543,78.195457 130.755219,74.025360 
	C133.048264,69.357849 134.160522,64.110245 135.831619,58.976784 
	C131.566879,58.114975 128.181519,57.828182 127.279968,63.415337 
	C126.720848,66.880379 125.067162,70.168808 123.904785,73.536507 
	C123.602936,73.486671 123.301086,73.436836 122.999237,73.387009 
	C122.999237,68.526489 122.999237,63.665974 122.999237,58.626114 
	C120.863548,58.626114 119.208038,58.626114 116.583069,58.815651 
M204.219162,58.900532 
	C193.549362,55.785992 189.239502,58.972530 189.235565,69.676064 
	C189.233673,74.813744 191.273163,78.573868 195.467514,81.391182 
	C199.268066,83.943962 201.980438,87.207695 200.925354,92.169708 
	C200.713394,93.166466 199.516663,93.953835 198.773987,94.837753 
	C198.018372,93.951576 196.865814,93.170448 196.597183,92.155388 
	C196.158707,90.498604 196.296646,88.689278 196.192764,86.967117 
	C193.687302,86.967117 191.753815,86.967117 189.108322,86.967117 
	C189.403992,90.356552 189.324249,93.517288 190.018173,96.497902 
	C191.235901,101.728371 195.571716,102.111275 199.902069,101.902275 
	C204.174759,101.696045 207.399567,99.675117 207.908386,95.196968 
	C208.808228,87.277344 208.086823,80.043526 199.870483,75.470459 
	C197.993347,74.425682 197.301041,70.839668 196.628784,68.275055 
	C196.405350,67.422661 197.950775,66.106590 198.687515,65.002495 
	C199.459274,66.058701 200.608749,67.018669 200.908493,68.195137 
	C201.295410,69.713722 201.002777,71.405441 201.002777,73.077881 
	C203.591034,73.077881 205.638000,73.077881 207.947525,73.077881 
	C207.645554,68.093758 209.569229,63.040928 204.219162,58.900532 
M248.562149,88.964531 
	C248.564850,89.797066 248.804871,90.725151 248.516846,91.440659 
	C248.035522,92.636337 247.216766,93.696182 246.540024,94.813202 
	C245.923294,93.667091 245.073578,92.582214 244.751907,91.358543 
	C244.391937,89.989136 244.510422,88.493973 244.422028,87.074783 
	C241.758881,87.074783 239.535904,87.074783 236.671646,87.074783 
	C237.148651,90.592934 237.186279,93.773987 238.069748,96.699600 
	C239.363388,100.983406 243.383850,102.706421 248.642151,101.758942 
	C252.971619,100.978844 255.103989,98.480034 255.494064,93.953163 
	C256.153870,86.295792 254.759232,79.964684 247.599426,75.511467 
	C243.707657,73.090889 243.976501,68.990593 245.569061,65.188667 
	C246.151672,65.043762 246.734283,64.898857 247.316879,64.753960 
	C247.996399,67.546249 248.675903,70.338547 249.323456,72.999519 
	C251.339630,72.999519 253.232422,72.999519 255.425964,72.999519 
	C255.425964,70.786469 255.436523,68.971451 255.424072,67.156586 
	C255.381012,60.874638 252.848373,58.065746 247.030182,57.833595 
	C240.974762,57.591972 237.720276,60.426746 237.077179,66.479218 
	C236.410889,72.749710 238.252747,77.750237 243.597244,81.610458 
	C245.712799,83.138466 246.897400,85.955368 248.562149,88.964531 
M206.519226,53.979160 
	C212.345764,53.979164 218.173553,54.054558 223.998489,53.957821 
	C229.737289,53.862507 235.545853,54.396927 241.114273,52.683342 
	C225.637360,52.683342 210.160446,52.683342 194.683533,52.683342 
	C194.688690,53.115265 194.693848,53.547184 194.699005,53.979107 
	C198.309631,53.979107 201.920273,53.979107 206.519226,53.979160 
M172.011581,53.976776 
	C173.709717,53.607044 175.407852,53.237316 177.105972,52.867584 
	C177.061264,52.683552 177.016556,52.499523 176.971848,52.315491 
	C162.007065,52.315491 147.042297,52.315491 132.077530,52.315491 
	C132.067780,52.869980 132.058044,53.424465 132.048294,53.978954 
	C145.069931,53.978954 158.091568,53.978954 172.011581,53.976776 
M197.823135,51.002663 
	C209.661636,51.002663 221.500153,51.002663 233.338654,51.002663 
	C233.321228,50.551746 233.303818,50.100834 233.286407,49.649918 
	C220.085815,49.649918 206.885239,49.649918 193.684662,49.649918 
	C193.676041,49.965599 193.667419,50.281281 193.658798,50.596966 
	C194.748123,50.732048 195.837433,50.867130 197.823135,51.002663 
M166.510101,41.998932 
	C168.711655,41.998932 170.913193,41.998932 173.114746,41.998932 
	C173.119507,41.571041 173.124268,41.143150 173.129028,40.715260 
	C168.989731,40.715260 164.850433,40.715260 160.711136,40.715260 
	C160.688675,41.062222 160.666214,41.409184 160.643753,41.756145 
	C162.303131,41.837074 163.962524,41.918003 166.510101,41.998932 
M207.272156,41.998451 
	C208.670380,41.845825 210.068619,41.693199 211.466843,41.540573 
	C211.401749,41.251785 211.336639,40.962994 211.271545,40.674202 
	C207.140396,40.674202 203.009232,40.674202 198.878082,40.674202 
	C198.875473,41.115650 198.872864,41.557102 198.870239,41.998550 
	C201.372665,41.998550 203.875092,41.998550 207.272156,41.998451 
z"/>
<path fill="#050505" opacity="1.000000" stroke="none" 
	d="
M20.451813,189.061768 
	C15.201734,189.073975 10.400268,189.073975 5.061722,189.073975 
	C6.694709,163.658615 8.301918,138.644440 9.928166,113.333969 
	C14.186587,113.333969 18.260965,113.333969 22.819729,113.333969 
	C21.196859,129.836502 19.581003,146.267700 17.965147,162.698898 
	C18.462225,162.797226 18.959301,162.895554 19.456379,162.993866 
	C25.157761,146.434677 30.859142,129.875488 36.599377,113.203453 
	C40.654896,113.203453 44.603321,113.203453 48.879036,113.203453 
	C47.225163,130.721588 45.590698,148.034119 43.956238,165.346634 
	C44.207924,165.414185 44.459610,165.481720 44.711296,165.549271 
	C47.849251,156.408142 51.044849,147.286285 54.106567,138.119690 
	C56.472641,131.035797 58.905548,123.958641 60.833984,116.751457 
	C61.661903,113.657257 63.024532,112.755043 65.980316,112.975899 
	C68.908638,113.194717 71.866074,113.023766 75.589081,113.023766 
	C69.744026,128.842560 64.101540,144.004120 58.543739,159.196655 
	C55.359516,167.900864 52.224556,176.625565 49.256012,185.404800 
	C48.317654,188.179916 46.958294,189.369858 43.909569,189.147675 
	C39.949799,188.859085 35.953098,189.077179 31.599922,189.077179 
	C32.564693,177.409317 33.504250,166.046402 34.443806,154.683502 
	C34.026920,154.622498 33.610035,154.561508 33.193150,154.500519 
	C29.967905,164.158508 26.779095,173.828964 23.486723,183.464020 
	C22.826900,185.394974 21.772758,187.191193 20.451813,189.061768 
z"/>
<path fill="#050505" opacity="1.000000" stroke="none" 
	d="
M308.944092,137.943481 
	C308.948578,141.425674 308.948578,144.418396 308.948578,147.411118 
	C309.164398,147.439957 309.380249,147.468796 309.596069,147.497620 
	C312.110626,136.130173 314.625183,124.762726 317.179993,113.213341 
	C320.794983,113.213341 324.413940,113.213341 328.807678,113.213341 
	C323.535797,138.485458 318.313782,163.518570 313.040588,188.797089 
	C308.872742,188.797089 304.817932,188.797089 300.260895,188.797089 
	C300.260895,178.059464 300.260895,167.465622 300.260895,156.871796 
	C299.941406,156.836838 299.621918,156.801895 299.302460,156.766937 
	C297.235413,165.906326 294.731689,174.977875 293.296570,184.215424 
	C292.637634,188.456772 291.210876,189.543030 287.388123,189.123596 
	C285.103424,188.872925 282.768768,189.077606 280.086975,189.077606 
	C285.425568,163.518661 290.670715,138.407074 295.934601,113.205750 
	C300.158966,113.205750 303.962311,113.205750 308.939606,113.205750 
	C308.939606,121.285881 308.939606,129.369949 308.944092,137.943481 
z"/>
<path fill="#050505" opacity="1.000000" stroke="none" 
	d="
M77.504425,131.352234 
	C77.834061,129.652618 77.879555,128.310913 78.172081,127.025398 
	C79.197266,122.520241 80.307579,118.034454 81.454926,113.252220 
	C88.612511,113.252220 95.738708,112.967773 102.828766,113.351341 
	C107.625053,113.610825 111.530380,117.915268 110.819229,123.049385 
	C109.739456,130.844727 107.584290,138.510162 105.542526,146.138870 
	C105.072090,147.896606 103.494667,150.191895 101.937683,150.680023 
	C95.344627,152.746887 96.671623,157.576294 97.332512,162.244446 
	C98.566185,170.958435 99.880096,179.661057 101.215134,188.739075 
	C96.550819,188.739075 92.168526,188.739075 87.455620,188.739075 
	C86.942650,178.877808 86.429855,169.019791 85.917053,159.161774 
	C85.459061,159.098572 85.001068,159.035385 84.543076,158.972198 
	C82.306465,168.900085 80.069855,178.827988 77.806244,188.875732 
	C73.768135,188.875732 69.825378,188.875732 65.621429,188.875732 
	C69.558617,169.667404 73.446083,150.701645 77.504425,131.352234 
M91.142822,127.675644 
	C89.976387,133.260483 88.809952,138.845322 87.643517,144.430161 
	C88.006958,144.807541 88.370407,145.184937 88.733849,145.562332 
	C90.586250,144.438950 93.534286,143.696335 94.082230,142.119629 
	C95.623978,137.683167 96.298599,132.921997 97.015953,128.242966 
	C97.152885,127.349815 95.926987,125.415901 95.320763,125.412117 
	C94.019043,125.403969 92.711403,126.341125 91.142822,127.675644 
z"/>
<path fill="#060606" opacity="1.000000" stroke="none" 
	d="
M342.867004,141.973724 
	C340.722321,152.461182 338.525330,162.503220 336.701447,172.612564 
	C336.409943,174.228424 337.790344,176.145905 338.397858,177.923950 
	C340.005341,176.841415 342.597992,176.064529 343.045502,174.622116 
	C344.758301,169.101486 345.781525,163.366943 347.118835,157.462036 
	C346.108337,157.141907 345.106049,156.824371 343.933990,156.453064 
	C344.759155,152.632294 345.553741,148.953049 346.375885,145.146225 
	C351.667816,145.146225 356.757111,145.146225 362.532959,145.146225 
	C360.284180,155.743454 358.610779,166.082199 355.832520,176.115005 
	C352.171509,189.335541 341.073486,192.463684 328.893768,188.929306 
	C323.920288,187.486099 322.285156,183.417282 323.275818,176.521423 
	C324.311127,169.314728 325.694397,162.146027 327.227692,155.025772 
	C329.322784,145.296707 331.670929,135.621429 333.969299,125.937035 
	C337.377197,111.577538 350.563019,109.863434 360.640564,113.290657 
	C363.004639,114.094635 364.848236,117.978676 365.826416,120.825348 
	C366.630981,123.166870 366.171387,126.150017 365.627167,128.711792 
	C363.302917,139.652847 363.215637,139.634308 351.363861,138.078934 
	C351.947632,135.178024 352.404449,132.253143 353.150055,129.403824 
	C353.781860,126.989426 354.429901,124.142555 351.182251,124.054588 
	C349.415588,124.006737 346.765869,126.185379 345.958374,128.001740 
	C344.646912,130.951645 344.540283,134.432571 343.885651,137.681396 
	C343.623596,138.981964 343.257141,140.261490 342.867004,141.973724 
z"/>
<path fill="#060606" opacity="1.000000" stroke="none" 
	d="
M154.952393,145.868500 
	C151.917419,137.548248 155.427063,122.141022 161.537567,116.336494 
	C166.508255,111.614693 180.065369,110.141457 185.461960,113.962524 
	C190.434387,117.483276 189.424606,122.933594 188.787262,127.721390 
	C187.278137,139.058685 186.151382,139.653610 173.556915,138.060318 
	C174.247025,134.698120 175.208878,131.387299 175.478333,128.021057 
	C175.585785,126.678497 174.163635,125.213486 173.437805,123.804214 
	C171.998428,124.669952 169.885468,125.188438 169.230652,126.458633 
	C165.421417,133.847443 166.373367,139.422302 172.534012,145.187668 
	C177.101730,149.462326 181.963913,153.577957 181.058060,160.573349 
	C179.874649,169.712296 179.304352,179.199585 171.860046,186.129150 
	C167.693054,190.008041 156.845428,191.621002 151.663925,189.165359 
	C146.986572,186.948654 144.526489,182.668106 145.368134,177.332031 
	C146.114182,172.601913 147.320312,167.944397 148.363693,163.066177 
	C152.608444,163.066177 156.522675,163.066177 160.724045,163.066177 
	C159.988190,166.532684 158.991318,169.716110 158.760941,172.954086 
	C158.646179,174.566849 159.935501,176.279526 160.589691,177.947006 
	C162.231659,177.088226 164.575089,176.656189 165.399963,175.300323 
	C170.187195,167.431595 168.790115,160.232025 161.950531,153.904694 
	C159.431412,151.574249 157.310349,148.813522 154.952393,145.868500 
z"/>
<path fill="#040404" opacity="1.000000" stroke="none" 
	d="
M120.993805,118.931511 
	C121.428772,116.770691 121.857925,115.035500 122.310585,113.205299 
	C132.175552,113.205299 141.783798,113.205299 152.041855,113.205299 
	C151.255569,117.270973 150.524445,121.051483 149.728546,125.166931 
	C143.953964,125.166931 138.349670,125.166931 132.582870,125.166931 
	C131.182541,131.778229 129.851456,138.062592 128.419327,144.824020 
	C133.464294,144.824020 138.045883,144.824020 142.520615,144.824020 
	C142.712112,145.510147 142.940796,145.859100 142.853378,146.086533 
	C141.459946,149.711777 140.988831,154.946091 138.349762,156.510010 
	C135.277878,158.330429 130.300095,156.934738 125.792732,156.934738 
	C124.366966,163.378265 122.981781,169.638382 121.466408,176.486893 
	C127.166428,176.486893 132.386154,176.486893 138.513992,176.486893 
	C137.509308,181.046463 136.651047,184.941528 135.775543,188.914856 
	C125.931381,188.914856 116.314659,188.914856 106.230247,188.914856 
	C111.184204,165.565338 116.086090,142.461243 120.993805,118.931511 
z"/>
<path fill="#050505" opacity="1.000000" stroke="none" 
	d="
M200.084717,153.071198 
	C202.158844,143.623886 204.164749,134.595581 206.288666,125.036118 
	C202.584610,125.036118 199.336426,125.036118 195.930496,125.036118 
	C196.829010,120.859634 197.624542,117.161827 198.461517,113.271393 
	C209.405762,113.271393 220.158295,113.271393 231.099457,113.271393 
	C230.313263,117.110420 229.551559,120.829819 228.792877,124.551819 
	C228.500320,124.698051 228.210831,124.952568 227.908249,124.969238 
	C218.524918,125.486282 218.374115,125.451225 216.287994,135.429260 
	C212.598969,153.074173 209.113419,170.761627 205.478622,188.748413 
	C201.248596,188.748413 197.003082,188.748413 192.415665,188.748413 
	C194.953934,176.974075 197.485214,165.232132 200.084717,153.071198 
z"/>
<path fill="#050505" opacity="1.000000" stroke="none" 
	d="
M254.104889,177.278290 
	C253.585098,181.382660 252.817749,185.111801 252.033096,188.925018 
	C242.258469,188.925018 232.795715,188.925018 222.457092,188.925018 
	C227.715622,163.637512 232.921097,138.605164 238.174927,113.340286 
	C242.454315,113.340286 246.381866,113.340286 250.904495,113.340286 
	C246.585831,134.235275 242.277740,155.079178 237.767090,176.903076 
	C243.367340,176.903076 248.612335,176.903076 254.104889,177.278290 
z"/>
<path fill="#060606" opacity="1.000000" stroke="none" 
	d="
M273.376404,120.274750 
	C273.985962,117.648102 274.438995,115.414177 274.879272,113.243103 
	C279.226379,113.243103 283.172119,113.243103 287.684082,113.243103 
	C282.303986,138.534058 276.993347,163.498611 271.618896,188.763062 
	C267.523041,188.763062 263.434387,188.763062 259.071838,188.763062 
	C263.798492,166.013351 268.509186,143.340393 273.376404,120.274750 
z"/>
<path fill="#070D13" opacity="1.000000" stroke="none" 
	d="
M139.707794,256.301636 
	C154.602875,262.498779 169.134064,268.578461 183.746872,274.455261 
	C185.250336,275.059906 187.447571,274.956726 188.974350,274.331207 
	C207.545471,266.722870 226.041992,258.932678 244.579788,251.242569 
	C249.927795,249.024033 255.278702,246.775223 260.758820,244.927505 
	C263.688171,243.939835 264.456329,242.365738 264.422089,239.457993 
	C264.280884,227.463348 264.340576,215.466003 264.388947,203.469894 
	C264.395752,201.781326 264.748627,200.094131 264.941315,198.406311 
	C265.454468,198.332993 265.967651,198.259674 266.480804,198.186371 
	C266.907715,199.346451 267.698547,200.504227 267.705933,201.666977 
	C267.792969,215.328873 267.873749,228.993683 267.610229,242.651031 
	C267.580200,244.207352 265.771301,246.498047 264.238495,247.141983 
	C239.171539,257.672424 214.035904,268.041046 188.837997,278.254364 
	C187.091843,278.962128 184.504257,278.721283 182.696045,277.977783 
	C159.379852,268.390503 136.126999,258.648804 112.874405,248.907349 
	C103.996292,245.187943 104.015167,245.142899 104.015175,235.331253 
	C104.015175,224.501251 103.948891,213.670380 104.092361,202.842285 
	C104.112076,201.354462 105.173874,199.880463 105.753220,198.400055 
	C106.429924,199.843475 107.674606,201.279373 107.693787,202.731491 
	C107.852211,214.725693 107.878700,226.724152 107.720032,238.718369 
	C107.677811,241.910370 108.290924,243.787369 111.664108,245.032196 
	C120.992737,248.474792 130.145111,252.394958 139.707794,256.301636 
z"/>
<path fill="#FBFDFE" opacity="1.000000" stroke="none" 
	d="
M174.512115,216.642334 
	C174.810684,217.019836 174.916595,217.148331 175.022507,217.276840 
	C175.215408,216.891983 175.573471,216.508347 175.576263,216.122101 
	C175.613617,210.973587 175.601212,205.824692 175.601212,200.345154 
	C177.800262,200.345154 179.713028,200.345154 182.014923,200.345154 
	C182.014923,214.180054 182.014923,228.057541 182.016495,241.936493 
	C175.485504,243.670273 174.921021,243.298004 173.643402,237.085724 
	C172.894058,233.442139 171.932419,229.842209 170.151947,226.381912 
	C170.151947,231.603302 170.151947,236.824677 170.151947,242.370392 
	C167.958435,242.370392 166.073746,242.370392 163.894318,242.370392 
	C163.894318,228.251144 163.894318,214.367294 163.894318,200.246399 
	C166.078339,200.246399 168.024323,200.246399 170.488846,200.246399 
	C171.742615,205.531311 173.031052,210.962326 174.512115,216.642334 
z"/>
<path fill="#FBFCFE" opacity="1.000000" stroke="none" 
	d="
M252.790619,242.704590 
	C249.359283,243.196808 247.885132,241.971298 247.352173,238.874634 
	C246.670181,234.911850 245.515869,231.030380 243.416229,227.302063 
	C243.416229,232.153809 243.416229,237.005554 243.416229,242.276367 
	C240.856888,242.276367 238.668930,242.276367 236.119080,242.276367 
	C236.119080,228.419235 236.119080,214.552505 236.119080,200.061127 
	C239.942139,200.061127 243.904144,199.737305 247.769180,200.208633 
	C249.495392,200.419128 251.428726,201.913345 252.567627,203.371902 
	C255.436523,207.045944 254.205215,218.436462 251.318130,222.135834 
	C250.381866,223.335526 250.226410,225.692017 250.631760,227.285904 
	C251.729111,231.600510 253.416534,235.762619 254.615646,240.056229 
	C254.809586,240.750717 253.702209,241.808640 252.790619,242.704590 
M243.287048,211.579697 
	C243.287048,213.602936 243.287048,215.626175 243.287048,218.140228 
	C248.731934,216.922821 246.768784,213.311234 246.934647,210.869797 
	C247.018921,209.629395 245.813431,208.301346 245.190994,207.012909 
	C244.556580,208.243881 243.922165,209.474854 243.287048,211.579697 
z"/>
<path fill="#F9FBFD" opacity="1.000000" stroke="none" 
	d="
M127.014557,233.670563 
	C127.029747,231.751328 127.029747,230.266037 127.029747,228.422394 
	C129.338120,228.422394 131.407303,228.422394 133.512939,228.422394 
	C136.520355,238.648666 131.373795,245.119431 121.778465,243.068237 
	C118.122185,242.286621 115.578545,240.299423 115.522179,236.409058 
	C115.377876,226.451019 115.198746,216.479568 115.574135,206.533875 
	C115.759811,201.614456 119.022011,199.316467 124.500221,199.242828 
	C128.954071,199.182938 132.900101,200.391876 133.835876,205.499741 
	C134.330643,208.200546 134.210419,211.014053 134.386322,214.100891 
	C131.743271,214.100891 129.678131,214.100891 127.264168,214.100891 
	C127.181511,212.359436 127.293983,210.705048 126.958046,209.147354 
	C126.753700,208.199860 125.857430,207.401581 125.271980,206.536270 
	C124.346214,207.292694 122.634384,208.030106 122.615555,208.808472 
	C122.414543,217.119980 122.438629,225.438553 122.548256,233.753250 
	C122.558144,234.503036 123.765717,235.937271 124.122856,235.849960 
	C125.161835,235.595993 126.051277,234.730286 127.014557,233.670563 
z"/>
<path fill="#FAFCFE" opacity="1.000000" stroke="none" 
	d="
M144.157074,200.006119 
	C148.603134,200.005997 152.568878,200.005997 156.895782,200.005997 
	C156.895782,202.330978 156.895782,204.371658 156.895782,206.813202 
	C154.160248,206.813202 151.393570,206.813202 148.247498,206.813202 
	C148.247498,210.558960 148.247498,213.921219 148.247498,217.628479 
	C150.669800,217.787643 153.077850,217.945847 155.730804,218.120163 
	C155.730804,220.353973 155.730804,222.417236 155.730804,224.954681 
	C153.182465,224.954681 150.777390,224.954681 148.121902,224.954681 
	C148.121902,228.644943 148.121902,231.866837 148.121902,235.370926 
	C151.118179,235.531097 153.876205,235.678513 156.938675,235.842209 
	C156.938675,238.106384 156.938675,240.149170 156.938675,242.450577 
	C151.280014,242.450577 145.886032,242.450577 140.012527,242.450577 
	C140.012527,228.946854 139.946075,215.701355 140.169556,202.460739 
	C140.183685,201.623062 142.455338,200.823517 144.157074,200.006119 
z"/>
<path fill="#F8FBFD" opacity="1.000000" stroke="none" 
	d="
M219.997498,230.892654 
	C220.086212,232.627731 220.174911,233.903503 220.290268,235.562622 
	C223.331604,235.562622 226.105560,235.562622 229.295471,235.562622 
	C229.295471,237.982101 229.295471,240.003677 229.295471,242.377609 
	C223.830322,242.377609 218.462723,242.377609 212.854004,242.377609 
	C212.854004,228.226883 212.854004,214.357285 212.854004,200.245239 
	C218.380615,200.245239 223.650665,200.245239 229.320343,200.245239 
	C229.320343,202.250305 229.320343,204.293030 229.320343,206.799774 
	C226.459427,206.799774 223.553207,206.799774 220.322769,206.799774 
	C220.322769,210.622787 220.322769,213.994507 220.322769,217.658234 
	C223.020828,217.816010 225.594666,217.966507 228.395721,218.130295 
	C228.395721,220.339828 228.395721,222.270828 228.395721,224.705460 
	C225.835556,224.860428 223.267715,225.015869 219.997467,225.213821 
	C219.997467,226.928040 219.997467,228.680695 219.997498,230.892654 
z"/>
<path fill="#FDFEFF" opacity="1.000000" stroke="none" 
	d="
M201.041733,223.002518 
	C201.041733,229.644073 201.041733,235.786560 201.041733,242.258514 
	C198.591660,242.258514 196.535400,242.258514 193.947571,242.258514 
	C193.947571,230.591904 193.947571,219.000061 193.947571,207.227142 
	C191.831055,207.061401 190.222885,206.935455 188.347305,206.788574 
	C188.347305,204.589493 188.347305,202.533218 188.347305,200.254425 
	C194.620651,200.254425 200.704193,200.254425 207.012421,200.254425 
	C207.012421,202.434540 207.012421,204.375137 207.012421,206.635223 
	C205.251175,206.824203 203.483994,207.013840 201.041733,207.275894 
	C201.041733,212.287354 201.041733,217.395386 201.041733,223.002518 
z"/>
<path fill="#0B3693" opacity="1.000000" stroke="none" 
	d="
M141.067474,249.011292 
	C137.776291,249.011292 134.972305,249.011292 132.168335,249.011292 
	C132.171829,248.782013 132.175339,248.552734 132.178833,248.323456 
	C168.074844,248.323456 203.970840,248.323456 239.866852,248.323456 
	C239.868683,248.552734 239.870499,248.781998 239.872314,249.011276 
	C207.099777,249.011276 174.327225,249.011276 141.067474,249.011292 
z"/>
<path fill="#1653AA" opacity="1.000000" stroke="none" 
	d="
M181.000198,261.006104 
	C173.892349,261.006104 167.284439,261.006104 160.676544,261.006104 
	C160.677017,260.565186 160.677490,260.124237 160.677948,259.683319 
	C177.551941,259.683319 194.425949,259.683319 211.299942,259.683319 
	C211.315262,260.124237 211.330566,260.565186 211.345886,261.006104 
	C201.397308,261.006104 191.448730,261.006104 181.000198,261.006104 
z"/>
<path fill="#2752A4" opacity="1.000000" stroke="none" 
	d="
M165.000000,252.003052 
	C156.053192,252.003052 147.606384,252.003052 139.159576,252.003052 
	C139.160797,251.771484 139.162003,251.539917 139.163223,251.308350 
	C170.386536,251.308350 201.609848,251.308350 232.833176,251.308350 
	C232.835419,251.539917 232.837662,251.771484 232.839905,252.003052 
	C210.393265,252.003052 187.946640,252.003052 165.000000,252.003052 
z"/>
<path fill="#1955AA" opacity="1.000000" stroke="none" 
	d="
M212.987701,255.005875 
	C190.746902,255.005890 169.003433,255.005890 147.259949,255.005890 
	C147.259323,254.784760 147.258682,254.563629 147.258057,254.342499 
	C173.414261,254.342499 199.570465,254.342499 225.726669,254.342499 
	C225.740051,254.563614 225.753433,254.784744 225.766800,255.005859 
	C221.672882,255.005859 217.578949,255.005859 212.987701,255.005875 
z"/>
<path fill="#2E70BD" opacity="1.000000" stroke="none" 
	d="
M184.001923,262.002441 
	C191.101120,262.002441 197.700684,262.002441 204.300262,262.002441 
	C204.300781,262.438507 204.301285,262.874542 204.301788,263.310608 
	C192.110199,263.310608 179.918610,263.310608 167.727005,263.310608 
	C167.700989,262.874542 167.674973,262.438507 167.648941,262.002441 
	C172.933395,262.002441 178.217850,262.002441 184.001923,262.002441 
z"/>
<path fill="#2752A4" opacity="1.000000" stroke="none" 
	d="
M218.997772,256.982605 
	C217.779968,257.322815 216.563019,257.956024 215.344238,257.959595 
	C195.074768,258.018677 174.805099,258.002441 154.535477,257.980499 
	C153.891525,257.979797 153.247833,257.739807 152.775818,257.310822 
	C174.964340,257.001099 196.981064,256.991852 218.997772,256.982605 
z"/>
<path fill="#2F71BE" opacity="1.000000" stroke="none" 
	d="
M218.700439,256.690826 
	C196.981064,256.991852 174.964340,257.001099 152.480316,257.017029 
	C153.232208,256.683411 154.450531,256.050018 155.670700,256.046478 
	C175.938095,255.987335 196.205719,256.003601 216.473267,256.025757 
	C217.116684,256.026459 217.759842,256.269165 218.700439,256.690826 
z"/>
<path fill="#1557AF" opacity="1.000000" stroke="none" 
	d="
M185.011139,264.989685 
	C189.107117,264.989655 192.713959,264.989655 196.320801,264.989655 
	C196.325928,265.429596 196.331055,265.869507 196.336182,266.309448 
	C189.133438,266.309448 181.930710,266.309448 174.727966,266.309448 
	C174.698593,265.869537 174.669205,265.429596 174.639832,264.989685 
	C177.933899,264.989685 181.227951,264.989685 185.011139,264.989685 
z"/>
<path fill="#0B0406" opacity="1.000000" stroke="none" 
	d="
M267.722595,71.007263 
	C267.565491,81.845848 268.064606,92.223473 267.414581,102.535042 
	C266.669586,102.535606 265.924591,102.536179 265.179596,102.536751 
	C265.041016,100.869812 264.787231,99.203209 264.782318,97.535881 
	C264.747498,85.713516 264.693176,73.890305 264.811890,62.069035 
	C264.842529,59.021816 264.052917,57.705605 260.842499,56.467690 
	C247.084976,51.162865 233.577576,45.211853 219.952286,39.560829 
	C209.695892,35.307034 199.439194,31.046700 189.081360,27.051878 
	C187.299210,26.364534 184.763000,26.384331 182.992218,27.103907 
	C158.718719,36.967693 134.495529,46.957386 110.361954,57.157482 
	C109.024216,57.722878 107.865051,60.385563 107.832802,62.094875 
	C107.612991,73.746674 107.719193,85.404602 107.715118,97.060547 
	C107.714714,98.225647 107.893890,99.450409 107.590569,100.535934 
	C107.369339,101.327644 106.491341,101.935837 105.906128,102.625847 
	C105.299072,101.841858 104.214272,101.085045 104.167862,100.269165 
	C103.969589,96.783493 104.075279,93.280373 104.074814,89.783623 
	C104.073494,79.792809 104.167587,69.800568 104.013832,59.812122 
	C103.971581,57.066952 104.815056,55.772789 107.436401,54.693058 
	C132.422394,44.401409 157.314133,33.880741 182.311539,23.617264 
	C184.359741,22.776310 187.305481,22.562431 189.295456,23.375565 
	C213.851837,33.409637 238.271667,43.777882 262.829407,53.808559 
	C266.467987,55.294750 268.254944,56.961105 267.793579,61.025486 
	C267.439026,64.148956 267.722900,67.344887 267.722595,71.007263 
z"/>
<path fill="#FCF7F8" opacity="1.000000" stroke="none" 
	d="
M180.949402,58.573933 
	C182.585449,59.507534 184.721954,60.427635 184.738037,61.383396 
	C184.958603,74.499268 184.886780,87.620056 184.886780,101.082840 
	C182.267715,101.082840 180.030396,101.082840 177.578842,101.082840 
	C176.401932,96.258430 175.212402,91.382378 174.022888,86.506317 
	C173.691940,86.543633 173.360977,86.580948 173.030029,86.618263 
	C173.030029,91.434891 173.030029,96.251518 173.030029,101.129349 
	C170.600769,101.129349 168.685776,101.129349 166.518402,101.129349 
	C166.518402,86.927353 166.518402,73.024338 166.518402,58.846519 
	C168.706741,58.846519 170.637726,58.846519 173.008759,58.846519 
	C174.480713,64.786110 175.965744,70.778366 177.450760,76.770630 
	C177.613464,76.742691 177.776184,76.714752 177.938889,76.686813 
	C177.938889,71.698540 177.792236,66.702568 178.053696,61.728035 
	C178.110962,60.638474 179.622330,59.625340 180.949402,58.573933 
z"/>
<path fill="#FEFBFB" opacity="1.000000" stroke="none" 
	d="
M157.087433,69.925491 
	C158.789368,80.468140 160.424377,90.579994 162.055405,100.667198 
	C155.641891,102.106949 155.641891,102.106949 152.864120,93.308289 
	C150.383835,92.559448 148.078339,92.414482 148.106705,95.955856 
	C148.154922,101.980362 144.676880,102.054993 139.926010,100.951698 
	C141.096848,92.498322 142.185883,84.170273 143.425644,75.864723 
	C144.133560,71.122131 145.340897,66.443481 145.852249,61.685410 
	C146.286743,57.642689 149.057480,58.793133 151.349640,58.575314 
	C154.000259,58.323425 155.901031,58.866623 156.077087,62.089478 
	C156.212448,64.567665 156.693283,67.026985 157.087433,69.925491 
z"/>
<path fill="#FDFAFB" opacity="1.000000" stroke="none" 
	d="
M232.874725,95.427368 
	C232.939011,97.509590 232.939011,99.147278 232.939011,101.172356 
	C231.028381,101.258263 229.285797,101.336617 227.078125,101.435883 
	C226.412689,98.602997 225.786469,95.937050 225.131226,93.147583 
	C223.382599,93.147583 221.771042,93.147583 219.983673,93.147583 
	C219.547470,95.895157 219.139236,98.466682 218.707840,101.183983 
	C216.379715,101.183983 214.294800,101.183983 211.315430,101.183983 
	C213.528259,86.849648 215.685425,72.875954 217.817398,59.065372 
	C218.980484,58.808365 219.447449,58.625137 219.918839,58.612965 
	C227.472748,58.417927 227.286743,58.448315 228.310287,65.942200 
	C229.635696,75.646263 231.294937,85.304726 232.874725,95.427368 
z"/>
<path fill="#FEFBFC" opacity="1.000000" stroke="none" 
	d="
M117.067795,58.720882 
	C119.208038,58.626114 120.863548,58.626114 122.999237,58.626114 
	C122.999237,63.665974 122.999237,68.526489 122.999237,73.387009 
	C123.301086,73.436836 123.602936,73.486671 123.904785,73.536507 
	C125.067162,70.168808 126.720848,66.880379 127.279968,63.415337 
	C128.181519,57.828182 131.566879,58.114975 135.831619,58.976784 
	C134.160522,64.110245 133.048264,69.357849 130.755219,74.025360 
	C128.706543,78.195457 128.782333,81.623039 130.600281,85.729256 
	C132.732101,90.544403 134.157730,95.672203 135.982910,100.933182 
	C131.870956,101.781044 128.446915,102.521751 127.502457,96.769958 
	C126.955986,93.441948 125.205009,90.311714 123.278648,87.100998 
	C123.278648,91.732002 123.278648,96.363007 123.278648,101.184952 
	C120.607185,101.184952 118.525230,101.184952 116.583069,101.184952 
	C116.583069,86.926071 116.583069,72.870865 117.067795,58.720882 
z"/>
<path fill="#FCF6F7" opacity="1.000000" stroke="none" 
	d="
M204.565277,59.121235 
	C209.569229,63.040928 207.645554,68.093758 207.947525,73.077881 
	C205.638000,73.077881 203.591034,73.077881 201.002777,73.077881 
	C201.002777,71.405441 201.295410,69.713722 200.908493,68.195137 
	C200.608749,67.018669 199.459274,66.058701 198.687515,65.002495 
	C197.950775,66.106590 196.405350,67.422661 196.628784,68.275055 
	C197.301041,70.839668 197.993347,74.425682 199.870483,75.470459 
	C208.086823,80.043526 208.808228,87.277344 207.908386,95.196968 
	C207.399567,99.675117 204.174759,101.696045 199.902069,101.902275 
	C195.571716,102.111275 191.235901,101.728371 190.018173,96.497902 
	C189.324249,93.517288 189.403992,90.356552 189.108322,86.967117 
	C191.753815,86.967117 193.687302,86.967117 196.192764,86.967117 
	C196.296646,88.689278 196.158707,90.498604 196.597183,92.155388 
	C196.865814,93.170448 198.018372,93.951576 198.773987,94.837753 
	C199.516663,93.953835 200.713394,93.166466 200.925354,92.169708 
	C201.980438,87.207695 199.268066,83.943962 195.467514,81.391182 
	C191.273163,78.573868 189.233673,74.813744 189.235565,69.676064 
	C189.239502,58.972530 193.549362,55.785992 204.565277,59.121235 
z"/>
<path fill="#FDF8F9" opacity="1.000000" stroke="none" 
	d="
M248.534012,88.574982 
	C246.897400,85.955368 245.712799,83.138466 243.597244,81.610458 
	C238.252747,77.750237 236.410889,72.749710 237.077179,66.479218 
	C237.720276,60.426746 240.974762,57.591972 247.030182,57.833595 
	C252.848373,58.065746 255.381012,60.874638 255.424072,67.156586 
	C255.436523,68.971451 255.425964,70.786469 255.425964,72.999519 
	C253.232422,72.999519 251.339630,72.999519 249.323456,72.999519 
	C248.675903,70.338547 247.996399,67.546249 247.316879,64.753960 
	C246.734283,64.898857 246.151672,65.043762 245.569061,65.188667 
	C243.976501,68.990593 243.707657,73.090889 247.599426,75.511467 
	C254.759232,79.964684 256.153870,86.295792 255.494064,93.953163 
	C255.103989,98.480034 252.971619,100.978844 248.642151,101.758942 
	C243.383850,102.706421 239.363388,100.983406 238.069748,96.699600 
	C237.186279,93.773987 237.148651,90.592934 236.671646,87.074783 
	C239.535904,87.074783 241.758881,87.074783 244.422028,87.074783 
	C244.510422,88.493973 244.391937,89.989136 244.751907,91.358543 
	C245.073578,92.582214 245.923294,93.667091 246.540039,94.813202 
	C247.216766,93.696182 248.035522,92.636337 248.516846,91.440659 
	C248.804871,90.725151 248.564850,89.797066 248.534012,88.574982 
z"/>
<path fill="#FCF7F8" opacity="1.000000" stroke="none" 
	d="
M177.364090,42.843605 
	C176.717834,42.151440 176.071579,41.459274 174.942688,40.250195 
	C178.003738,40.094440 180.531113,39.965843 183.001999,39.840118 
	C184.010101,37.452324 184.971252,35.175713 185.932404,32.899105 
	C187.221268,39.109112 190.696747,41.392330 196.635483,40.766094 
	C195.891052,41.307819 195.146606,41.849548 194.126160,42.761345 
	C193.850174,43.131413 193.698639,43.422043 193.698639,43.422043 
	C192.842117,44.839066 191.985611,46.256096 191.431839,47.846031 
	C191.734573,48.018936 191.696014,48.182518 191.696014,48.182518 
	C191.544693,49.724808 191.393387,51.267094 190.866699,52.936028 
	C190.491333,53.062668 190.532700,52.996529 190.532700,52.996529 
	C189.267670,51.616905 188.002625,50.237286 186.555801,48.659416 
	C185.073410,49.758652 183.794205,50.707222 181.918976,51.848888 
	C180.878983,52.088551 180.435043,52.135117 179.991089,52.181683 
	C179.699814,51.978664 179.408554,51.775646 179.057129,51.291367 
	C178.996979,51.010109 179.037323,51.069832 179.037323,51.069832 
	C179.485550,50.264534 179.933792,49.459236 180.368561,48.237270 
	C180.355118,47.820602 180.333038,47.709423 180.333038,47.709427 
	C179.768326,46.247173 179.203613,44.784920 178.183655,43.116180 
	C177.728394,42.909695 177.364090,42.843605 177.364090,42.843605 
z"/>
<path fill="#A2394B" opacity="1.000000" stroke="none" 
	d="
M206.025055,53.979134 
	C201.920273,53.979107 198.309631,53.979107 194.699005,53.979107 
	C194.693848,53.547184 194.688690,53.115265 194.683533,52.683342 
	C210.160446,52.683342 225.637360,52.683342 241.114273,52.683342 
	C235.545853,54.396927 229.737289,53.862507 223.998489,53.957821 
	C218.173553,54.054558 212.345764,53.979164 206.025055,53.979134 
z"/>
<path fill="#A3394B" opacity="1.000000" stroke="none" 
	d="
M171.562393,53.977867 
	C158.091568,53.978954 145.069931,53.978954 132.048294,53.978954 
	C132.058044,53.424465 132.067780,52.869980 132.077530,52.315491 
	C147.042297,52.315491 162.007065,52.315491 176.971848,52.315491 
	C177.016556,52.499523 177.061264,52.683552 177.105972,52.867584 
	C175.407852,53.237316 173.709717,53.607044 171.562393,53.977867 
z"/>
<path fill="#9B2337" opacity="1.000000" stroke="none" 
	d="
M179.030914,51.021980 
	C165.605637,51.033855 152.146423,51.033855 138.687210,51.033855 
	C138.648148,50.562813 138.609100,50.091770 138.570038,49.620728 
	C139.395462,49.414864 140.220276,49.032642 141.046417,49.029720 
	C152.496185,48.989273 163.946411,48.964832 175.395584,49.055092 
	C176.548859,49.064178 177.696030,49.843967 178.941681,50.667961 
	C179.037323,51.069832 178.996979,51.010109 179.030914,51.021980 
z"/>
<path fill="#9B2337" opacity="1.000000" stroke="none" 
	d="
M197.374939,51.002438 
	C195.837433,50.867130 194.748123,50.732048 193.658798,50.596966 
	C193.667419,50.281281 193.676041,49.965599 193.684662,49.649918 
	C206.885239,49.649918 220.085815,49.649918 233.286407,49.649918 
	C233.303818,50.100834 233.321228,50.551746 233.338654,51.002663 
	C221.500153,51.002663 209.661636,51.002663 197.374939,51.002438 
z"/>
<path fill="#B1364D" opacity="1.000000" stroke="none" 
	d="
M180.083984,47.306938 
	C180.333038,47.709423 180.355118,47.820602 180.336548,47.873631 
	C168.781357,47.926659 157.244736,47.926659 144.329590,47.926659 
	C145.924789,46.742691 146.356659,46.142544 146.791992,46.140018 
	C157.222031,46.079472 167.652466,46.069557 178.082626,46.110283 
	C178.667740,46.112568 179.250870,46.627907 180.083984,47.306938 
z"/>
<path fill="#B0344B" opacity="1.000000" stroke="none" 
	d="
M191.694580,48.101692 
	C192.464081,47.470669 193.265686,46.146145 194.084290,46.135551 
	C204.821030,45.996555 215.560181,46.043118 226.298721,46.043118 
	C226.307434,46.719700 226.316147,47.396286 226.324860,48.072868 
	C215.115143,48.072868 203.905441,48.072868 192.195877,48.127693 
	C191.696014,48.182518 191.734573,48.018936 191.694580,48.101692 
z"/>
<path fill="#9C1D33" opacity="1.000000" stroke="none" 
	d="
M193.955933,43.803406 
	C193.698639,43.422043 193.850174,43.131413 194.005280,43.078842 
	C202.208084,43.026268 210.255798,43.026268 218.303497,43.026268 
	C218.310577,43.671383 218.317673,44.316494 218.324753,44.961609 
	C210.287262,44.689922 202.286652,45.901897 193.955933,43.803406 
z"/>
<path fill="#9C1E34" opacity="1.000000" stroke="none" 
	d="
M176.872040,42.886539 
	C177.364090,42.843605 177.728394,42.909695 177.843918,43.054031 
	C177.755798,43.641598 177.555359,44.470638 177.348022,44.472370 
	C169.459579,44.538193 161.570511,44.528053 153.681519,44.528053 
	C153.675949,43.995193 153.670380,43.462334 153.664810,42.929474 
	C161.236542,42.929474 168.808273,42.929474 176.872040,42.886539 
z"/>
<path fill="#A2384A" opacity="1.000000" stroke="none" 
	d="
M166.066010,41.998932 
	C163.962524,41.918003 162.303131,41.837074 160.643753,41.756145 
	C160.666214,41.409184 160.688675,41.062222 160.711136,40.715260 
	C164.850433,40.715260 168.989731,40.715260 173.129028,40.715260 
	C173.124268,41.143150 173.119507,41.571041 173.114746,41.998932 
	C170.913193,41.998932 168.711655,41.998932 166.066010,41.998932 
z"/>
<path fill="#A2394A" opacity="1.000000" stroke="none" 
	d="
M206.824829,41.998501 
	C203.875092,41.998550 201.372665,41.998550 198.870239,41.998550 
	C198.872864,41.557102 198.875473,41.115650 198.878082,40.674202 
	C203.009232,40.674202 207.140396,40.674202 211.271545,40.674202 
	C211.336639,40.962994 211.401749,41.251785 211.466843,41.540573 
	C210.068619,41.693199 208.670380,41.845825 206.824829,41.998501 
z"/>
<path fill="#BA2B46" opacity="1.000000" stroke="none" 
	d="
M190.520950,53.032471 
	C188.433472,53.410679 186.316376,53.819088 184.199265,54.227497 
	C184.164337,53.810520 184.129395,53.393539 184.094467,52.976559 
	C185.934967,52.976559 187.775482,52.976559 190.074341,52.986542 
	C190.532700,52.996529 190.491333,53.062668 190.520950,53.032471 
z"/>
<path fill="#BA2B46" opacity="1.000000" stroke="none" 
	d="
M180.017761,52.430809 
	C180.435043,52.135117 180.878983,52.088551 181.657410,52.068512 
	C181.342712,52.290009 180.693573,52.484974 180.017761,52.430809 
z"/>
<path fill="#F0F0F0" opacity="1.000000" stroke="none" 
	d="
M91.274506,127.283463 
	C92.711403,126.341125 94.019043,125.403969 95.320763,125.412117 
	C95.926987,125.415901 97.152885,127.349815 97.015953,128.242966 
	C96.298599,132.921997 95.623978,137.683167 94.082230,142.119629 
	C93.534286,143.696335 90.586250,144.438950 88.733849,145.562332 
	C88.370407,145.184937 88.006958,144.807541 87.643517,144.430161 
	C88.809952,138.845322 89.976387,133.260483 91.274506,127.283463 
z"/>
<path fill="#3A82CB" opacity="1.000000" stroke="none" 
	d="
M243.287384,211.142761 
	C243.922165,209.474854 244.556580,208.243881 245.191010,207.012909 
	C245.813431,208.301346 247.018921,209.629395 246.934647,210.869797 
	C246.768784,213.311234 248.731934,216.922821 243.287048,218.140228 
	C243.287048,215.626175 243.287048,213.602936 243.287384,211.142761 
z"/>
</svg>