<svg version="1.1" id="Layer_1" xmlns="http://www.w3.org/2000/svg" xmlns:xlink="http://www.w3.org/1999/xlink" x="0px" y="0px"
	 width="100%" viewBox="0 0 400 400" enable-background="new 0 0 400 400" xml:space="preserve">
<path fill="#FEFEFE" opacity="1.000000" stroke="none" 
	d="
M225.000000,401.000000 
	C150.023285,401.000000 75.546555,401.000000 1.034916,401.000000 
	C1.034916,267.731598 1.034916,134.463211 1.034916,1.097406 
	C134.226669,1.097406 267.453430,1.097406 400.840088,1.097406 
	C400.840088,134.333176 400.840088,267.666565 400.840088,401.000000 
	C342.463287,401.000000 283.981628,401.000000 225.000000,401.000000 
M173.500183,224.539658 
	C136.094284,224.539658 98.688393,224.539658 60.964825,224.539658 
	C61.406387,225.469772 61.485683,225.942383 61.676064,225.992447 
	C65.072716,226.885376 68.468018,228.385529 71.892723,228.462677 
	C84.828964,228.754089 97.775711,228.579773 111.284203,228.579773 
	C111.284203,230.904373 111.284195,232.687134 111.284203,234.469894 
	C111.284233,247.629684 111.338638,260.789886 111.240959,273.948944 
	C111.220039,276.768280 111.914955,278.211273 114.861092,279.416931 
	C141.213394,290.201263 167.432632,301.310608 193.773926,312.122284 
	C195.742157,312.930084 198.594986,312.815216 200.618881,312.039490 
	C208.957581,308.843323 217.130478,305.215576 225.372635,301.766357 
	C243.405228,294.220001 261.397827,286.574188 279.521942,279.254120 
	C282.607666,278.007812 282.913483,276.236053 282.901489,273.565491 
	C282.842255,260.405975 282.874603,247.246017 282.874634,234.086212 
	C282.874634,232.330688 282.874634,230.575150 282.874634,228.579742 
	C297.629028,228.579742 311.616913,228.696533 325.599518,228.476517 
	C328.243591,228.434906 330.866608,227.055038 333.499359,226.292679 
	C333.379700,225.708496 333.260040,225.124329 333.140381,224.540146 
	C280.260315,224.540146 227.380264,224.540146 173.500183,224.539658 
M203.499878,136.581543 
	C246.733353,136.581543 289.966827,136.581543 333.200317,136.581543 
	C333.326874,136.044373 333.453461,135.507217 333.580017,134.970047 
	C331.166229,134.255600 328.761780,132.962463 326.337128,132.923447 
	C313.514832,132.717209 300.687469,132.826569 287.861847,132.826508 
	C286.281036,132.826508 284.700256,132.826523 282.888672,132.826523 
	C282.888672,117.252739 282.836517,102.435593 282.931671,87.619392 
	C282.951233,84.573227 282.043793,83.009361 278.974091,81.748947 
	C252.926788,71.053978 227.035492,59.977177 200.934677,49.417088 
	C198.151474,48.291035 193.991776,48.916172 191.038437,50.120876 
	C165.747101,60.437485 140.624161,71.166740 115.341370,81.504799 
	C112.060989,82.846130 111.176888,84.486198 111.218040,87.723068 
	C111.362007,99.047752 111.273643,110.375397 111.273552,121.701912 
	C111.273521,125.295609 111.273552,128.889297 111.273552,132.826630 
	C96.429085,132.826630 82.298988,132.728973 68.172821,132.920425 
	C65.748894,132.953278 63.341667,134.218430 60.926727,134.914322 
	C61.049221,135.469971 61.171715,136.025635 61.294209,136.581284 
	C108.362755,136.581284 155.431305,136.581284 203.499878,136.581543 
M68.950912,190.602737 
	C74.767014,174.917435 80.583122,159.232117 86.593742,143.022217 
	C82.870369,143.022217 80.200661,143.196625 77.563591,142.977844 
	C74.304642,142.707458 72.636391,143.462250 71.734833,147.147705 
	C70.004860,154.219620 67.460693,161.097946 65.140884,168.018585 
	C62.059814,177.210266 58.870255,186.365601 55.727299,195.536545 
	C55.473022,195.478897 55.218750,195.421249 54.964474,195.363602 
	C56.592506,178.085312 58.220539,160.807037 59.872967,143.269806 
	C55.626968,143.269806 51.540833,143.269806 47.576149,143.269806 
	C41.806953,160.011063 36.118324,176.518539 30.429695,193.026001 
	C29.927765,192.904694 29.425835,192.783401 28.923904,192.662094 
	C30.556293,176.293671 32.188683,159.925247 33.849060,143.276184 
	C29.478529,143.276184 25.404421,143.276184 20.919937,143.276184 
	C19.300482,168.552200 17.691502,193.664688 16.071571,218.948135 
	C22.028669,218.948135 27.326271,218.948135 32.634399,218.948135 
	C36.538666,207.350464 40.407913,195.856827 44.277157,184.363190 
	C44.676182,184.440109 45.075207,184.517029 45.474228,184.593964 
	C44.518581,195.924927 43.562931,207.255890 42.566013,219.076187 
	C47.358253,219.076187 51.995647,219.269714 56.596088,218.943008 
	C57.777504,218.859100 59.412128,217.348404 59.868874,216.129745 
	C62.945061,207.922302 65.760040,199.616959 68.950912,190.602737 
M309.012360,143.026459 
	C307.925690,144.985428 306.333252,146.825027 305.837891,148.923584 
	C303.401337,159.246155 301.163391,169.618484 299.031464,180.009384 
	C296.386047,192.902893 293.913422,205.831879 291.300354,219.079224 
	C294.059265,219.079224 296.400116,218.879364 298.693268,219.124878 
	C302.366241,219.518143 303.630157,218.391373 304.265961,214.408310 
	C305.744324,205.146500 308.199615,196.040634 310.259003,186.871582 
	C310.600922,186.894547 310.942810,186.917511 311.284729,186.940491 
	C311.284729,197.584885 311.284729,208.229279 311.284729,218.880783 
	C315.934052,218.880783 319.890717,218.880783 324.021118,218.880783 
	C329.286072,193.654877 334.518677,168.583878 339.815125,143.207092 
	C335.545471,143.207092 331.926300,143.207092 328.179321,143.207092 
	C325.636505,154.718918 323.114471,166.136627 320.592438,177.554337 
	C320.251007,177.531097 319.909607,177.507874 319.568176,177.484634 
	C319.568176,166.069290 319.568176,154.653931 319.568176,143.022171 
	C315.885590,143.022171 312.894867,143.022171 309.012360,143.026459 
M87.326546,166.715195 
	C83.766060,184.028122 80.205582,201.341064 76.597137,218.887177 
	C80.916107,218.887177 84.860329,218.887177 88.786461,218.887177 
	C91.074104,208.790466 93.319489,198.880264 95.564880,188.970047 
	C96.017708,189.041672 96.470535,189.113312 96.923370,189.184952 
	C97.436134,199.063110 97.948898,208.941284 98.455093,218.692749 
	C103.212410,218.692749 107.578621,218.692749 112.231071,218.692749 
	C110.847771,209.403320 109.436707,200.546082 108.245407,191.659348 
	C107.672821,187.387955 106.405441,182.791168 112.592216,180.888687 
	C114.179329,180.400650 115.874268,178.217667 116.344032,176.493103 
	C118.461754,168.718796 120.648224,160.901917 121.821678,152.954468 
	C122.535332,148.121140 118.693428,143.669876 114.233559,143.406586 
	C106.986671,142.978729 99.696075,143.291245 92.340012,143.291245 
	C90.669067,151.011765 89.061218,158.440765 87.326546,166.715195 
M365.514221,174.877960 
	C362.877319,174.877960 360.240417,174.877960 357.440643,174.877960 
	C356.559265,178.923462 355.758209,182.600418 354.918060,186.456604 
	C356.075836,186.813507 357.080444,187.123184 357.996552,187.405579 
	C356.894806,192.850357 355.998871,198.087265 354.724701,203.230453 
	C354.096313,205.766953 353.045959,208.851578 349.469818,207.844971 
	C346.034302,206.877945 347.291016,204.172165 347.815399,201.675903 
	C350.301453,189.840897 352.611053,177.968948 355.020355,166.117645 
	C355.647675,163.031891 355.901459,159.711380 357.302185,157.003189 
	C358.102203,155.456406 360.869904,154.927338 362.751678,153.940033 
	C363.237579,155.624832 364.228607,157.349182 364.100525,158.985931 
	C363.859863,162.060532 362.972595,165.084518 362.351013,168.145340 
	C374.663696,169.498840 376.319733,168.128006 376.993591,156.187561 
	C377.096619,154.361801 377.600403,152.241135 376.884460,150.755203 
	C375.547638,147.980469 373.955627,144.064621 371.584076,143.271271 
	C361.320618,139.837875 348.319733,141.719513 344.960632,155.980118 
	C342.679535,165.664505 340.315338,175.331787 338.219604,185.056580 
	C336.685822,192.174057 335.261688,199.336899 334.295715,206.547440 
	C333.646179,211.395905 333.743561,216.772964 339.434937,218.791412 
	C348.459045,221.991837 361.266449,221.030624 365.226013,209.747940 
	C369.109772,198.681168 371.000366,186.914902 373.905121,174.877960 
	C370.429932,174.877960 368.452850,174.877960 365.514221,174.877960 
M164.572189,192.793411 
	C162.950241,192.793411 161.328278,192.793411 159.423523,192.793411 
	C158.324127,197.920792 157.118317,202.574982 156.367874,207.301468 
	C155.520050,212.641205 157.962341,216.921783 162.629471,219.151932 
	C167.782593,221.614304 178.675873,220.025818 182.830475,216.163452 
	C190.273712,209.243835 190.868942,199.765152 192.060303,190.626251 
	C192.971786,183.634140 188.155304,179.497742 183.580704,175.224457 
	C177.348099,169.402405 176.386932,164.029205 180.224289,156.527802 
	C180.899002,155.208878 183.278061,154.761826 184.870010,153.912125 
	C185.451553,155.270905 186.631790,156.691849 186.498398,157.976395 
	C186.148041,161.350815 185.225616,164.665833 184.525925,168.029358 
	C196.990738,169.700974 198.205460,169.068954 199.769363,157.830475 
	C200.433258,153.059433 201.473907,147.614639 196.550659,144.037888 
	C190.924759,139.950638 176.829453,141.691696 171.870712,146.893875 
	C162.231491,157.006317 162.764328,174.800873 172.981689,183.997421 
	C179.837341,190.168121 181.169144,197.674454 176.357437,205.365341 
	C175.516876,206.708862 173.164566,207.106567 171.510468,207.941101 
	C170.863205,206.413681 169.572586,204.830948 169.698181,203.369965 
	C169.989532,199.980759 170.965057,196.650375 171.767883,192.793411 
	C169.418503,192.793411 167.448502,192.793411 164.572189,192.793411 
M118.453629,213.700638 
	C118.109039,215.389557 117.764450,217.078476 117.391525,218.906281 
	C127.458199,218.906281 137.074509,218.906281 146.827332,218.906281 
	C147.680908,214.848419 148.504715,210.932022 149.468430,206.350586 
	C143.318649,206.350586 138.102112,206.350586 132.573730,206.350586 
	C133.803299,200.438309 134.737427,195.033218 136.169128,189.763290 
	C136.490250,188.581223 138.486908,187.203644 139.825256,187.072815 
	C143.572662,186.706512 147.379196,186.945236 151.329056,186.945236 
	C152.275177,182.817184 153.120407,179.129318 154.107422,174.822845 
	C149.172440,174.822845 144.500748,174.822845 139.405273,174.822845 
	C140.885742,167.895538 142.226990,161.619644 143.628448,155.062012 
	C149.508942,155.062012 155.118942,155.062012 160.738159,155.062012 
	C161.544708,151.014603 162.283386,147.307800 163.086441,143.277924 
	C152.913849,143.277924 143.158112,143.277924 133.074249,143.277924 
	C128.205673,166.541275 123.358208,189.703766 118.453629,213.700638 
M214.205994,155.071182 
	C218.151932,154.708328 216.885590,157.075363 216.423782,159.169083 
	C212.049896,178.998840 207.711792,198.836487 203.338531,218.785233 
	C207.913101,218.785233 212.163498,218.785233 216.477081,218.785233 
	C220.059021,201.018158 223.626297,183.526794 227.100250,166.016907 
	C229.201294,155.426819 229.136383,155.417068 238.793015,154.984253 
	C239.100342,154.970474 239.398178,154.745270 239.739731,154.602173 
	C240.516495,150.909576 241.297043,147.198990 242.129303,143.242584 
	C231.219574,143.242584 220.489914,143.242584 209.454971,143.242584 
	C208.633118,147.150620 207.838806,150.927612 206.967438,155.071014 
	C209.345169,155.071014 211.323608,155.071014 214.205994,155.071182 
M263.333405,217.058563 
	C264.050110,213.722549 264.766815,210.386536 265.609924,206.462128 
	C259.642975,206.462128 254.399002,206.462128 248.853500,206.462128 
	C253.273514,185.094193 257.586121,164.245514 261.913086,143.327423 
	C257.414642,143.327423 253.484451,143.327423 249.177521,143.327423 
	C243.924438,168.583801 238.716431,193.623413 233.423355,219.072083 
	C243.283768,219.072083 252.264694,219.095093 261.244873,219.022278 
	C261.868347,219.017227 262.486053,218.299942 263.333405,217.058563 
M285.083923,205.828690 
	C289.641632,185.041534 294.199341,164.254379 298.828552,143.141144 
	C293.972717,143.141144 290.161865,143.141144 285.802032,143.141144 
	C280.563751,168.308350 275.319885,193.502121 270.067963,218.734802 
	C274.498383,218.734802 278.575378,218.734802 282.660522,218.734802 
	C283.487976,214.496140 284.251221,210.586563 285.083923,205.828690 
z"/>
<path fill="#166EC6" opacity="1.000000" stroke="none" 
	d="
M174.000198,224.539902 
	C227.380264,224.540146 280.260315,224.540146 333.140381,224.540146 
	C333.260040,225.124329 333.379700,225.708496 333.499359,226.292679 
	C330.866608,227.055038 328.243591,228.434906 325.599518,228.476517 
	C311.616913,228.696533 297.629028,228.579742 282.874634,228.579742 
	C282.874634,230.575150 282.874634,232.330688 282.874634,234.086212 
	C282.874603,247.246017 282.842255,260.405975 282.901489,273.565491 
	C282.913483,276.236053 282.607666,278.007812 279.521942,279.254120 
	C261.397827,286.574188 243.405228,294.220001 225.372635,301.766357 
	C217.130478,305.215576 208.957581,308.843323 200.618881,312.039490 
	C198.594986,312.815216 195.742157,312.930084 193.773926,312.122284 
	C167.432632,301.310608 141.213394,290.201263 114.861092,279.416931 
	C111.914955,278.211273 111.220039,276.768280 111.240959,273.948944 
	C111.338638,260.789886 111.284233,247.629684 111.284203,234.469894 
	C111.284195,232.687134 111.284203,230.904373 111.284203,228.579773 
	C97.775711,228.579773 84.828964,228.754089 71.892723,228.462677 
	C68.468018,228.385529 65.072716,226.885376 61.676064,225.992447 
	C61.485683,225.942383 61.406387,225.469772 60.964825,224.539658 
	C98.688393,224.539658 136.094284,224.539658 174.000198,224.539902 
M163.614120,287.616913 
	C164.258514,287.742615 164.902786,287.977478 165.547333,287.978149 
	C185.814651,287.999451 206.082016,288.015411 226.349182,287.956573 
	C227.569687,287.953033 228.788376,287.325256 229.413254,286.400085 
	C228.769958,286.270203 228.126770,286.027435 227.483337,286.026733 
	C207.216309,286.004639 186.949219,285.988434 166.682343,286.047791 
	C165.464569,286.051361 164.248627,286.687164 163.614120,287.616913 
M115.017853,231.934982 
	C115.017761,243.095734 115.485161,254.283066 114.852692,265.407867 
	C114.433334,272.784027 116.237999,276.362213 123.839569,279.234833 
	C147.400314,288.138275 170.441284,298.413239 193.748962,307.997925 
	C195.550629,308.738831 198.137604,308.937195 199.889175,308.227203 
	C225.079361,298.016449 250.208771,287.654022 275.268463,277.127258 
	C276.794403,276.486267 278.579010,274.180786 278.609558,272.617828 
	C278.873322,259.130249 278.796661,245.635101 278.706543,232.142960 
	C278.697754,230.829544 277.915192,229.521271 277.491821,228.210617 
	C276.970367,228.278961 276.448944,228.347321 275.927521,228.415680 
	C275.741272,230.111496 275.400269,231.806702 275.393646,233.503220 
	C275.346832,245.496567 275.282471,257.491272 275.430176,269.482971 
	C275.466248,272.412994 274.643555,273.941376 271.742767,274.935791 
	C266.115875,276.864685 260.621307,279.193359 255.120224,281.472961 
	C236.737976,289.090302 218.398743,296.812378 199.970596,304.316437 
	C198.339966,304.980438 195.957397,304.907745 194.303879,304.238678 
	C170.486252,294.600647 146.775787,284.696625 122.919937,275.155609 
	C119.381660,273.740479 118.677361,271.872223 118.720490,268.510132 
	C118.876457,256.352020 118.829956,244.190186 118.705154,232.031357 
	C118.692741,230.821884 117.625420,229.623215 117.047707,228.419540 
	C116.371864,229.297470 115.696022,230.175385 115.017853,231.934982 
M193.618454,239.556580 
	C193.618454,236.457870 193.618454,233.359146 193.618454,230.324249 
	C190.858948,230.324249 188.793427,230.324249 186.138123,230.324249 
	C186.138123,235.584854 186.138123,240.509567 186.138123,245.434280 
	C185.855118,245.440811 185.572098,245.447327 185.289093,245.453842 
	C184.038574,240.379486 182.788071,235.305115 181.527740,230.190918 
	C179.097626,230.190918 176.989670,230.190918 174.851135,230.190918 
	C174.851135,244.431503 174.851135,258.448029 174.851135,272.400330 
	C177.238266,272.400330 179.132950,272.400330 181.594849,272.400330 
	C181.594849,267.519623 181.594849,263.001129 181.594849,258.482635 
	C183.204239,261.256561 183.875687,264.099854 184.462982,266.960419 
	C185.771179,273.332397 186.607803,273.822815 193.618088,271.817078 
	C193.618088,261.474487 193.618088,251.006714 193.618454,239.556580 
M246.742981,247.501007 
	C246.742981,255.759659 246.742981,264.018311 246.742981,272.330627 
	C249.629974,272.330627 251.832214,272.330627 254.439606,272.330627 
	C254.439606,267.112000 254.439606,262.277374 254.439606,257.442749 
	C256.418945,260.545898 257.354095,263.814789 258.015472,267.138153 
	C259.217529,273.178375 259.544922,273.441315 266.270630,271.972717 
	C264.707428,267.097443 262.987976,262.295227 261.694427,257.380951 
	C261.270569,255.770752 261.324371,253.384857 262.245178,252.190643 
	C265.185120,248.377747 266.526367,237.105499 263.620148,233.451736 
	C262.388458,231.903198 260.256775,230.442856 258.363251,230.181778 
	C254.661179,229.671387 250.839005,230.031982 246.742798,230.031982 
	C246.742798,235.902390 246.742798,241.201920 246.742981,247.501007 
M126.085678,259.396576 
	C126.087059,260.727051 126.053886,262.058655 126.095589,263.387848 
	C126.315804,270.406921 129.087891,273.366211 135.589767,273.554199 
	C141.973007,273.738800 145.023666,270.753479 145.463150,263.791504 
	C145.575500,262.011749 145.480011,260.218842 145.480011,258.403870 
	C142.663055,258.403870 140.452194,258.403870 138.006409,258.403870 
	C138.006409,260.250885 138.265244,261.798523 137.921417,263.198090 
	C137.663940,264.246155 136.630203,265.103546 135.942093,266.045837 
	C135.170425,265.176086 133.748383,264.320801 133.728699,263.434357 
	C133.551422,255.455734 133.548309,247.470154 133.712677,239.491119 
	C133.732101,238.548203 135.065659,237.632355 135.790039,236.703949 
	C136.530151,237.747925 137.567154,238.698578 137.932373,239.860397 
	C138.352753,241.197784 138.179291,242.721832 138.264130,244.171402 
	C140.798386,244.171402 143.001801,244.171402 145.486938,244.171402 
	C145.486938,242.269073 145.550064,240.783234 145.476196,239.304260 
	C145.124496,232.262222 142.213364,229.186859 135.935440,229.164978 
	C129.342560,229.141998 126.219704,232.335983 126.108604,239.465881 
	C126.010147,245.784119 126.086517,252.105103 126.085678,259.396576 
M223.399124,236.642822 
	C223.399124,248.554642 223.399124,260.466461 223.399124,272.409363 
	C229.582504,272.409363 234.980942,272.409363 240.381287,272.409363 
	C240.381287,269.983551 240.381287,267.929688 240.381287,265.682495 
	C237.127243,265.487030 234.230713,265.313080 231.245544,265.133789 
	C231.245544,261.646942 231.245544,258.554871 231.245544,255.226151 
	C234.031143,255.073990 236.610535,254.933090 239.414124,254.779953 
	C239.414124,252.453629 239.414124,250.388718 239.414124,248.097824 
	C236.570633,247.925583 233.992645,247.769424 231.389801,247.611771 
	C231.389801,243.910614 231.389801,240.539734 231.389801,237.191818 
	C234.677399,237.041641 237.595505,236.908340 240.500351,236.775635 
	C240.500351,234.339035 240.500351,232.410599 240.500351,230.233368 
	C234.830017,230.233368 229.412231,230.233368 223.399506,230.233368 
	C223.399506,232.121140 223.399506,233.905167 223.399124,236.642822 
M151.001465,241.518494 
	C151.001465,251.774094 151.001465,262.029694 151.001465,272.436462 
	C156.983871,272.436462 162.388321,272.436462 167.939850,272.436462 
	C167.939850,270.087769 167.939850,268.031555 167.939850,265.794128 
	C164.840607,265.642761 162.073257,265.507599 159.158112,265.365234 
	C159.158112,261.810089 159.158112,258.581299 159.158112,255.205490 
	C161.847748,255.044586 164.262650,254.900116 166.714905,254.753418 
	C166.714905,252.353363 166.714905,250.283752 166.714905,248.053986 
	C164.032852,247.906616 161.620331,247.774063 159.102402,247.635712 
	C159.102402,243.976334 159.102402,240.722931 159.102402,236.928192 
	C162.219986,236.928192 165.117340,236.928192 168.100464,236.928192 
	C168.100464,234.434906 168.100464,232.487091 168.100464,230.311768 
	C162.374939,230.311768 156.836121,230.311768 151.001465,230.311768 
	C151.001465,233.918503 151.001465,237.221924 151.001465,241.518494 
M212.053894,260.483978 
	C212.053894,252.717819 212.053894,244.951660 212.053894,237.273239 
	C214.495224,237.018021 216.263199,236.833191 218.058319,236.645523 
	C218.058319,234.396271 218.058319,232.452560 218.058319,230.365540 
	C211.636108,230.365540 205.422928,230.365540 199.296570,230.365540 
	C199.296570,232.673721 199.296570,234.621628 199.296570,236.683685 
	C201.235748,236.924179 202.957825,237.137756 205.136902,237.408005 
	C205.136902,249.281906 205.136902,260.848175 205.136902,272.328979 
	C207.723404,272.328979 209.775223,272.328979 212.053894,272.328979 
	C212.053894,268.454773 212.053894,264.964874 212.053894,260.483978 
M189.500000,279.006592 
	C209.966995,279.006592 230.433990,279.006592 250.900986,279.006592 
	C250.898499,278.774994 250.896011,278.543365 250.893524,278.311768 
	C214.977280,278.311768 179.061020,278.311768 143.144775,278.311768 
	C143.144226,278.543365 143.143692,278.774994 143.143158,279.006592 
	C158.262100,279.006592 173.381058,279.006592 189.500000,279.006592 
M190.500565,288.996338 
	C184.210312,288.996338 177.920074,288.996338 171.629822,288.996338 
	C171.653641,289.434875 171.677444,289.873444 171.701248,290.311981 
	C188.574753,290.311981 205.448257,290.311981 222.321762,290.311981 
	C222.321350,289.873444 222.320938,289.434875 222.320511,288.996338 
	C212.047089,288.996338 201.773666,288.996338 190.500565,288.996338 
M151.404495,281.995758 
	C182.233139,281.995758 213.061798,281.995758 245.323273,281.995758 
	C243.595810,281.280304 243.299789,281.050537 243.003555,281.050262 
	C212.708145,281.022736 182.412704,281.008026 152.117310,281.040833 
	C151.626160,281.041382 151.135651,281.634949 151.404495,281.995758 
M164.658081,283.997559 
	C162.479721,283.997559 160.301346,283.997559 158.122986,283.997559 
	C158.132706,284.228607 158.142426,284.459656 158.152130,284.690704 
	C184.375687,284.690704 210.599243,284.690704 236.822800,284.690704 
	C236.822876,284.459656 236.822952,284.228607 236.823029,283.997559 
	C213.087082,283.997559 189.351135,283.997559 164.658081,283.997559 
M184.672302,292.003662 
	C182.663513,292.003662 180.654724,292.003662 178.645935,292.003662 
	C178.669571,292.460541 178.693207,292.917389 178.716858,293.374268 
	C190.910049,293.374268 203.103241,293.374268 215.296448,293.374268 
	C215.300369,292.917389 215.304291,292.460541 215.308212,292.003662 
	C205.416275,292.003662 195.524323,292.003662 184.672302,292.003662 
M191.669479,294.992676 
	C189.661621,294.992676 187.653748,294.992676 185.645889,294.992676 
	C185.670975,295.452423 185.696075,295.912201 185.721161,296.371948 
	C192.920670,296.371948 200.120163,296.371948 207.319656,296.371948 
	C207.326263,295.912201 207.332870,295.452423 207.339478,294.992676 
	C202.435425,294.992676 197.531357,294.992676 191.669479,294.992676 
z"/>
<path fill="#BA1D3A" opacity="1.000000" stroke="none" 
	d="
M202.999863,136.581421 
	C155.431305,136.581284 108.362755,136.581284 61.294209,136.581284 
	C61.171715,136.025635 61.049221,135.469971 60.926727,134.914322 
	C63.341667,134.218430 65.748894,132.953278 68.172821,132.920425 
	C82.298988,132.728973 96.429085,132.826630 111.273552,132.826630 
	C111.273552,128.889297 111.273521,125.295609 111.273552,121.701912 
	C111.273643,110.375397 111.362007,99.047752 111.218040,87.723068 
	C111.176888,84.486198 112.060989,82.846130 115.341370,81.504799 
	C140.624161,71.166740 165.747101,60.437485 191.038437,50.120876 
	C193.991776,48.916172 198.151474,48.291035 200.934677,49.417088 
	C227.035492,59.977177 252.926788,71.053978 278.974091,81.748947 
	C282.043793,83.009361 282.951233,84.573227 282.931671,87.619392 
	C282.836517,102.435593 282.888672,117.252739 282.888672,132.826523 
	C284.700256,132.826523 286.281036,132.826508 287.861847,132.826508 
	C300.687469,132.826569 313.514832,132.717209 326.337128,132.923447 
	C328.761780,132.962463 331.166229,134.255600 333.580017,134.970047 
	C333.453461,135.507217 333.326874,136.044373 333.200317,136.581543 
	C289.966827,136.581543 246.733353,136.581543 202.999863,136.581421 
M202.149200,77.703186 
	C203.002594,76.278496 203.856003,74.853806 205.220490,74.191788 
	C213.292953,75.891945 221.292648,74.690109 229.329330,74.962914 
	C229.322174,74.317123 229.315033,73.671341 229.307892,73.025551 
	C221.263901,73.025551 213.219925,73.025551 205.419174,72.390236 
	C206.164749,71.847534 206.910309,71.304840 207.655884,70.762138 
	C201.710831,71.305519 198.162369,69.122421 197.030045,62.700481 
	C196.024551,65.045822 195.019058,67.391167 193.844986,70.129723 
	C191.078964,70.129723 188.130661,70.129723 184.233337,70.070892 
	C180.022217,70.070892 175.811081,70.070892 171.599960,70.070892 
	C171.657486,70.857246 171.714996,71.643593 171.772522,72.429947 
	C176.206207,71.888458 180.639877,71.346970 185.732010,70.936539 
	C186.607346,71.574570 187.482681,72.212601 187.374619,72.933540 
	C179.803894,72.933540 172.233170,72.933540 164.662460,72.933540 
	C164.667892,73.467674 164.673340,74.001808 164.678772,74.535942 
	C172.567413,74.535942 180.456146,74.546135 188.344238,74.480385 
	C188.553253,74.478638 188.755402,73.651680 189.596436,73.308105 
	C190.192566,74.090965 190.788712,74.873825 190.404190,75.863052 
	C179.163727,75.863052 167.923264,75.863052 156.682800,75.863052 
	C156.687378,76.551704 156.691956,77.240356 156.696533,77.929008 
	C168.224518,77.929008 179.752502,77.929008 191.364212,78.652420 
	C190.920975,79.457397 190.477737,80.262375 189.845673,80.263298 
	C188.695343,79.842392 187.547806,79.064835 186.394241,79.055771 
	C174.945114,78.965752 163.494949,78.990143 152.045242,79.030434 
	C151.218903,79.033340 150.393890,79.414062 149.568268,79.619118 
	C149.606552,80.089760 149.644852,80.560402 149.683136,81.031044 
	C163.142715,81.031044 176.602295,81.031044 190.292282,81.728676 
	C192.777725,80.989761 195.263184,80.250839 197.996231,79.438309 
	C199.305588,80.407913 200.947006,81.623421 203.089859,83.210243 
	C202.935410,81.079041 202.830933,79.637474 203.715714,78.070908 
	C214.920212,78.070908 226.124725,78.070908 237.329224,78.070908 
	C237.320419,77.395241 237.311615,76.719574 237.302811,76.043907 
	C226.562119,76.043907 215.820816,75.997681 205.081924,76.137047 
	C204.276154,76.147507 203.487595,77.483330 202.149200,77.703186 
M118.716797,92.744049 
	C119.528053,90.843666 119.852448,87.794304 121.222893,87.213600 
	C145.501404,76.925995 169.891541,66.900276 194.320679,56.973289 
	C195.951614,56.310539 198.300705,56.337193 199.952255,56.978855 
	C210.301834,60.999905 220.566833,65.241653 230.824005,69.496727 
	C244.142593,75.021774 257.314117,80.928360 270.795441,86.017799 
	C274.924713,87.576668 275.925842,89.430885 275.846497,93.428268 
	C275.618469,104.914444 275.741760,116.408180 275.794434,127.898636 
	C275.801697,129.486694 276.190308,131.073013 276.402405,132.660141 
	C276.946136,132.643173 277.489868,132.626205 278.033600,132.609238 
	C278.262787,130.944855 278.682922,129.281342 278.690674,127.615913 
	C278.747406,115.459358 278.554108,103.298790 278.817047,91.147659 
	C278.902527,87.197647 277.670319,85.350151 273.952209,83.834785 
	C249.385345,73.822243 224.960480,63.461418 200.400650,53.431248 
	C198.396454,52.612747 195.450684,52.729755 193.415695,53.565060 
	C168.415405,63.827007 143.522354,74.349991 118.539886,84.655930 
	C115.987503,85.708855 114.948792,86.892807 115.010742,89.703171 
	C115.190514,97.859261 115.073921,106.021889 115.074188,114.181946 
	C115.074356,119.344429 114.985184,124.509880 115.154160,129.666855 
	C115.187088,130.672012 116.224930,131.644241 116.799263,132.631668 
	C117.435547,131.642899 118.272987,130.723557 118.645638,129.643784 
	C118.954086,128.750046 118.716553,127.666985 118.716591,126.667809 
	C118.716972,115.676712 118.716515,104.685608 118.716797,92.744049 
M188.931808,94.541878 
	C188.931808,98.542961 188.931808,102.544044 188.931808,106.545120 
	C188.745804,106.547737 188.559799,106.550354 188.373795,106.552963 
	C186.931595,100.657997 185.489395,94.763031 184.077225,88.990852 
	C181.655884,88.990852 179.621170,88.990852 177.647522,88.990852 
	C177.647522,103.304771 177.647522,117.183456 177.647522,131.098434 
	C179.936218,131.098434 181.824066,131.098434 184.038086,131.098434 
	C184.038086,126.048042 184.038086,121.328041 184.038086,116.608032 
	C184.350876,116.555466 184.663666,116.502907 184.976440,116.450340 
	C186.173065,121.302505 187.369690,126.154678 188.606323,131.169067 
	C190.919571,131.169067 193.169540,131.169067 195.656357,131.169067 
	C195.656357,116.978958 195.656357,103.061897 195.656357,88.856354 
	C193.393539,88.856354 191.357376,88.856354 188.931839,88.856354 
	C188.931839,90.620415 188.931839,92.091522 188.931808,94.541878 
M168.826904,102.892464 
	C168.232712,99.290489 167.441956,95.706879 167.103256,92.081032 
	C166.804260,88.880142 165.020798,88.298882 162.360291,88.560234 
	C160.073975,88.784821 157.268219,87.602509 156.854721,91.661186 
	C156.385742,96.264412 155.280472,100.799088 154.584946,105.383774 
	C153.299789,113.855232 152.111664,122.341423 150.862823,130.961533 
	C155.651932,132.054840 159.160339,132.030060 159.108780,125.981255 
	C159.078812,122.467812 161.349304,122.533539 163.856735,123.309799 
	C166.621429,132.104767 166.621429,132.104767 172.925827,130.721283 
	C171.605499,121.744514 170.282501,112.749641 168.826904,102.892464 
M240.502853,105.023285 
	C240.075363,101.557137 239.152771,98.064621 239.335587,94.630966 
	C239.614777,89.387856 237.416611,87.745087 232.594238,88.556374 
	C231.493332,88.741577 230.371048,88.799652 228.816391,88.962585 
	C226.649551,103.002228 224.508255,116.876305 222.313431,131.097168 
	C225.277542,131.097168 227.479401,131.097168 229.795486,131.097168 
	C230.229553,128.234985 230.616608,125.682770 231.039474,122.894356 
	C233.030167,123.009171 234.604141,123.099960 236.092255,123.185791 
	C237.764160,126.950096 235.737839,134.019119 244.455307,130.627747 
	C243.216080,122.513824 241.946228,114.199417 240.502853,105.023285 
M140.393021,112.428009 
	C140.573380,110.224449 140.356903,107.894577 141.010330,105.841583 
	C142.798737,100.222565 144.953339,94.720100 147.054123,88.919762 
	C142.674240,88.249397 139.159760,87.668091 138.287659,93.370445 
	C137.757065,96.839813 136.076889,100.133377 134.913101,103.505913 
	C134.622849,103.459305 134.332581,103.412697 134.042328,103.366089 
	C134.042328,98.527321 134.042328,93.688553 134.042328,88.864059 
	C131.482452,88.864059 129.403534,88.864059 127.295410,88.864059 
	C127.295410,103.179596 127.295410,117.201553 127.295410,131.072983 
	C129.764099,131.072983 131.842072,131.072983 134.301971,131.072983 
	C134.301971,126.210579 134.301971,121.684998 134.301971,117.159409 
	C136.159821,120.247749 137.923004,123.340546 138.415939,126.624046 
	C139.276306,132.355179 142.723099,131.810165 147.077881,131.018509 
	C144.871124,124.902023 142.749786,119.022301 140.393021,112.428009 
M207.159485,117.352722 
	C204.996307,117.108452 202.833130,116.864182 199.961868,116.539955 
	C200.373611,120.638222 200.293472,123.839745 201.084579,126.809166 
	C202.380646,131.674057 206.551102,132.082611 210.715240,131.923370 
	C214.991257,131.759857 218.350815,129.840378 218.876999,125.392204 
	C219.806839,117.531441 219.202606,110.275902 211.084381,105.517700 
	C209.044678,104.322212 208.541504,100.304543 207.672562,97.479172 
	C207.496063,96.905319 208.851166,95.860435 209.500198,95.032700 
	C210.327988,95.850716 211.677155,96.561310 211.872528,97.509621 
	C212.251999,99.351570 211.983566,101.327011 211.983566,103.178986 
	C214.682953,103.178986 216.622711,103.178986 218.990417,103.178986 
	C218.990417,100.309830 219.142517,97.667107 218.955963,95.048500 
	C218.650330,90.758522 216.065689,88.432358 211.916855,88.002335 
	C207.679474,87.563141 203.348953,87.473305 201.203415,92.223190 
	C198.295166,98.661575 200.474319,106.638412 205.962021,111.118034 
	C207.996704,112.778976 210.376938,114.520920 211.396866,116.771080 
	C212.315750,118.798309 211.691360,121.580231 211.468185,124.003578 
	C211.438660,124.324280 209.758560,124.492981 208.842880,124.732071 
	C208.374176,122.731453 207.903580,120.731270 207.440338,118.729385 
	C207.403305,118.569397 207.417068,118.397644 207.159485,117.352722 
M250.677322,90.094208 
	C245.739594,97.947624 246.910446,105.690331 254.289764,111.117172 
	C258.355072,114.106857 260.279022,117.723541 259.435211,122.638191 
	C259.294006,123.460533 258.059570,124.095177 257.330292,124.816544 
	C256.800720,124.094109 255.940735,123.426918 255.808823,122.637993 
	C255.514526,120.877983 255.583694,119.057190 255.492599,116.984123 
	C252.968964,116.984123 250.739838,116.984123 247.754791,116.984123 
	C248.157318,120.316811 248.151642,123.479111 248.982803,126.403572 
	C250.247513,130.853607 254.029984,132.648499 259.332184,131.823090 
	C263.891846,131.113266 266.165070,128.562332 266.513458,123.777771 
	C267.055206,116.336845 265.840576,110.097084 258.913544,105.625481 
	C257.055389,104.425964 256.476013,100.915344 255.840240,98.334938 
	C255.623474,97.455093 257.033264,96.174492 257.699860,95.076996 
	C258.315826,96.092880 259.218719,97.040939 259.478729,98.140953 
	C259.844513,99.688148 259.733276,101.348099 259.835815,103.129730 
	C262.099426,103.129730 264.000275,103.129730 266.441010,103.129730 
	C266.441010,100.733742 266.470947,98.614334 266.435242,96.496033 
	C266.338715,90.772980 263.567078,87.807465 257.879944,87.897392 
	C255.641586,87.932777 253.418167,88.911415 250.677322,90.094208 
M231.499817,82.000305 
	C222.885284,82.000305 214.270752,82.000305 205.656219,82.000305 
	C205.674408,82.442474 205.692612,82.884644 205.710800,83.326813 
	C221.175903,83.326813 236.641022,83.326813 252.106125,83.326813 
	C252.109970,82.884644 252.113815,82.442474 252.117661,82.000305 
	C245.578323,82.000305 239.038971,82.000305 231.499817,82.000305 
M164.500031,82.000305 
	C157.217850,82.000305 149.935669,82.000305 142.653488,82.000305 
	C148.173798,84.948784 185.125671,84.311066 188.146713,82.000305 
	C180.395020,82.000305 172.947510,82.000305 164.500031,82.000305 
M223.500412,78.999084 
	C217.214874,78.999084 210.929337,78.999084 204.643784,78.999084 
	C204.668289,79.436790 204.692795,79.874489 204.717300,80.312195 
	C217.916443,80.312195 231.115585,80.312195 244.314743,80.312195 
	C244.313736,79.874489 244.312729,79.436790 244.311722,78.999084 
	C237.707825,78.999084 231.103912,78.999084 223.500412,78.999084 
M222.326706,71.439995 
	C218.149597,68.762009 214.019165,70.016205 209.887405,71.868011 
	C213.808533,71.868011 217.729645,71.868011 222.326706,71.439995 
z"/>
<path fill="#050505" opacity="1.000000" stroke="none" 
	d="
M68.805267,190.973022 
	C65.760040,199.616959 62.945061,207.922302 59.868874,216.129745 
	C59.412128,217.348404 57.777504,218.859100 56.596088,218.943008 
	C51.995647,219.269714 47.358253,219.076187 42.566013,219.076187 
	C43.562931,207.255890 44.518581,195.924927 45.474228,184.593964 
	C45.075207,184.517029 44.676182,184.440109 44.277157,184.363190 
	C40.407913,195.856827 36.538666,207.350464 32.634399,218.948135 
	C27.326271,218.948135 22.028669,218.948135 16.071571,218.948135 
	C17.691502,193.664688 19.300482,168.552200 20.919937,143.276184 
	C25.404421,143.276184 29.478529,143.276184 33.849060,143.276184 
	C32.188683,159.925247 30.556293,176.293671 28.923904,192.662094 
	C29.425835,192.783401 29.927765,192.904694 30.429695,193.026001 
	C36.118324,176.518539 41.806953,160.011063 47.576149,143.269806 
	C51.540833,143.269806 55.626968,143.269806 59.872967,143.269806 
	C58.220539,160.807037 56.592506,178.085312 54.964474,195.363602 
	C55.218750,195.421249 55.473022,195.478897 55.727299,195.536545 
	C58.870255,186.365601 62.059814,177.210266 65.140884,168.018585 
	C67.460693,161.097946 70.004860,154.219620 71.734833,147.147705 
	C72.636391,143.462250 74.304642,142.707458 77.563591,142.977844 
	C80.200661,143.196625 82.870369,143.022217 86.593742,143.022217 
	C80.583122,159.232117 74.767014,174.917435 68.805267,190.973022 
z"/>
<path fill="#050505" opacity="1.000000" stroke="none" 
	d="
M309.458252,143.024323 
	C312.894867,143.022171 315.885590,143.022171 319.568176,143.022171 
	C319.568176,154.653931 319.568176,166.069290 319.568176,177.484634 
	C319.909607,177.507874 320.251007,177.531097 320.592438,177.554337 
	C323.114471,166.136627 325.636505,154.718918 328.179321,143.207092 
	C331.926300,143.207092 335.545471,143.207092 339.815125,143.207092 
	C334.518677,168.583878 329.286072,193.654877 324.021118,218.880783 
	C319.890717,218.880783 315.934052,218.880783 311.284729,218.880783 
	C311.284729,208.229279 311.284729,197.584885 311.284729,186.940491 
	C310.942810,186.917511 310.600922,186.894547 310.259003,186.871582 
	C308.199615,196.040634 305.744324,205.146500 304.265961,214.408310 
	C303.630157,218.391373 302.366241,219.518143 298.693268,219.124878 
	C296.400116,218.879364 294.059265,219.079224 291.300354,219.079224 
	C293.913422,205.831879 296.386047,192.902893 299.031464,180.009384 
	C301.163391,169.618484 303.401337,159.246155 305.837891,148.923584 
	C306.333252,146.825027 307.925690,144.985428 309.458252,143.024323 
z"/>
<path fill="#050505" opacity="1.000000" stroke="none" 
	d="
M87.389954,166.292480 
	C89.061218,158.440765 90.669067,151.011765 92.340012,143.291245 
	C99.696075,143.291245 106.986671,142.978729 114.233559,143.406586 
	C118.693428,143.669876 122.535332,148.121140 121.821678,152.954468 
	C120.648224,160.901917 118.461754,168.718796 116.344032,176.493103 
	C115.874268,178.217667 114.179329,180.400650 112.592216,180.888687 
	C106.405441,182.791168 107.672821,187.387955 108.245407,191.659348 
	C109.436707,200.546082 110.847771,209.403320 112.231071,218.692749 
	C107.578621,218.692749 103.212410,218.692749 98.455093,218.692749 
	C97.948898,208.941284 97.436134,199.063110 96.923370,189.184952 
	C96.470535,189.113312 96.017708,189.041672 95.564880,188.970047 
	C93.319489,198.880264 91.074104,208.790466 88.786461,218.887177 
	C84.860329,218.887177 80.916107,218.887177 76.597137,218.887177 
	C80.205582,201.341064 83.766060,184.028122 87.389954,166.292480 
M108.140503,157.752884 
	C107.042130,156.852921 106.049400,155.689468 104.792290,155.185410 
	C104.303787,154.989563 102.677933,156.150543 102.490974,156.917816 
	C101.069016,162.753448 99.875191,168.644669 98.610298,174.518585 
	C99.075394,174.906570 99.540489,175.294571 100.005592,175.682556 
	C101.864044,174.326645 104.727989,173.334930 105.377731,171.541183 
	C106.863297,167.439972 107.266098,162.946518 108.140503,157.752884 
z"/>
<path fill="#060606" opacity="1.000000" stroke="none" 
	d="
M365.994995,174.877960 
	C368.452850,174.877960 370.429932,174.877960 373.905121,174.877960 
	C371.000366,186.914902 369.109772,198.681168 365.226013,209.747940 
	C361.266449,221.030624 348.459045,221.991837 339.434937,218.791412 
	C333.743561,216.772964 333.646179,211.395905 334.295715,206.547440 
	C335.261688,199.336899 336.685822,192.174057 338.219604,185.056580 
	C340.315338,175.331787 342.679535,165.664505 344.960632,155.980118 
	C348.319733,141.719513 361.320618,139.837875 371.584076,143.271271 
	C373.955627,144.064621 375.547638,147.980469 376.884460,150.755203 
	C377.600403,152.241135 377.096619,154.361801 376.993591,156.187561 
	C376.319733,168.128006 374.663696,169.498840 362.351013,168.145340 
	C362.972595,165.084518 363.859863,162.060532 364.100525,158.985931 
	C364.228607,157.349182 363.237579,155.624832 362.751678,153.940033 
	C360.869904,154.927338 358.102203,155.456406 357.302185,157.003189 
	C355.901459,159.711380 355.647675,163.031891 355.020355,166.117645 
	C352.611053,177.968948 350.301453,189.840897 347.815399,201.675903 
	C347.291016,204.172165 346.034302,206.877945 349.469818,207.844971 
	C353.045959,208.851578 354.096313,205.766953 354.724701,203.230453 
	C355.998871,198.087265 356.894806,192.850357 357.996552,187.405579 
	C357.080444,187.123184 356.075836,186.813507 354.918060,186.456604 
	C355.758209,182.600418 356.559265,178.923462 357.440643,174.877960 
	C360.240417,174.877960 362.877319,174.877960 365.994995,174.877960 
z"/>
<path fill="#060606" opacity="1.000000" stroke="none" 
	d="
M165.025360,192.793411 
	C167.448502,192.793411 169.418503,192.793411 171.767883,192.793411 
	C170.965057,196.650375 169.989532,199.980759 169.698181,203.369965 
	C169.572586,204.830948 170.863205,206.413681 171.510468,207.941101 
	C173.164566,207.106567 175.516876,206.708862 176.357437,205.365341 
	C181.169144,197.674454 179.837341,190.168121 172.981689,183.997421 
	C162.764328,174.800873 162.231491,157.006317 171.870712,146.893875 
	C176.829453,141.691696 190.924759,139.950638 196.550659,144.037888 
	C201.473907,147.614639 200.433258,153.059433 199.769363,157.830475 
	C198.205460,169.068954 196.990738,169.700974 184.525925,168.029358 
	C185.225616,164.665833 186.148041,161.350815 186.498398,157.976395 
	C186.631790,156.691849 185.451553,155.270905 184.870010,153.912140 
	C183.278061,154.761826 180.899002,155.208878 180.224289,156.527802 
	C176.386932,164.029205 177.348099,169.402405 183.580704,175.224457 
	C188.155304,179.497742 192.971786,183.634140 192.060303,190.626251 
	C190.868942,199.765152 190.273712,209.243835 182.830475,216.163452 
	C178.675873,220.025818 167.782593,221.614304 162.629471,219.151932 
	C157.962341,216.921783 155.520050,212.641205 156.367874,207.301468 
	C157.118317,202.574982 158.324127,197.920792 159.423523,192.793411 
	C161.328278,192.793411 162.950241,192.793411 165.025360,192.793411 
z"/>
<path fill="#040404" opacity="1.000000" stroke="none" 
	d="
M118.482178,213.283447 
	C123.358208,189.703766 128.205673,166.541275 133.074249,143.277924 
	C143.158112,143.277924 152.913849,143.277924 163.086441,143.277924 
	C162.283386,147.307800 161.544708,151.014603 160.738159,155.062012 
	C155.118942,155.062012 149.508942,155.062012 143.628448,155.062012 
	C142.226990,161.619644 140.885742,167.895538 139.405273,174.822845 
	C144.500748,174.822845 149.172440,174.822845 154.107422,174.822845 
	C153.120407,179.129318 152.275177,182.817184 151.329056,186.945236 
	C147.379196,186.945236 143.572662,186.706512 139.825256,187.072815 
	C138.486908,187.203644 136.490250,188.581223 136.169128,189.763290 
	C134.737427,195.033218 133.803299,200.438309 132.573730,206.350586 
	C138.102112,206.350586 143.318649,206.350586 149.468430,206.350586 
	C148.504715,210.932022 147.680908,214.848419 146.827332,218.906281 
	C137.074509,218.906281 127.458199,218.906281 117.391525,218.906281 
	C117.764450,217.078476 118.109039,215.389557 118.482178,213.283447 
z"/>
<path fill="#050505" opacity="1.000000" stroke="none" 
	d="
M213.754013,155.071106 
	C211.323608,155.071014 209.345169,155.071014 206.967438,155.071014 
	C207.838806,150.927612 208.633118,147.150620 209.454971,143.242584 
	C220.489914,143.242584 231.219574,143.242584 242.129303,143.242584 
	C241.297043,147.198990 240.516495,150.909576 239.739731,154.602173 
	C239.398178,154.745270 239.100342,154.970474 238.793015,154.984253 
	C229.136383,155.417068 229.201294,155.426819 227.100250,166.016907 
	C223.626297,183.526794 220.059021,201.018158 216.477081,218.785233 
	C212.163498,218.785233 207.913101,218.785233 203.338531,218.785233 
	C207.711792,198.836487 212.049896,178.998840 216.423782,159.169083 
	C216.885590,157.075363 218.151932,154.708328 213.754013,155.071106 
z"/>
<path fill="#050505" opacity="1.000000" stroke="none" 
	d="
M263.219910,217.486221 
	C262.486053,218.299942 261.868347,219.017227 261.244873,219.022278 
	C252.264694,219.095093 243.283768,219.072083 233.423355,219.072083 
	C238.716431,193.623413 243.924438,168.583801 249.177521,143.327423 
	C253.484451,143.327423 257.414642,143.327423 261.913086,143.327423 
	C257.586121,164.245514 253.273514,185.094193 248.853500,206.462128 
	C254.399002,206.462128 259.642975,206.462128 265.609924,206.462128 
	C264.766815,210.386536 264.050110,213.722549 263.219910,217.486221 
z"/>
<path fill="#060606" opacity="1.000000" stroke="none" 
	d="
M285.049194,206.252838 
	C284.251221,210.586563 283.487976,214.496140 282.660522,218.734802 
	C278.575378,218.734802 274.498383,218.734802 270.067963,218.734802 
	C275.319885,193.502121 280.563751,168.308350 285.802032,143.141144 
	C290.161865,143.141144 293.972717,143.141144 298.828552,143.141144 
	C294.199341,164.254379 289.641632,185.041534 285.049194,206.252838 
z"/>
<path fill="#070D13" opacity="1.000000" stroke="none" 
	d="
M115.019012,231.494141 
	C115.696022,230.175385 116.371864,229.297470 117.047707,228.419540 
	C117.625420,229.623215 118.692741,230.821884 118.705154,232.031357 
	C118.829956,244.190186 118.876457,256.352020 118.720490,268.510132 
	C118.677361,271.872223 119.381660,273.740479 122.919937,275.155609 
	C146.775787,284.696625 170.486252,294.600647 194.303879,304.238678 
	C195.957397,304.907745 198.339966,304.980438 199.970596,304.316437 
	C218.398743,296.812378 236.737976,289.090302 255.120224,281.472961 
	C260.621307,279.193359 266.115875,276.864685 271.742767,274.935791 
	C274.643555,273.941376 275.466248,272.412994 275.430176,269.482971 
	C275.282471,257.491272 275.346832,245.496567 275.393646,233.503220 
	C275.400269,231.806702 275.741272,230.111496 275.927521,228.415680 
	C276.448944,228.347321 276.970367,228.278961 277.491821,228.210617 
	C277.915192,229.521271 278.697754,230.829544 278.706543,232.142960 
	C278.796661,245.635101 278.873322,259.130249 278.609558,272.617828 
	C278.579010,274.180786 276.794403,276.486267 275.268463,277.127258 
	C250.208771,287.654022 225.079361,298.016449 199.889175,308.227203 
	C198.137604,308.937195 195.550629,308.738831 193.748962,307.997925 
	C170.441284,298.413239 147.400314,288.138275 123.839569,279.234833 
	C116.237999,276.362213 114.433334,272.784027 114.852692,265.407867 
	C115.485161,254.283066 115.017761,243.095734 115.019012,231.494141 
z"/>
<path fill="#EBF3FA" opacity="1.000000" stroke="none" 
	d="
M193.618271,240.047760 
	C193.618088,251.006714 193.618088,261.474487 193.618088,271.817078 
	C186.607803,273.822815 185.771179,273.332397 184.462982,266.960419 
	C183.875687,264.099854 183.204239,261.256561 181.594849,258.482635 
	C181.594849,263.001129 181.594849,267.519623 181.594849,272.400330 
	C179.132950,272.400330 177.238266,272.400330 174.851135,272.400330 
	C174.851135,258.448029 174.851135,244.431503 174.851135,230.190918 
	C176.989670,230.190918 179.097626,230.190918 181.527740,230.190918 
	C182.788071,235.305115 184.038574,240.379486 185.289093,245.453842 
	C185.572098,245.447327 185.855118,245.440811 186.138123,245.434280 
	C186.138123,240.509567 186.138123,235.584854 186.138123,230.324249 
	C188.793427,230.324249 190.858948,230.324249 193.618454,230.324249 
	C193.618454,233.359146 193.618454,236.457870 193.618271,240.047760 
z"/>
<path fill="#FBFCFE" opacity="1.000000" stroke="none" 
	d="
M246.742889,247.001221 
	C246.742798,241.201920 246.742798,235.902390 246.742798,230.031982 
	C250.839005,230.031982 254.661179,229.671387 258.363251,230.181778 
	C260.256775,230.442856 262.388458,231.903198 263.620148,233.451736 
	C266.526367,237.105499 265.185120,248.377747 262.245178,252.190643 
	C261.324371,253.384857 261.270569,255.770752 261.694427,257.380951 
	C262.987976,262.295227 264.707428,267.097443 266.270630,271.972717 
	C259.544922,273.441315 259.217529,273.178375 258.015472,267.138153 
	C257.354095,263.814789 256.418945,260.545898 254.439606,257.442749 
	C254.439606,262.277374 254.439606,267.112000 254.439606,272.330627 
	C251.832214,272.330627 249.629974,272.330627 246.742981,272.330627 
	C246.742981,264.018311 246.742981,255.759659 246.742889,247.001221 
M258.056458,239.761917 
	C257.231689,238.851257 256.406952,237.940598 255.582199,237.029938 
	C255.156204,237.968536 254.425125,238.887375 254.362823,239.849533 
	C254.192566,242.478699 254.304214,245.126114 254.304214,248.347458 
	C259.654907,246.643188 257.488983,243.129959 258.056458,239.761917 
z"/>
<path fill="#F1F7FC" opacity="1.000000" stroke="none" 
	d="
M126.085693,258.910706 
	C126.086517,252.105103 126.010147,245.784119 126.108604,239.465881 
	C126.219704,232.335983 129.342560,229.141998 135.935440,229.164978 
	C142.213364,229.186859 145.124496,232.262222 145.476196,239.304260 
	C145.550064,240.783234 145.486938,242.269073 145.486938,244.171402 
	C143.001801,244.171402 140.798386,244.171402 138.264130,244.171402 
	C138.179291,242.721832 138.352753,241.197784 137.932373,239.860397 
	C137.567154,238.698578 136.530151,237.747925 135.790039,236.703949 
	C135.065659,237.632355 133.732101,238.548203 133.712677,239.491119 
	C133.548309,247.470154 133.551422,255.455734 133.728699,263.434357 
	C133.748383,264.320801 135.170425,265.176086 135.942093,266.045837 
	C136.630203,265.103546 137.663940,264.246155 137.921417,263.198090 
	C138.265244,261.798523 138.006409,260.250885 138.006409,258.403870 
	C140.452194,258.403870 142.663055,258.403870 145.480011,258.403870 
	C145.480011,260.218842 145.575500,262.011749 145.463150,263.791504 
	C145.023666,270.753479 141.973007,273.738800 135.589767,273.554199 
	C129.087891,273.366211 126.315804,270.406921 126.095589,263.387848 
	C126.053886,262.058655 126.087059,260.727051 126.085693,258.910706 
z"/>
<path fill="#F0F6FB" opacity="1.000000" stroke="none" 
	d="
M223.399323,236.166016 
	C223.399506,233.905167 223.399506,232.121140 223.399506,230.233368 
	C229.412231,230.233368 234.830017,230.233368 240.500351,230.233368 
	C240.500351,232.410599 240.500351,234.339035 240.500351,236.775635 
	C237.595505,236.908340 234.677399,237.041641 231.389801,237.191818 
	C231.389801,240.539734 231.389801,243.910614 231.389801,247.611771 
	C233.992645,247.769424 236.570633,247.925583 239.414124,248.097824 
	C239.414124,250.388718 239.414124,252.453629 239.414124,254.779953 
	C236.610535,254.933090 234.031143,255.073990 231.245544,255.226151 
	C231.245544,258.554871 231.245544,261.646942 231.245544,265.133789 
	C234.230713,265.313080 237.127243,265.487030 240.381287,265.682495 
	C240.381287,267.929688 240.381287,269.983551 240.381287,272.409363 
	C234.980942,272.409363 229.582504,272.409363 223.399124,272.409363 
	C223.399124,260.466461 223.399124,248.554642 223.399323,236.166016 
z"/>
<path fill="#FAFCFE" opacity="1.000000" stroke="none" 
	d="
M151.001465,241.021912 
	C151.001465,237.221924 151.001465,233.918503 151.001465,230.311768 
	C156.836121,230.311768 162.374939,230.311768 168.100464,230.311768 
	C168.100464,232.487091 168.100464,234.434906 168.100464,236.928192 
	C165.117340,236.928192 162.219986,236.928192 159.102402,236.928192 
	C159.102402,240.722931 159.102402,243.976334 159.102402,247.635712 
	C161.620331,247.774063 164.032852,247.906616 166.714905,248.053986 
	C166.714905,250.283752 166.714905,252.353363 166.714905,254.753418 
	C164.262650,254.900116 161.847748,255.044586 159.158112,255.205490 
	C159.158112,258.581299 159.158112,261.810089 159.158112,265.365234 
	C162.073257,265.507599 164.840607,265.642761 167.939850,265.794128 
	C167.939850,268.031555 167.939850,270.087769 167.939850,272.436462 
	C162.388321,272.436462 156.983871,272.436462 151.001465,272.436462 
	C151.001465,262.029694 151.001465,251.774094 151.001465,241.021912 
z"/>
<path fill="#FDFEFF" opacity="1.000000" stroke="none" 
	d="
M212.053894,260.979492 
	C212.053894,264.964874 212.053894,268.454773 212.053894,272.328979 
	C209.775223,272.328979 207.723404,272.328979 205.136902,272.328979 
	C205.136902,260.848175 205.136902,249.281906 205.136902,237.408005 
	C202.957825,237.137756 201.235748,236.924179 199.296570,236.683685 
	C199.296570,234.621628 199.296570,232.673721 199.296570,230.365540 
	C205.422928,230.365540 211.636108,230.365540 218.058319,230.365540 
	C218.058319,232.452560 218.058319,234.396271 218.058319,236.645523 
	C216.263199,236.833191 214.495224,237.018021 212.053894,237.273239 
	C212.053894,244.951660 212.053894,252.717819 212.053894,260.979492 
z"/>
<path fill="#053295" opacity="1.000000" stroke="none" 
	d="
M189.000000,279.006592 
	C173.381058,279.006592 158.262100,279.006592 143.143158,279.006592 
	C143.143692,278.774994 143.144226,278.543365 143.144775,278.311768 
	C179.061020,278.311768 214.977280,278.311768 250.893524,278.311768 
	C250.896011,278.543365 250.898499,278.774994 250.900986,279.006592 
	C230.433990,279.006592 209.966995,279.006592 189.000000,279.006592 
z"/>
<path fill="#0F50AD" opacity="1.000000" stroke="none" 
	d="
M191.000397,288.996338 
	C201.773666,288.996338 212.047089,288.996338 222.320511,288.996338 
	C222.320938,289.434875 222.321350,289.873444 222.321762,290.311981 
	C205.448257,290.311981 188.574753,290.311981 171.701248,290.311981 
	C171.677444,289.873444 171.653641,289.434875 171.629822,288.996338 
	C177.920074,288.996338 184.210312,288.996338 191.000397,288.996338 
z"/>
<path fill="#2450A6" opacity="1.000000" stroke="none" 
	d="
M151.024658,281.973755 
	C151.135651,281.634949 151.626160,281.041382 152.117310,281.040833 
	C182.412704,281.008026 212.708145,281.022736 243.003555,281.050262 
	C243.299789,281.050537 243.595810,281.280304 245.323273,281.995758 
	C213.061798,281.995758 182.233139,281.995758 151.024658,281.973755 
z"/>
<path fill="#1352AD" opacity="1.000000" stroke="none" 
	d="
M165.136627,283.997559 
	C189.351135,283.997559 213.087082,283.997559 236.823029,283.997559 
	C236.822952,284.228607 236.822876,284.459656 236.822800,284.690704 
	C210.599243,284.690704 184.375687,284.690704 158.152130,284.690704 
	C158.142426,284.459656 158.132706,284.228607 158.122986,283.997559 
	C160.301346,283.997559 162.479721,283.997559 165.136627,283.997559 
z"/>
<path fill="#2A6EC0" opacity="1.000000" stroke="none" 
	d="
M185.152344,292.003662 
	C195.524323,292.003662 205.416275,292.003662 215.308212,292.003662 
	C215.304291,292.460541 215.300369,292.917389 215.296448,293.374268 
	C203.103241,293.374268 190.910049,293.374268 178.716858,293.374268 
	C178.693207,292.917389 178.669571,292.460541 178.645935,292.003662 
	C180.654724,292.003662 182.663513,292.003662 185.152344,292.003662 
z"/>
<path fill="#2B6FC1" opacity="1.000000" stroke="none" 
	d="
M163.031830,287.028809 
	C164.248627,286.687164 165.464569,286.051361 166.682343,286.047791 
	C186.949219,285.988434 207.216309,286.004639 227.483337,286.026733 
	C228.126770,286.027435 228.769958,286.270203 229.241028,286.698303 
	C207.056488,287.007294 185.044159,287.018036 163.031830,287.028809 
z"/>
<path fill="#2450A6" opacity="1.000000" stroke="none" 
	d="
M163.322968,287.322876 
	C185.044159,287.018036 207.056488,287.007294 229.538361,286.992249 
	C228.788376,287.325256 227.569687,287.953033 226.349182,287.956573 
	C206.082016,288.015411 185.814651,287.999451 165.547333,287.978149 
	C164.902786,287.977478 164.258514,287.742615 163.322968,287.322876 
z"/>
<path fill="#0C54B2" opacity="1.000000" stroke="none" 
	d="
M192.148392,294.992676 
	C197.531357,294.992676 202.435425,294.992676 207.339478,294.992676 
	C207.332870,295.452423 207.326263,295.912201 207.319656,296.371948 
	C200.120163,296.371948 192.920670,296.371948 185.721161,296.371948 
	C185.696075,295.912201 185.670975,295.452423 185.645889,294.992676 
	C187.653748,294.992676 189.661621,294.992676 192.148392,294.992676 
z"/>
<path fill="#0B0406" opacity="1.000000" stroke="none" 
	d="
M118.716537,93.219284 
	C118.716515,104.685608 118.716972,115.676712 118.716591,126.667809 
	C118.716553,127.666985 118.954086,128.750046 118.645638,129.643784 
	C118.272987,130.723557 117.435547,131.642899 116.799263,132.631668 
	C116.224930,131.644241 115.187088,130.672012 115.154160,129.666855 
	C114.985184,124.509880 115.074356,119.344429 115.074188,114.181946 
	C115.073921,106.021889 115.190514,97.859261 115.010742,89.703171 
	C114.948792,86.892807 115.987503,85.708855 118.539886,84.655930 
	C143.522354,74.349991 168.415405,63.827007 193.415695,53.565060 
	C195.450684,52.729755 198.396454,52.612747 200.400650,53.431248 
	C224.960480,63.461418 249.385345,73.822243 273.952209,83.834785 
	C277.670319,85.350151 278.902527,87.197647 278.817047,91.147659 
	C278.554108,103.298790 278.747406,115.459358 278.690674,127.615913 
	C278.682922,129.281342 278.262787,130.944855 278.033600,132.609238 
	C277.489868,132.626205 276.946136,132.643173 276.402405,132.660141 
	C276.190308,131.073013 275.801697,129.486694 275.794434,127.898636 
	C275.741760,116.408180 275.618469,104.914444 275.846497,93.428268 
	C275.925842,89.430885 274.924713,87.576668 270.795441,86.017799 
	C257.314117,80.928360 244.142593,75.021774 230.824005,69.496727 
	C220.566833,65.241653 210.301834,60.999905 199.952255,56.978855 
	C198.300705,56.337193 195.951614,56.310539 194.320679,56.973289 
	C169.891541,66.900276 145.501404,76.925995 121.222893,87.213600 
	C119.852448,87.794304 119.528053,90.843666 118.716537,93.219284 
z"/>
<path fill="#FDF7F8" opacity="1.000000" stroke="none" 
	d="
M188.931824,94.052261 
	C188.931839,92.091522 188.931839,90.620415 188.931839,88.856354 
	C191.357376,88.856354 193.393539,88.856354 195.656357,88.856354 
	C195.656357,103.061897 195.656357,116.978958 195.656357,131.169067 
	C193.169540,131.169067 190.919571,131.169067 188.606323,131.169067 
	C187.369690,126.154678 186.173065,121.302505 184.976440,116.450340 
	C184.663666,116.502907 184.350876,116.555466 184.038086,116.608032 
	C184.038086,121.328041 184.038086,126.048042 184.038086,131.098434 
	C181.824066,131.098434 179.936218,131.098434 177.647522,131.098434 
	C177.647522,117.183456 177.647522,103.304771 177.647522,88.990852 
	C179.621170,88.990852 181.655884,88.990852 184.077225,88.990852 
	C185.489395,94.763031 186.931595,100.657997 188.373795,106.552963 
	C188.559799,106.550354 188.745804,106.547737 188.931808,106.545120 
	C188.931808,102.544044 188.931808,98.542961 188.931824,94.052261 
z"/>
<path fill="#FDFAFA" opacity="1.000000" stroke="none" 
	d="
M168.893204,103.323624 
	C170.282501,112.749641 171.605499,121.744514 172.925827,130.721283 
	C166.621429,132.104767 166.621429,132.104767 163.856735,123.309799 
	C161.349304,122.533539 159.078812,122.467812 159.108780,125.981255 
	C159.160339,132.030060 155.651932,132.054840 150.862823,130.961533 
	C152.111664,122.341423 153.299789,113.855232 154.584946,105.383774 
	C155.280472,100.799088 156.385742,96.264412 156.854721,91.661186 
	C157.268219,87.602509 160.073975,88.784821 162.360291,88.560234 
	C165.020798,88.298882 166.804260,88.880142 167.103256,92.081032 
	C167.441956,95.706879 168.232712,99.290489 168.893204,103.323624 
z"/>
<path fill="#FDFAFA" opacity="1.000000" stroke="none" 
	d="
M240.589615,105.454147 
	C241.946228,114.199417 243.216080,122.513824 244.455307,130.627747 
	C235.737839,134.019119 237.764160,126.950096 236.092255,123.185791 
	C234.604141,123.099960 233.030167,123.009171 231.039474,122.894356 
	C230.616608,125.682770 230.229553,128.234985 229.795486,131.097168 
	C227.479401,131.097168 225.277542,131.097168 222.313431,131.097168 
	C224.508255,116.876305 226.649551,103.002228 228.816391,88.962585 
	C230.371048,88.799652 231.493332,88.741577 232.594238,88.556374 
	C237.416611,87.745087 239.614777,89.387856 239.335587,94.630966 
	C239.152771,98.064621 240.075363,101.557137 240.589615,105.454147 
z"/>
<path fill="#FEFBFC" opacity="1.000000" stroke="none" 
	d="
M140.510742,112.785294 
	C142.749786,119.022301 144.871124,124.902023 147.077881,131.018509 
	C142.723099,131.810165 139.276306,132.355179 138.415939,126.624046 
	C137.923004,123.340546 136.159821,120.247749 134.301971,117.159409 
	C134.301971,121.684998 134.301971,126.210579 134.301971,131.072983 
	C131.842072,131.072983 129.764099,131.072983 127.295410,131.072983 
	C127.295410,117.201553 127.295410,103.179596 127.295410,88.864059 
	C129.403534,88.864059 131.482452,88.864059 134.042328,88.864059 
	C134.042328,93.688553 134.042328,98.527321 134.042328,103.366089 
	C134.332581,103.412697 134.622849,103.459305 134.913101,103.505913 
	C136.076889,100.133377 137.757065,96.839813 138.287659,93.370445 
	C139.159760,87.668091 142.674240,88.249397 147.054123,88.919762 
	C144.953339,94.720100 142.798737,100.222565 141.010330,105.841583 
	C140.356903,107.894577 140.573380,110.224449 140.510742,112.785294 
z"/>
<path fill="#FCF6F7" opacity="1.000000" stroke="none" 
	d="
M207.283356,117.792038 
	C207.417068,118.397644 207.403305,118.569397 207.440338,118.729385 
	C207.903580,120.731270 208.374176,122.731453 208.842880,124.732071 
	C209.758560,124.492981 211.438660,124.324280 211.468185,124.003578 
	C211.691360,121.580231 212.315750,118.798309 211.396866,116.771080 
	C210.376938,114.520920 207.996704,112.778976 205.962021,111.118034 
	C200.474319,106.638412 198.295166,98.661575 201.203415,92.223190 
	C203.348953,87.473305 207.679474,87.563141 211.916855,88.002335 
	C216.065689,88.432358 218.650330,90.758522 218.955963,95.048500 
	C219.142517,97.667107 218.990417,100.309830 218.990417,103.178986 
	C216.622711,103.178986 214.682953,103.178986 211.983566,103.178986 
	C211.983566,101.327011 212.251999,99.351570 211.872528,97.509621 
	C211.677155,96.561310 210.327988,95.850716 209.500198,95.032700 
	C208.851166,95.860435 207.496063,96.905319 207.672562,97.479172 
	C208.541504,100.304543 209.044678,104.322212 211.084381,105.517700 
	C219.202606,110.275902 219.806839,117.531441 218.876999,125.392204 
	C218.350815,129.840378 214.991257,131.759857 210.715240,131.923370 
	C206.551102,132.082611 202.380646,131.674057 201.084579,126.809166 
	C200.293472,123.839745 200.373611,120.638222 199.961868,116.539955 
	C202.833130,116.864182 204.996307,117.108452 207.283356,117.792038 
z"/>
<path fill="#FDF7F8" opacity="1.000000" stroke="none" 
	d="
M250.932632,89.777359 
	C253.418167,88.911415 255.641586,87.932777 257.879944,87.897392 
	C263.567078,87.807465 266.338715,90.772980 266.435242,96.496033 
	C266.470947,98.614334 266.441010,100.733742 266.441010,103.129730 
	C264.000275,103.129730 262.099426,103.129730 259.835815,103.129730 
	C259.733276,101.348099 259.844513,99.688148 259.478729,98.140953 
	C259.218719,97.040939 258.315826,96.092880 257.699860,95.076996 
	C257.033264,96.174492 255.623474,97.455093 255.840240,98.334938 
	C256.476013,100.915344 257.055389,104.425964 258.913544,105.625481 
	C265.840576,110.097084 267.055206,116.336845 266.513458,123.777771 
	C266.165070,128.562332 263.891846,131.113266 259.332184,131.823090 
	C254.029984,132.648499 250.247513,130.853607 248.982803,126.403572 
	C248.151642,123.479111 248.157318,120.316811 247.754791,116.984123 
	C250.739838,116.984123 252.968964,116.984123 255.492599,116.984123 
	C255.583694,119.057190 255.514526,120.877983 255.808823,122.637993 
	C255.940735,123.426918 256.800720,124.094109 257.330292,124.816544 
	C258.059570,124.095177 259.294006,123.460533 259.435211,122.638191 
	C260.279022,117.723541 258.355072,114.106857 254.289764,111.117172 
	C246.910446,105.690331 245.739594,97.947624 250.932632,89.777359 
z"/>
<path fill="#FCF5F6" opacity="1.000000" stroke="none" 
	d="
M185.182343,70.129723 
	C188.130661,70.129723 191.078964,70.129723 193.844986,70.129723 
	C195.019058,67.391167 196.024551,65.045822 197.030045,62.700481 
	C198.162369,69.122421 201.710831,71.305519 207.655884,70.762138 
	C206.910309,71.304840 206.164749,71.847534 205.140259,72.761673 
	C204.861328,73.133118 204.709396,73.429115 204.709396,73.429115 
	C203.856003,74.853806 203.002594,76.278496 202.463776,77.877625 
	C202.778336,78.052055 202.726456,78.195908 202.726456,78.195908 
	C202.830933,79.637474 202.935410,81.079041 203.089859,83.210243 
	C200.947006,81.623421 199.305588,80.407913 197.996231,79.438309 
	C195.263184,80.250839 192.777725,80.989761 190.144287,81.369202 
	C189.996277,81.009727 190.034500,81.067345 190.034515,81.067352 
	C190.477737,80.262375 190.920975,79.457397 191.302368,78.201004 
	C191.240540,77.749596 191.092636,77.639664 191.369553,77.471840 
	C191.552704,76.808357 191.458939,76.312698 191.375610,75.777634 
	C191.386063,75.738220 191.384857,75.656677 191.384857,75.656677 
	C190.788712,74.873825 190.192566,74.090965 189.161621,73.112747 
	C188.726791,72.917397 188.358017,72.850632 188.358017,72.850632 
	C187.482681,72.212601 186.607346,71.574570 185.430298,70.702194 
	C185.128601,70.467842 185.182343,70.129723 185.182343,70.129723 
z"/>
<path fill="#A4374A" opacity="1.000000" stroke="none" 
	d="
M231.999725,82.000305 
	C239.038971,82.000305 245.578323,82.000305 252.117661,82.000305 
	C252.113815,82.442474 252.109970,82.884644 252.106125,83.326813 
	C236.641022,83.326813 221.175903,83.326813 205.710800,83.326813 
	C205.692612,82.884644 205.674408,82.442474 205.656219,82.000305 
	C214.270752,82.000305 222.885284,82.000305 231.999725,82.000305 
z"/>
<path fill="#A4374A" opacity="1.000000" stroke="none" 
	d="
M165.000015,82.000305 
	C172.947510,82.000305 180.395020,82.000305 188.146713,82.000305 
	C185.125671,84.311066 148.173798,84.948784 142.653488,82.000305 
	C149.935669,82.000305 157.217850,82.000305 165.000015,82.000305 
z"/>
<path fill="#9D2035" opacity="1.000000" stroke="none" 
	d="
M224.000214,78.999084 
	C231.103912,78.999084 237.707825,78.999084 244.311722,78.999084 
	C244.312729,79.436790 244.313736,79.874489 244.314743,80.312195 
	C231.115585,80.312195 217.916443,80.312195 204.717300,80.312195 
	C204.692795,79.874489 204.668289,79.436790 204.643784,78.999084 
	C210.929337,78.999084 217.214874,78.999084 224.000214,78.999084 
z"/>
<path fill="#9D2035" opacity="1.000000" stroke="none" 
	d="
M190.029083,81.020386 
	C176.602295,81.031044 163.142715,81.031044 149.683136,81.031044 
	C149.644852,80.560402 149.606552,80.089760 149.568268,79.619118 
	C150.393890,79.414062 151.218903,79.033340 152.045242,79.030434 
	C163.494949,78.990143 174.945114,78.965752 186.394241,79.055771 
	C187.547806,79.064835 188.695343,79.842392 189.940094,80.665321 
	C190.034500,81.067345 189.996277,81.009727 190.029083,81.020386 
z"/>
<path fill="#B3344B" opacity="1.000000" stroke="none" 
	d="
M191.092636,77.639664 
	C191.092636,77.639664 191.240540,77.749596 191.260513,77.839302 
	C179.752502,77.929008 168.224518,77.929008 156.696533,77.929008 
	C156.691956,77.240356 156.687378,76.551704 156.682800,75.863052 
	C167.923264,75.863052 179.163727,75.863052 190.894531,75.759865 
	C191.384857,75.656677 191.386063,75.738220 191.268692,76.227562 
	C191.131760,77.024490 191.112198,77.332077 191.092636,77.639664 
z"/>
<path fill="#B23249" opacity="1.000000" stroke="none" 
	d="
M202.734680,78.127548 
	C203.487595,77.483330 204.276154,76.147507 205.081924,76.137047 
	C215.820816,75.997681 226.562119,76.043907 237.302811,76.043907 
	C237.311615,76.719574 237.320419,77.395241 237.329224,78.070908 
	C226.124725,78.070908 214.920212,78.070908 203.221085,78.133408 
	C202.726456,78.195908 202.778336,78.052055 202.734680,78.127548 
z"/>
<path fill="#9E1B32" opacity="1.000000" stroke="none" 
	d="
M187.866318,72.892090 
	C188.358017,72.850632 188.726791,72.917397 188.843781,73.063477 
	C188.755402,73.651680 188.553253,74.478638 188.344238,74.480385 
	C180.456146,74.546135 172.567413,74.535942 164.678772,74.535942 
	C164.673340,74.001808 164.667892,73.467674 164.662460,72.933540 
	C172.233170,72.933540 179.803894,72.933540 187.866318,72.892090 
z"/>
<path fill="#9E1B31" opacity="1.000000" stroke="none" 
	d="
M204.964935,73.810455 
	C204.709396,73.429115 204.861328,73.133118 205.018646,73.079330 
	C213.219925,73.025551 221.263901,73.025551 229.307892,73.025551 
	C229.315033,73.671341 229.322174,74.317123 229.329330,74.962914 
	C221.292648,74.690109 213.292953,75.891945 204.964935,73.810455 
z"/>
<path fill="#A43749" opacity="1.000000" stroke="none" 
	d="
M184.707840,70.100311 
	C185.182343,70.129723 185.128601,70.467842 185.101074,70.636658 
	C180.639877,71.346970 176.206207,71.888458 171.772522,72.429947 
	C171.714996,71.643593 171.657486,70.857246 171.599960,70.070892 
	C175.811081,70.070892 180.022217,70.070892 184.707840,70.100311 
z"/>
<path fill="#A43749" opacity="1.000000" stroke="none" 
	d="
M221.988739,71.654007 
	C217.729645,71.868011 213.808533,71.868011 209.887405,71.868011 
	C214.019165,70.016205 218.149597,68.762009 221.988739,71.654007 
z"/>
<path fill="#F0F0F0" opacity="1.000000" stroke="none" 
	d="
M108.124580,158.182632 
	C107.266098,162.946518 106.863297,167.439972 105.377731,171.541183 
	C104.727989,173.334930 101.864044,174.326645 100.005592,175.682556 
	C99.540489,175.294571 99.075394,174.906570 98.610298,174.518585 
	C99.875191,168.644669 101.069016,162.753448 102.490974,156.917816 
	C102.677933,156.150543 104.303787,154.989563 104.792290,155.185410 
	C106.049400,155.689468 107.042130,156.852921 108.124580,158.182632 
z"/>
<path fill="#3280CE" opacity="1.000000" stroke="none" 
	d="
M258.058411,240.207764 
	C257.488983,243.129959 259.654907,246.643188 254.304214,248.347458 
	C254.304214,245.126114 254.192566,242.478699 254.362823,239.849533 
	C254.425125,238.887375 255.156204,237.968536 255.582184,237.029938 
	C256.406952,237.940598 257.231689,238.851257 258.058411,240.207764 
z"/>
<path fill="#BA1D3A" opacity="1.000000" stroke="none" 
	d="
M191.369553,77.471840 
	C191.112198,77.332077 191.131760,77.024490 191.258240,76.266968 
	C191.458939,76.312698 191.552704,76.808357 191.369553,77.471840 
z"/>
</svg>