<svg version="1.1" id="Layer_1" xmlns="http://www.w3.org/2000/svg" xmlns:xlink="http://www.w3.org/1999/xlink" x="0px" y="0px"
	 width="100%" viewBox="0 0 200 200" enable-background="new 0 0 200 200" xml:space="preserve" style="border-radius: 50%;">

<path fill="#000000" opacity="1.000000" stroke="none" 
	d="
M115.000000,257.000000 
	C76.666672,257.000000 38.833340,257.000000 1.000005,257.000000 
	C1.000003,171.666672 1.000003,86.333351 1.000002,1.000016 
	C86.333321,1.000011 171.666641,1.000011 257.000000,1.000005 
	C257.000000,86.333313 257.000000,171.666626 257.000000,256.999969 
	C209.833328,257.000000 162.666672,257.000000 115.000000,257.000000 
M43.794426,164.010391 
	C82.108330,164.006699 120.422249,164.018524 158.736145,163.990967 
	C172.225845,163.981262 185.715469,163.875092 200.106918,163.956604 
	C207.674988,163.956604 215.243042,163.956604 222.826584,163.956604 
	C222.826584,141.066132 222.826584,118.683968 222.819427,95.451019 
	C221.392136,94.967834 219.965195,94.063393 218.537506,94.062210 
	C163.029343,94.016357 107.521103,94.052940 51.344997,93.980774 
	C50.898746,94.003082 50.452492,94.025391 49.072166,93.986626 
	C44.481651,93.986626 39.891132,93.986626 35.005062,93.986626 
	C35.005062,109.648369 35.005062,124.861519 34.839165,140.796478 
	C34.910664,141.533127 34.982162,142.269791 34.984932,143.940613 
	C34.984932,150.615860 34.984932,157.291107 34.984932,163.962509 
	C37.760132,163.962509 39.897305,163.962509 42.415413,164.118301 
	C42.415413,164.118301 42.820286,164.044434 43.794426,164.010391 
z"/>
<path fill="#EFF5F4" opacity="1.000000" stroke="none" 
	d="
M35.005062,140.074677 
	C35.005062,124.861519 35.005062,109.648369 35.005062,93.986626 
	C39.891132,93.986626 44.481651,93.986626 49.622879,94.358261 
	C50.784801,95.174995 51.396004,95.620094 52.463806,96.178413 
	C107.455856,96.305321 161.991318,96.320763 216.526764,96.320686 
	C217.681122,96.320686 218.835464,96.141876 220.244873,96.132454 
	C220.672302,96.168633 220.844696,96.118828 221.305023,96.179565 
	C222.004166,96.294006 222.415375,96.297905 222.826584,96.301811 
	C222.826584,118.683968 222.826584,141.066132 222.826584,163.956604 
	C215.243042,163.956604 207.674988,163.956604 199.643097,163.655060 
	C199.179276,163.353516 198.915543,162.976501 198.998810,162.540375 
	C197.464767,161.732407 195.847824,161.037567 194.230057,161.035645 
	C145.205322,160.977524 96.180481,160.987595 47.155666,160.987411 
	C46.158562,160.987411 44.916557,160.623947 44.223946,161.084473 
	C43.275543,161.715073 42.744431,162.973282 42.034477,163.962509 
	C39.897305,163.962509 37.760132,163.962509 34.984932,163.962509 
	C34.984932,157.291107 34.984932,150.615860 35.475334,143.379868 
	C93.509369,142.819122 151.053009,142.819122 208.596634,142.819122 
	C208.596008,142.079422 208.595383,141.339722 208.594757,140.600021 
	C187.747223,140.600021 166.899689,140.600021 145.873993,140.438751 
	C145.112915,140.385056 144.529999,140.492645 143.630707,140.623779 
	C142.891876,140.631821 142.469437,140.616333 141.821777,140.429977 
	C140.714325,140.381790 139.832077,140.504456 138.566391,140.658401 
	C137.158020,140.693100 136.133118,140.696533 135.091736,140.438690 
	C135.066650,139.829117 135.058029,139.480789 135.440308,139.054779 
	C141.035385,137.943558 146.246719,136.942581 151.427963,135.804733 
	C151.781189,135.727158 151.908798,134.622269 152.354477,134.158066 
	C154.021454,134.384186 155.475266,134.447403 156.736572,135.001556 
	C157.203278,135.679108 157.862518,135.865707 158.527710,136.074219 
	C158.533691,136.096130 158.567352,136.140717 159.019440,136.197723 
	C161.066788,138.291977 168.785843,140.178665 170.276306,138.233719 
	C173.067627,134.591232 176.442520,136.541504 179.985168,136.189941 
	C183.411209,136.195190 186.428802,136.184570 189.859314,136.110062 
	C192.640762,136.909225 195.082962,138.642654 197.362137,138.449783 
	C201.784241,138.075607 206.116547,136.626312 210.475571,135.578796 
	C210.627609,135.542267 210.667526,135.039154 210.899490,134.320297 
	C208.582520,134.144028 206.374832,133.976074 203.920425,133.789352 
	C204.532867,130.173538 205.114609,126.738930 205.721283,123.157166 
	C208.793900,122.918167 211.876221,122.678413 214.958557,122.438660 
	C214.937653,122.015785 214.916748,121.592903 214.895859,121.170029 
	C212.042542,120.991531 209.189240,120.813042 205.983139,120.612480 
	C206.484680,112.205070 214.455765,118.970848 217.480469,114.255020 
	C213.652985,114.255020 210.483841,114.255020 206.556320,114.255020 
	C209.019989,106.357300 215.610626,111.885803 218.913025,109.044876 
	C219.628998,106.694962 220.342834,104.352097 221.024048,101.590149 
	C220.263184,100.849968 219.534302,100.247162 218.806747,100.248772 
	C197.886673,100.295044 176.966721,100.401901 155.642548,100.517052 
	C153.119736,100.706253 150.988205,101.114471 148.885178,100.999802 
	C144.308472,100.750282 139.743637,99.873215 135.178741,99.906616 
	C127.130035,99.965500 119.084908,100.513412 110.683060,100.625404 
	C108.202271,100.131752 106.068024,99.587051 103.952507,99.651993 
	C88.651413,100.121750 73.354095,100.714729 57.617233,101.127502 
	C54.144291,101.045357 51.109703,101.104385 48.075115,101.163414 
	C48.113621,101.613319 48.152130,102.063217 48.190639,102.513123 
	C51.167130,103.014153 54.143623,103.515175 56.856827,104.263550 
	C54.663860,109.614853 49.350922,106.567451 46.167038,109.365501 
	C48.334885,109.550789 50.502728,109.736084 53.073326,109.955803 
	C52.980663,111.383049 52.892761,112.736961 52.812325,113.975883 
	C49.565029,114.230148 46.804150,114.446335 44.043266,114.662521 
	C44.006721,115.130310 43.970181,115.598099 43.933636,116.065887 
	C49.055935,116.398781 54.830376,115.028236 57.424026,120.773819 
	C51.943932,120.782608 46.923660,120.782608 41.903385,120.782608 
	C41.931637,121.425621 41.959892,122.068642 41.988144,122.711655 
	C47.341896,122.711655 52.695648,122.711655 58.436440,122.764160 
	C63.054920,123.109184 67.840202,121.703560 70.732697,126.476067 
	C66.062698,130.892883 64.766869,130.813049 59.998196,126.265175 
	C59.410759,125.704926 58.365280,125.396210 57.519897,125.370499 
	C48.848095,125.106651 48.635639,125.366173 50.144360,133.541321 
	C50.173138,133.697281 50.114296,133.869415 49.626259,134.017075 
	C45.322388,134.107086 41.488598,134.214020 37.654804,134.320953 
	C37.697487,134.823746 37.740173,135.326523 37.782856,135.829315 
	C42.194592,135.829315 46.606331,135.829315 51.361305,135.927322 
	C54.174232,137.297119 56.643929,138.568924 59.013100,140.033707 
	C58.912579,140.226700 58.888588,140.661240 58.462322,140.677948 
	C56.045284,140.664459 54.054512,140.634247 51.949131,140.468903 
	C51.534039,140.432251 51.233555,140.530746 50.474194,140.653534 
	C45.011898,140.476761 40.008480,140.275726 35.005062,140.074677 
M103.021706,153.288986 
	C103.021706,153.288986 102.961700,152.913208 103.011101,152.461029 
	C103.011101,152.461029 103.130478,152.022079 103.756386,151.942429 
	C102.827278,151.702484 101.898170,151.462540 100.229736,151.103699 
	C99.552826,150.388214 98.875916,149.672729 97.705009,148.435089 
	C97.442268,149.909683 97.269241,150.880737 96.968124,152.415649 
	C96.751564,152.582199 96.535004,152.748749 96.318451,152.915298 
	C96.245598,152.804672 96.134743,152.703156 96.105652,152.582016 
	C95.732201,151.027191 95.370422,149.469528 95.005692,147.912598 
	C94.518982,148.030441 94.032272,148.148285 93.545563,148.266144 
	C93.673080,150.808273 93.800591,153.350418 93.944885,156.227051 
	C95.922150,155.439667 97.559784,154.787537 99.555107,154.690414 
	C100.716866,154.349960 101.878624,154.009506 103.021706,153.288986 
M139.763077,155.173325 
	C139.850494,154.093002 139.937912,153.012665 140.040100,151.287903 
	C140.026657,150.858444 140.013214,150.429001 139.789917,149.257843 
	C134.177246,147.015427 132.206528,147.721970 132.189682,152.343689 
	C132.189682,152.343689 132.177521,152.713852 132.026764,153.231003 
	C131.994476,153.407608 131.962173,153.584229 131.666382,154.589691 
	C134.124390,154.927490 136.582397,155.265305 139.763077,155.173325 
M148.770340,149.708862 
	C148.912582,149.518036 148.989075,149.303757 149.755783,148.627762 
	C151.742905,148.937241 153.730011,149.246719 156.258286,149.640488 
	C155.651367,145.664963 152.601685,146.675461 150.668091,146.869171 
	C149.079468,147.028336 146.240311,148.638702 146.336761,149.186829 
	C146.688019,151.182953 143.825912,155.057938 149.379425,155.243179 
	C150.025177,155.386658 150.673431,155.663528 151.316269,155.651459 
	C154.875656,155.584732 158.722580,152.417679 162.483353,158.437531 
	C162.654083,155.332382 162.730377,153.944763 162.782806,152.991074 
	C157.605606,152.991074 153.060349,152.991074 148.390396,152.233749 
	C148.430908,151.468475 148.471405,150.703217 148.770340,149.708862 
M79.372864,148.400574 
	C70.122269,147.860367 68.978806,149.016495 72.258026,156.614319 
	C74.922836,153.931061 77.424446,151.412140 79.372864,148.400574 
M67.154442,156.033127 
	C67.785019,155.770187 68.415596,155.507233 69.046173,155.244293 
	C69.010620,154.932266 68.975075,154.620239 68.939529,154.308197 
	C66.943680,154.089310 64.947838,153.870422 63.076859,153.665222 
	C62.441448,151.345795 61.875088,149.278412 61.308731,147.211044 
	C61.024155,147.322693 60.739574,147.434341 60.454998,147.545990 
	C60.454998,150.272476 60.454998,152.998947 60.454998,156.035004 
	C62.649429,156.035004 64.457535,156.035004 67.154442,156.033127 
M90.076431,154.984039 
	C90.854568,153.187607 91.632713,151.391159 92.846230,148.589600 
	C87.579300,150.785477 87.579300,150.785477 90.076431,154.984039 
M84.806274,149.965424 
	C82.569786,148.027054 81.970009,149.578766 81.990395,151.471680 
	C82.002357,152.582794 82.713730,153.686356 83.110489,154.793320 
	C83.739769,153.451157 84.369049,152.108994 84.806274,149.965424 
M158.404236,148.484253 
	C158.404236,148.484253 158.524582,148.410309 158.404236,148.484253 
z"/>
<path fill="#326959" opacity="1.000000" stroke="none" 
	d="
M146.052155,140.600021 
	C166.899689,140.600021 187.747223,140.600021 208.594757,140.600021 
	C208.595383,141.339722 208.596008,142.079422 208.596634,142.819122 
	C151.053009,142.819122 93.509369,142.819122 35.509697,142.912781 
	C34.982162,142.269791 34.910664,141.533127 34.922112,140.435577 
	C40.008480,140.275726 45.011898,140.476761 50.758579,140.724014 
	C51.689140,140.714828 51.876442,140.659439 52.063740,140.604034 
	C54.054512,140.634247 56.045284,140.664459 58.904701,140.779663 
	C61.883228,140.810165 63.993114,140.755661 66.564064,140.725739 
	C73.327667,140.705734 79.630196,140.661194 86.217102,140.688446 
	C86.689224,140.705612 86.876968,140.650986 87.482254,140.622513 
	C90.107086,140.082550 92.314377,139.516403 94.679565,138.883636 
	C95.074501,138.780914 95.294418,138.826813 95.263916,139.394684 
	C98.612358,141.518768 99.586075,141.362167 100.526443,138.920380 
	C100.550072,138.886139 100.628998,138.912476 100.513626,139.406189 
	C110.221901,140.119308 120.045433,140.346542 129.870193,140.489258 
	C130.029297,140.491577 130.203415,139.460831 130.410370,138.898895 
	C130.450211,138.885620 130.497787,138.954865 130.260422,139.385345 
	C131.718109,140.110550 133.413147,140.405258 135.108200,140.699966 
	C136.133118,140.696533 137.158020,140.693100 138.948486,140.752350 
	C140.491699,140.743637 141.269348,140.672241 142.046997,140.600845 
	C142.469437,140.616333 142.891876,140.631821 143.977097,140.720993 
	C145.110641,140.729782 145.581390,140.664902 146.052155,140.600021 
z"/>
<path fill="#175C49" opacity="1.000000" stroke="none" 
	d="
M219.989822,96.046478 
	C218.835464,96.141876 217.681122,96.320686 216.526764,96.320686 
	C161.991318,96.320763 107.455856,96.305321 52.464672,95.846809 
	C52.010254,94.960876 52.011570,94.519775 52.012882,94.078674 
	C107.521103,94.052940 163.029343,94.016357 218.537506,94.062210 
	C219.965195,94.063393 221.392136,94.967834 222.822998,95.876419 
	C222.415375,96.297905 222.004166,96.294006 221.210297,96.013359 
	C220.548355,95.839897 220.269089,95.943184 219.989822,96.046478 
z"/>
<path fill="#0F5541" opacity="1.000000" stroke="none" 
	d="
M42.224945,164.040405 
	C42.744431,162.973282 43.275543,161.715073 44.223946,161.084473 
	C44.916557,160.623947 46.158562,160.987411 47.155666,160.987411 
	C96.180481,160.987595 145.205322,160.977524 194.230057,161.035645 
	C195.847824,161.037567 197.464767,161.732407 198.535950,162.532761 
	C148.331375,162.983673 98.672920,162.993927 49.014557,163.071350 
	C46.949295,163.074570 44.885021,163.705780 42.820286,164.044434 
	C42.820286,164.044434 42.415413,164.118301 42.224945,164.040405 
z"/>
<path fill="#3F7466" opacity="1.000000" stroke="none" 
	d="
M43.307358,164.027405 
	C44.885021,163.705780 46.949295,163.074570 49.014557,163.071350 
	C98.672920,162.993927 148.331375,162.983673 198.452682,162.968887 
	C198.915543,162.976501 199.179276,163.353516 199.192200,163.583252 
	C185.715469,163.875092 172.225845,163.981262 158.736145,163.990967 
	C120.422249,164.018524 82.108330,164.006699 43.307358,164.027405 
z"/>
<path fill="#08503C" opacity="1.000000" stroke="none" 
	d="
M51.678940,94.029724 
	C52.011570,94.519775 52.010254,94.960876 52.008072,95.733582 
	C51.396004,95.620094 50.784801,95.174995 50.089920,94.388809 
	C50.452492,94.025391 50.898746,94.003082 51.678940,94.029724 
z"/>
<path fill="#135845" opacity="1.000000" stroke="none" 
	d="
M95.497223,138.954681 
	C95.294418,138.826813 95.074501,138.780914 94.265724,138.851349 
	C88.595932,137.933823 83.504196,136.293930 78.397858,136.247162 
	C74.291321,136.209549 70.167130,138.100143 65.653488,139.058304 
	C63.208687,139.267868 61.161152,139.554291 59.113621,139.840714 
	C56.643929,138.568924 54.174232,137.297119 51.336159,135.659210 
	C50.677296,134.873383 50.386818,134.453690 50.096336,134.033997 
	C50.114296,133.869415 50.173138,133.697281 50.144360,133.541321 
	C48.635639,125.366173 48.848095,125.106651 57.519897,125.370499 
	C58.365280,125.396210 59.410759,125.704926 59.998196,126.265175 
	C64.766869,130.813049 66.062698,130.892883 70.732697,126.476067 
	C67.840202,121.703560 63.054920,123.109184 58.407990,122.276398 
	C57.956284,121.412430 57.920067,121.088730 57.883846,120.765022 
	C54.830376,115.028236 49.055935,116.398781 43.933636,116.065887 
	C43.970181,115.598099 44.006721,115.130310 44.043266,114.662521 
	C46.804150,114.446335 49.565029,114.230148 52.812325,113.975883 
	C52.892761,112.736961 52.980663,111.383049 53.073326,109.955803 
	C50.502728,109.736084 48.334885,109.550789 46.167038,109.365501 
	C49.350922,106.567451 54.663860,109.614853 57.102833,104.272850 
	C57.612125,104.034798 58.103191,103.998795 58.490509,103.944000 
	C62.656902,103.158813 66.435974,102.428436 70.766739,101.591438 
	C70.390221,103.760567 70.197441,104.871201 69.640137,106.023232 
	C68.542435,106.064011 67.809265,106.063393 67.010086,105.923309 
	C66.859947,105.729454 66.775803,105.675064 66.691650,105.620682 
	C66.814941,105.771927 66.938232,105.923172 67.137894,106.465080 
	C73.522141,107.177315 79.829262,107.519035 86.140472,107.748589 
	C86.399605,107.758011 86.697060,106.713821 86.905884,105.971603 
	C86.542427,105.876266 86.249733,105.969818 85.636894,106.097473 
	C84.888435,106.116455 84.460114,106.101349 83.896759,105.781403 
	C81.156067,102.028046 83.829155,102.048088 86.108727,102.027954 
	C92.561371,101.970963 99.016624,102.091171 105.466850,101.953835 
	C107.330933,101.914139 109.181511,101.239914 111.038277,100.856598 
	C119.084908,100.513412 127.130035,99.965500 135.178741,99.906616 
	C139.743637,99.873215 144.308472,100.750282 148.885178,100.999802 
	C150.988205,101.114471 153.119736,100.706253 155.796173,100.860535 
	C158.095444,101.461250 159.836227,101.971130 161.578415,101.976021 
	C181.404358,102.031624 201.230545,102.010124 221.056656,102.009232 
	C220.342834,104.352097 219.628998,106.694962 218.913025,109.044876 
	C215.610626,111.885803 209.019989,106.357300 206.556320,114.255020 
	C210.483841,114.255020 213.652985,114.255020 217.480469,114.255020 
	C214.455765,118.970848 206.484680,112.205070 205.983139,120.612480 
	C209.189240,120.813042 212.042542,120.991531 214.895859,121.170029 
	C214.916748,121.592903 214.937653,122.015785 214.958557,122.438660 
	C211.876221,122.678413 208.793900,122.918167 205.721283,123.157166 
	C205.114609,126.738930 204.532867,130.173538 203.920425,133.789352 
	C206.374832,133.976074 208.582520,134.144028 210.899490,134.320297 
	C210.667526,135.039154 210.627609,135.542267 210.475571,135.578796 
	C206.116547,136.626312 201.784241,138.075607 197.362137,138.449783 
	C195.082962,138.642654 192.640762,136.909225 189.679886,135.662659 
	C190.586868,133.716171 194.115768,133.567291 192.746887,129.586853 
	C193.224533,127.205971 193.712021,125.251060 194.317108,122.824631 
	C187.988800,122.824631 182.353958,122.931480 176.725693,122.784828 
	C173.314041,122.695923 172.858765,124.416237 173.381027,127.178085 
	C173.537155,128.003769 173.350983,128.894211 173.009216,129.924896 
	C172.467606,131.308746 172.238434,132.522690 171.928055,134.166733 
	C174.248520,134.166733 176.088409,133.990448 177.861008,134.258759 
	C178.514572,134.357712 179.009460,135.504959 179.576736,136.174057 
	C176.442520,136.541504 173.067627,134.591232 170.276306,138.233719 
	C168.785843,140.178665 161.066788,138.291977 159.011871,135.695053 
	C160.018326,131.215500 161.484467,127.295639 163.014557,123.204750 
	C155.781418,122.505638 155.793655,122.511269 152.966461,128.654587 
	C152.806992,129.001083 152.155182,129.096970 151.777344,129.371246 
	C150.275955,130.461166 148.792343,131.575623 147.302139,132.680969 
	C147.660660,133.119034 148.019196,133.557098 148.377716,133.995163 
	C149.632248,133.995163 150.886795,133.995163 152.141327,133.995163 
	C151.908798,134.622269 151.781189,135.727158 151.427963,135.804733 
	C146.246719,136.942581 141.035385,137.943558 134.990387,138.978043 
	C132.932281,138.970947 131.715042,138.962906 130.497787,138.954865 
	C130.497787,138.954865 130.450211,138.885620 129.990845,138.920746 
	C124.140877,137.980255 118.763771,136.350250 113.355377,136.238861 
	C109.133400,136.151901 104.872566,137.951294 100.628998,138.912476 
	C100.628998,138.912476 100.550072,138.886139 100.026009,138.919067 
	C98.167038,138.952896 96.832130,138.953796 95.497223,138.954681 
M108.232147,112.089439 
	C106.529915,107.842888 102.835831,109.795097 100.073677,109.864693 
	C98.551628,109.903030 97.078911,111.899490 95.583946,113.013161 
	C95.813683,113.443420 96.043411,113.873672 96.273148,114.303932 
	C100.205208,114.303932 104.137276,114.303932 108.699509,114.784134 
	C111.600479,114.784134 114.501450,114.784134 117.402420,114.784134 
	C117.396469,114.305321 117.390526,113.826508 117.384575,113.347687 
	C114.466354,113.178261 111.548141,113.008835 108.232147,112.089439 
M107.908691,124.041046 
	C110.759819,124.059479 114.149918,126.791931 117.065346,122.286003 
	C113.893661,122.034164 111.642708,121.855438 110.028389,121.066338 
	C117.126259,120.795250 117.126259,120.795250 116.862892,116.172478 
	C110.285744,116.172478 103.675430,115.992195 97.090942,116.324104 
	C95.768852,116.390739 94.544930,118.404724 93.275742,119.520836 
	C93.560448,120.000328 93.845154,120.479813 94.129860,120.959305 
	C97.573105,120.959305 101.022499,120.851837 104.454536,121.047974 
	C105.159645,121.088272 105.799911,122.263435 105.646919,122.797585 
	C101.610329,122.797585 97.573746,122.797585 93.509796,122.797585 
	C93.824898,127.721573 96.483742,130.714142 99.588493,129.473007 
	C102.401566,128.348465 104.682816,125.893555 107.908691,124.041046 
M179.748749,120.917534 
	C183.547821,120.929390 187.351395,120.830948 191.144592,120.986404 
	C194.455338,121.122101 195.716171,119.852036 194.737015,116.168091 
	C189.336136,116.168091 183.905182,116.329636 178.489838,116.108734 
	C175.131561,115.971756 173.988266,117.313232 174.484558,120.738998 
	C175.909607,120.801643 177.366745,120.865707 179.748749,120.917534 
M141.053040,122.866356 
	C136.694626,122.866356 132.336212,122.866356 128.017273,122.866356 
	C127.486855,128.070175 130.453445,129.323532 133.940567,129.546707 
	C138.512711,129.839340 141.499878,127.261696 141.053040,122.866356 
M176.600891,114.109184 
	C181.930389,114.145210 187.261551,114.112999 192.588760,114.242935 
	C195.766861,114.320442 196.808548,113.078171 195.530365,109.753357 
	C190.006622,109.753357 184.364761,109.827477 178.726227,109.722893 
	C175.794205,109.668503 175.430435,111.277588 176.600891,114.109184 
M143.521881,118.294464 
	C142.365616,116.501228 133.562073,114.854149 130.318573,116.280891 
	C129.134125,116.801903 128.590530,118.779770 127.227242,120.921432 
	C132.625961,120.921432 136.741516,121.021301 140.844528,120.838837 
	C141.684799,120.801460 142.478012,119.706261 143.521881,118.294464 
M78.438904,109.701164 
	C73.687210,109.701164 68.935516,109.701164 64.183815,109.701164 
	C69.265770,114.089996 74.897415,114.323914 80.688904,114.308052 
	C83.921425,114.299194 84.959473,112.956566 85.098152,109.658318 
	C83.003647,109.658318 81.209663,109.658318 78.438904,109.701164 
M133.929749,114.249863 
	C136.993958,114.249863 140.058167,114.249863 143.162140,114.249863 
	C143.287079,110.129791 141.124176,109.568169 138.345871,109.618774 
	C134.976807,109.680145 131.323853,109.126221 130.378860,114.044769 
	C131.423584,114.124908 132.235260,114.187164 133.929749,114.249863 
M163.086090,119.901169 
	C163.255173,118.821434 163.424255,117.741692 163.633331,116.406586 
	C160.591553,116.406586 157.881958,116.406586 155.052933,116.406586 
	C154.759003,117.890778 154.509323,119.151596 154.214523,120.640266 
	C157.200943,120.640266 159.950912,120.640266 163.086090,119.901169 
M163.872528,109.917870 
	C160.951691,109.917870 158.030853,109.917870 154.799255,109.917870 
	C154.984055,111.556808 155.121704,112.777519 155.324448,114.575363 
	C158.524811,112.621445 164.015335,117.686066 163.872528,109.917870 
M117.667877,106.776894 
	C121.868179,109.702507 123.330597,105.626755 125.634338,103.291756 
	C122.529037,103.291756 119.423744,103.291756 115.858040,103.291756 
	C116.426514,104.417946 116.850098,105.257088 117.667877,106.776894 
z"/>
<path fill="#084D3A" opacity="1.000000" stroke="none" 
	d="
M70.004662,105.981834 
	C70.197441,104.871201 70.390221,103.760567 70.766739,101.591438 
	C66.435974,102.428436 62.656902,103.158813 58.474922,103.602692 
	C58.066540,102.633682 58.061066,101.951187 58.055588,101.268684 
	C73.354095,100.714729 88.651413,100.121750 103.952507,99.651993 
	C106.068024,99.587051 108.202271,100.131752 110.683060,100.625404 
	C109.181511,101.239914 107.330933,101.914139 105.466850,101.953835 
	C99.016624,102.091171 92.561371,101.970963 86.108727,102.027954 
	C83.829155,102.048088 81.156067,102.028046 83.491982,105.778214 
	C82.145508,106.060768 81.068771,106.041672 80.017548,105.695755 
	C78.830566,104.144020 77.618065,102.919090 75.453697,100.732521 
	C75.183418,103.742119 75.084541,104.843163 74.570992,105.966530 
	C72.772430,105.986519 71.388550,105.984177 70.004662,105.981834 
z"/>
<path fill="#03412E" opacity="1.000000" stroke="none" 
	d="
M221.024048,101.590149 
	C201.230545,102.010124 181.404358,102.031624 161.578415,101.976021 
	C159.836227,101.971130 158.095444,101.461250 156.200378,100.842438 
	C176.966721,100.401901 197.886673,100.295044 218.806747,100.248772 
	C219.534302,100.247162 220.263184,100.849968 221.024048,101.590149 
z"/>
<path fill="#D5E3E1" opacity="1.000000" stroke="none" 
	d="
M152.354477,134.158066 
	C150.886795,133.995163 149.632248,133.995163 148.377716,133.995163 
	C148.019196,133.557098 147.660660,133.119034 147.302139,132.680969 
	C148.792343,131.575623 150.275955,130.461166 151.777344,129.371246 
	C152.155182,129.096970 152.806992,129.001083 152.966461,128.654587 
	C155.793655,122.511269 155.781418,122.505638 163.014557,123.204750 
	C161.484467,127.295639 160.018326,131.215500 158.559784,135.638046 
	C158.567352,136.140717 158.533691,136.096130 158.662674,135.559570 
	C158.170807,134.852219 157.549942,134.681427 156.929092,134.510620 
	C155.475266,134.447403 154.021454,134.384186 152.354477,134.158066 
z"/>
<path fill="#DBE7E4" opacity="1.000000" stroke="none" 
	d="
M192.756760,130.012833 
	C194.115768,133.567291 190.586868,133.716171 189.266968,135.726532 
	C186.428802,136.184570 183.411209,136.195190 179.985168,136.189941 
	C179.009460,135.504959 178.514572,134.357712 177.861008,134.258759 
	C176.088409,133.990448 174.248520,134.166733 171.928055,134.166733 
	C172.238434,132.522690 172.467606,131.308746 173.482239,129.998611 
	C180.430710,129.939224 186.593735,129.976028 192.756760,130.012833 
z"/>
<path fill="#3F7466" opacity="1.000000" stroke="none" 
	d="
M79.649460,148.646896 
	C77.424446,151.412140 74.922836,153.931061 72.258026,156.614319 
	C68.978806,149.016495 70.122269,147.860367 79.649460,148.646896 
z"/>
<path fill="#E3EFED" opacity="1.000000" stroke="none" 
	d="
M148.515091,152.991074 
	C153.060349,152.991074 157.605606,152.991074 162.782806,152.991074 
	C162.730377,153.944763 162.654083,155.332382 162.483353,158.437531 
	C158.722580,152.417679 154.875656,155.584732 151.316269,155.651459 
	C150.673431,155.663528 150.025177,155.386658 149.161041,154.837906 
	C148.800125,153.952118 148.657608,153.471588 148.515091,152.991074 
z"/>
<path fill="#286554" opacity="1.000000" stroke="none" 
	d="
M148.452744,152.612411 
	C148.657608,153.471588 148.800125,153.952118 148.912506,154.692902 
	C143.825912,155.057938 146.688019,151.182953 146.336761,149.186829 
	C146.240311,148.638702 149.079468,147.028336 150.668091,146.869171 
	C152.601685,146.675461 155.651367,145.664963 156.258286,149.640488 
	C153.730011,149.246719 151.742905,148.937241 149.160583,148.888092 
	C148.285202,149.393768 148.267365,149.656952 148.511902,149.937943 
	C148.471405,150.703217 148.430908,151.468475 148.452744,152.612411 
z"/>
<path fill="#326959" opacity="1.000000" stroke="none" 
	d="
M57.424026,120.773819 
	C57.920067,121.088730 57.956284,121.412430 58.020950,122.223892 
	C52.695648,122.711655 47.341896,122.711655 41.988144,122.711655 
	C41.959892,122.068642 41.931637,121.425621 41.903385,120.782608 
	C46.923660,120.782608 51.943932,120.782608 57.424026,120.773819 
z"/>
<path fill="#3F7466" opacity="1.000000" stroke="none" 
	d="
M66.710037,156.034058 
	C64.457535,156.035004 62.649429,156.035004 60.454998,156.035004 
	C60.454998,152.998947 60.454998,150.272476 60.454998,147.545990 
	C60.739574,147.434341 61.024155,147.322693 61.308731,147.211044 
	C61.875088,149.278412 62.441448,151.345795 63.076859,153.665222 
	C64.947838,153.870422 66.943680,154.089310 68.939529,154.308197 
	C68.975075,154.620239 69.010620,154.932266 69.046173,155.244293 
	C68.415596,155.507233 67.785019,155.770187 66.710037,156.034058 
z"/>
<path fill="#286554" opacity="1.000000" stroke="none" 
	d="
M49.626259,134.017075 
	C50.386818,134.453690 50.677296,134.873383 50.992920,135.561188 
	C46.606331,135.829315 42.194592,135.829315 37.782856,135.829315 
	C37.740173,135.326523 37.697487,134.823746 37.654804,134.320953 
	C41.488598,134.214020 45.322388,134.107086 49.626259,134.017075 
z"/>
<path fill="#CDDDDA" opacity="1.000000" stroke="none" 
	d="
M99.197411,154.135406 
	C97.559784,154.787537 95.922150,155.439667 93.944885,156.227051 
	C93.800591,153.350418 93.673080,150.808273 93.545563,148.266144 
	C94.032272,148.148285 94.518982,148.030441 95.005692,147.912598 
	C95.370422,149.469528 95.732201,151.027191 96.105652,152.582016 
	C96.134743,152.703156 96.245598,152.804672 96.318451,152.915298 
	C96.535004,152.748749 96.751564,152.582199 97.275635,152.282837 
	C98.059685,152.461884 98.536217,152.773743 99.020065,153.351868 
	C99.051620,153.794067 99.075882,153.970001 99.121399,154.115295 
	C99.142654,154.084686 99.197411,154.135391 99.197411,154.135406 
z"/>
<path fill="#326959" opacity="1.000000" stroke="none" 
	d="
M57.617233,101.127502 
	C58.061066,101.951187 58.066540,102.633682 58.087601,103.657486 
	C58.103191,103.998795 57.612125,104.034798 57.366119,104.025497 
	C54.143623,103.515175 51.167130,103.014153 48.190639,102.513123 
	C48.152130,102.063217 48.113621,101.613319 48.075115,101.163414 
	C51.109703,101.104385 54.144291,101.045357 57.617233,101.127502 
z"/>
<path fill="#CDDDDA" opacity="1.000000" stroke="none" 
	d="
M89.810745,154.813828 
	C87.579300,150.785477 87.579300,150.785477 92.846230,148.589600 
	C91.632713,151.391159 90.854568,153.187607 89.810745,154.813828 
z"/>
<path fill="#3F7466" opacity="1.000000" stroke="none" 
	d="
M132.213608,151.974121 
	C132.206528,147.721970 134.177246,147.015427 139.619537,149.750183 
	C139.253738,150.288025 139.058334,150.333527 138.495544,150.263687 
	C136.759430,150.418030 135.390686,150.687729 133.883789,151.198929 
	C133.234970,151.618317 132.724289,151.796219 132.213608,151.974121 
z"/>
<path fill="#CDDDDA" opacity="1.000000" stroke="none" 
	d="
M84.902298,150.366119 
	C84.369049,152.108994 83.739769,153.451157 83.110497,154.793320 
	C82.713730,153.686356 82.002357,152.582794 81.990395,151.471680 
	C81.970009,149.578766 82.569786,148.027054 84.902298,150.366119 
z"/>
<path fill="#D5E3E1" opacity="1.000000" stroke="none" 
	d="
M138.862930,150.379044 
	C139.058334,150.333527 139.253738,150.288025 139.724457,150.121033 
	C140.013214,150.429001 140.026657,150.858444 139.676590,151.526016 
	C139.133911,152.439499 138.954742,153.114853 138.362427,153.921265 
	C135.942795,153.955154 133.936325,153.858002 131.929855,153.760864 
	C131.962173,153.584229 131.994476,153.407608 132.516785,153.047150 
	C134.260742,152.594208 136.661850,154.182541 136.376801,150.922333 
	C137.396210,150.717072 138.129562,150.548050 138.862930,150.379044 
z"/>
<path fill="#518072" opacity="1.000000" stroke="none" 
	d="
M131.798126,154.175278 
	C133.936325,153.858002 135.942795,153.955154 138.451508,154.371155 
	C138.982620,154.994370 139.011520,155.298752 139.040405,155.603119 
	C136.582397,155.265305 134.124390,154.927490 131.798126,154.175278 
z"/>
<path fill="#B4CCC6" opacity="1.000000" stroke="none" 
	d="
M59.013100,140.033707 
	C61.161152,139.554291 63.208687,139.267868 65.646042,139.319580 
	C66.058243,140.005524 66.080620,140.353348 66.102997,140.701172 
	C63.993114,140.755661 61.883228,140.810165 59.330967,140.762955 
	C58.888588,140.661240 58.912579,140.226700 59.013100,140.033707 
z"/>
<path fill="#3F7466" opacity="1.000000" stroke="none" 
	d="
M99.012756,153.085587 
	C98.536217,152.773743 98.059685,152.461884 97.339691,152.000916 
	C97.269241,150.880737 97.442268,149.909683 97.705009,148.435089 
	C98.875916,149.672729 99.552826,150.388214 100.822067,151.357697 
	C101.986427,151.748489 102.558449,151.885284 103.130478,152.022079 
	C103.130478,152.022079 103.011101,152.461029 102.591003,152.697174 
	C101.118187,152.984085 100.065475,153.034836 99.012756,153.085587 
z"/>
<path fill="#B4CCC6" opacity="1.000000" stroke="none" 
	d="
M130.260422,139.385345 
	C131.715042,138.962906 132.932281,138.970947 134.599472,139.055725 
	C135.058029,139.480789 135.066650,139.829117 135.091736,140.438690 
	C133.413147,140.405258 131.718109,140.110550 130.260422,139.385345 
z"/>
<path fill="#518072" opacity="1.000000" stroke="none" 
	d="
M136.090744,150.958557 
	C136.661850,154.182541 134.260742,152.594208 132.592163,152.788574 
	C132.177521,152.713852 132.189682,152.343689 132.201645,152.158905 
	C132.724289,151.796219 133.234970,151.618317 134.227539,151.243805 
	C135.169861,151.017654 135.630310,150.988113 136.090744,150.958557 
z"/>
<path fill="#729A8E" opacity="1.000000" stroke="none" 
	d="
M103.040382,153.669067 
	C101.878624,154.009506 100.716866,154.349960 99.376259,154.412903 
	C99.197411,154.135391 99.142654,154.084686 99.520630,154.115784 
	C100.945869,153.987610 101.993126,153.828339 103.040382,153.669067 
z"/>
<path fill="#E0EAE8" opacity="1.000000" stroke="none" 
	d="
M103.031044,153.479034 
	C101.993126,153.828339 100.945869,153.987610 99.499374,154.146393 
	C99.075882,153.970001 99.051620,153.794067 99.020065,153.351868 
	C100.065475,153.034836 101.118187,152.984085 102.566299,152.923279 
	C102.961700,152.913208 103.021706,153.288986 103.031044,153.479034 
z"/>
<path fill="#084D3A" opacity="1.000000" stroke="none" 
	d="
M139.401733,155.388214 
	C139.011520,155.298752 138.982620,154.994370 138.864655,154.240112 
	C138.954742,153.114853 139.133911,152.439499 139.669205,151.848236 
	C139.937912,153.012665 139.850494,154.093002 139.401733,155.388214 
z"/>
<path fill="#729A8E" opacity="1.000000" stroke="none" 
	d="
M103.443436,151.982254 
	C102.558449,151.885284 101.986427,151.748489 101.191727,151.417145 
	C101.898170,151.462540 102.827278,151.702484 103.443436,151.982254 
z"/>
<path fill="#B4CCC6" opacity="1.000000" stroke="none" 
	d="
M141.821777,140.429977 
	C141.269348,140.672241 140.491699,140.743637 139.331940,140.721085 
	C139.832077,140.504456 140.714325,140.381790 141.821777,140.429977 
z"/>
<path fill="#B4CCC6" opacity="1.000000" stroke="none" 
	d="
M145.873993,140.438751 
	C145.581390,140.664902 145.110641,140.729782 144.293488,140.697449 
	C144.529999,140.492645 145.112915,140.385056 145.873993,140.438751 
z"/>
<path fill="#E3EFED" opacity="1.000000" stroke="none" 
	d="
M148.641113,149.823395 
	C148.267365,149.656952 148.285202,149.393768 148.782593,149.107208 
	C148.989075,149.303757 148.912582,149.518036 148.641113,149.823395 
z"/>
<path fill="#B4CCC6" opacity="1.000000" stroke="none" 
	d="
M51.949131,140.468903 
	C51.876442,140.659439 51.689140,140.714828 51.217457,140.699738 
	C51.233555,140.530746 51.534039,140.432251 51.949131,140.468903 
z"/>
<path fill="#135845" opacity="1.000000" stroke="none" 
	d="
M156.736572,135.001556 
	C157.549942,134.681427 158.170807,134.852219 158.656708,135.537674 
	C157.862518,135.865707 157.203278,135.679108 156.736572,135.001556 
z"/>
<path fill="#E3EFED" opacity="1.000000" stroke="none" 
	d="
M158.464417,148.447281 
	C158.524582,148.410309 158.404236,148.484253 158.464417,148.447281 
z"/>
<path fill="#08503C" opacity="1.000000" stroke="none" 
	d="
M220.244873,96.132446 
	C220.269089,95.943184 220.548355,95.839897 220.922348,95.902817 
	C220.844696,96.118828 220.672302,96.168633 220.244873,96.132446 
z"/>
<path fill="#EEF4F3" opacity="1.000000" stroke="none" 
	d="
M100.513626,139.406189 
	C104.872566,137.951294 109.133400,136.151901 113.355377,136.238861 
	C118.763771,136.350250 124.140877,137.980255 129.950989,138.934021 
	C130.203415,139.460831 130.029297,140.491577 129.870193,140.489258 
	C120.045433,140.346542 110.221901,140.119308 100.513626,139.406189 
z"/>
<path fill="#F1F6F6" opacity="1.000000" stroke="none" 
	d="
M66.564064,140.725723 
	C66.080620,140.353348 66.058243,140.005524 66.043320,139.396439 
	C70.167130,138.100143 74.291321,136.209549 78.397858,136.247162 
	C83.504196,136.293930 88.595932,137.933823 94.107819,138.917984 
	C92.314377,139.516403 90.107086,140.082550 87.369370,140.483490 
	C86.536880,140.417755 86.234802,140.517197 85.932732,140.616653 
	C79.630196,140.661194 73.327667,140.705734 66.564064,140.725723 
z"/>
<path fill="#B4CCC6" opacity="1.000000" stroke="none" 
	d="
M95.263916,139.394684 
	C96.832130,138.953796 98.167038,138.952896 100.002380,138.953308 
	C99.586075,141.362167 98.612358,141.518768 95.263916,139.394684 
z"/>
<path fill="#B4CCC6" opacity="1.000000" stroke="none" 
	d="
M86.217102,140.688446 
	C86.234802,140.517197 86.536880,140.417755 86.951828,140.457321 
	C86.876968,140.650986 86.689224,140.705612 86.217102,140.688446 
z"/>
<path fill="#D4E1DE" opacity="1.000000" stroke="none" 
	d="
M192.746887,129.586853 
	C186.593735,129.976028 180.430710,129.939224 173.794662,129.828705 
	C173.350983,128.894211 173.537155,128.003769 173.381027,127.178085 
	C172.858765,124.416237 173.314041,122.695923 176.725693,122.784828 
	C182.353958,122.931480 187.988800,122.824631 194.317108,122.824631 
	C193.712021,125.251060 193.224533,127.205971 192.746887,129.586853 
z"/>
<path fill="#E0EAE8" opacity="1.000000" stroke="none" 
	d="
M106.470062,122.915497 
	C105.799911,122.263435 105.159645,121.088272 104.454536,121.047974 
	C101.022499,120.851837 97.573105,120.959305 94.129860,120.959305 
	C93.845154,120.479813 93.560448,120.000328 93.275742,119.520836 
	C94.544930,118.404724 95.768852,116.390739 97.090942,116.324104 
	C103.675430,115.992195 110.285744,116.172478 116.862892,116.172478 
	C117.126259,120.795250 117.126259,120.795250 109.720352,121.404892 
	C109.412308,121.743446 109.471031,121.705803 108.937180,121.459747 
	C108.029823,121.780891 107.656326,122.348099 107.056824,122.768356 
	C106.700974,122.745674 106.571136,122.869942 106.459381,122.959198 
	C106.477470,122.924202 106.470062,122.915497 106.470062,122.915497 
z"/>
<path fill="#E0EAE8" opacity="1.000000" stroke="none" 
	d="
M179.286316,120.923645 
	C177.366745,120.865707 175.909607,120.801643 174.484558,120.738998 
	C173.988266,117.313232 175.131561,115.971756 178.489838,116.108734 
	C183.905182,116.329636 189.336136,116.168091 194.737015,116.168091 
	C195.716171,119.852036 194.455338,121.122101 191.144592,120.986404 
	C187.351395,120.830948 183.547821,120.929390 179.286316,120.923645 
z"/>
<path fill="#CDDDDA" opacity="1.000000" stroke="none" 
	d="
M106.058487,122.856537 
	C106.470062,122.915497 106.477470,122.924202 106.731415,123.156128 
	C107.056427,123.600441 107.127487,123.812828 107.198547,124.025215 
	C104.682816,125.893555 102.401566,128.348465 99.588493,129.473007 
	C96.483742,130.714142 93.824898,127.721573 93.509796,122.797585 
	C97.573746,122.797585 101.610329,122.797585 106.058487,122.856537 
z"/>
<path fill="#D4E1DE" opacity="1.000000" stroke="none" 
	d="
M141.454315,123.054764 
	C141.499878,127.261696 138.512711,129.839340 133.940567,129.546707 
	C130.453445,129.323532 127.486855,128.070175 128.017273,122.866356 
	C132.336212,122.866356 136.694626,122.866356 141.454315,123.054764 
z"/>
<path fill="#F6FBFA" opacity="1.000000" stroke="none" 
	d="
M176.186859,113.842911 
	C175.430435,111.277588 175.794205,109.668503 178.726227,109.722893 
	C184.364761,109.827477 190.006622,109.753357 195.530365,109.753357 
	C196.808548,113.078171 195.766861,114.320442 192.588760,114.242935 
	C187.261551,114.112999 181.930389,114.145210 176.186859,113.842911 
z"/>
<path fill="#E0EAE8" opacity="1.000000" stroke="none" 
	d="
M143.407410,118.696571 
	C142.478012,119.706261 141.684799,120.801460 140.844528,120.838837 
	C136.741516,121.021301 132.625961,120.921432 127.227242,120.921432 
	C128.590530,118.779770 129.134125,116.801903 130.318573,116.280891 
	C133.562073,114.854149 142.365616,116.501228 143.407410,118.696571 
z"/>
<path fill="#EEF4F3" opacity="1.000000" stroke="none" 
	d="
M78.927292,109.679741 
	C81.209663,109.658318 83.003647,109.658318 85.098152,109.658318 
	C84.959473,112.956566 83.921425,114.299194 80.688904,114.308052 
	C74.897415,114.323914 69.265770,114.089996 64.183815,109.701164 
	C68.935516,109.701164 73.687210,109.701164 78.927292,109.679741 
z"/>
<path fill="#EEF4F3" opacity="1.000000" stroke="none" 
	d="
M133.488342,114.249641 
	C132.235260,114.187164 131.423584,114.124908 130.378860,114.044769 
	C131.323853,109.126221 134.976807,109.680145 138.345871,109.618774 
	C141.124176,109.568169 143.287079,110.129791 143.162140,114.249863 
	C140.058167,114.249863 136.993958,114.249863 133.488342,114.249641 
z"/>
<path fill="#DBE7E4" opacity="1.000000" stroke="none" 
	d="
M162.893494,120.270721 
	C159.950912,120.640266 157.200943,120.640266 154.214523,120.640266 
	C154.509323,119.151596 154.759003,117.890778 155.052933,116.406586 
	C157.881958,116.406586 160.591553,116.406586 163.633331,116.406586 
	C163.424255,117.741692 163.255173,118.821434 162.893494,120.270721 
z"/>
<path fill="#F1F6F6" opacity="1.000000" stroke="none" 
	d="
M108.069344,114.303932 
	C104.137276,114.303932 100.205208,114.303932 96.273148,114.303932 
	C96.043411,113.873672 95.813683,113.443420 95.583946,113.013161 
	C97.078911,111.899490 98.551628,109.903030 100.073677,109.864693 
	C102.835831,109.795097 106.529915,107.842888 108.293304,112.831474 
	C108.259430,113.816986 108.164383,114.060455 108.069344,114.303932 
z"/>
<path fill="#518072" opacity="1.000000" stroke="none" 
	d="
M79.992043,106.022568 
	C81.068771,106.041672 82.145508,106.060768 83.627014,106.083054 
	C84.460114,106.101349 84.888435,106.116455 85.892960,106.112396 
	C86.638329,106.115662 86.807487,106.138077 86.976654,106.160500 
	C86.697060,106.713821 86.399605,107.758011 86.140472,107.748589 
	C79.829262,107.519035 73.522141,107.177315 67.108749,106.427902 
	C67.003212,106.000069 67.076088,106.062767 67.076088,106.062775 
	C67.809265,106.063393 68.542435,106.064011 69.640137,106.023232 
	C71.388550,105.984177 72.772430,105.986519 74.987473,106.004105 
	C77.209763,106.020416 78.600906,106.021492 79.992043,106.022568 
z"/>
<path fill="#F6FBFA" opacity="1.000000" stroke="none" 
	d="
M164.244720,110.151642 
	C164.015335,117.686066 158.524811,112.621445 155.324448,114.575363 
	C155.121704,112.777519 154.984055,111.556808 154.799255,109.917870 
	C158.030853,109.917870 160.951691,109.917870 164.244720,110.151642 
z"/>
<path fill="#D5E3E1" opacity="1.000000" stroke="none" 
	d="
M117.470779,106.436562 
	C116.850098,105.257088 116.426514,104.417946 115.858040,103.291756 
	C119.423744,103.291756 122.529037,103.291756 125.634338,103.291756 
	C123.330597,105.626755 121.868179,109.702507 117.470779,106.436562 
z"/>
<path fill="#286554" opacity="1.000000" stroke="none" 
	d="
M107.553619,124.033127 
	C107.127487,123.812828 107.056427,123.600441 106.713333,123.191132 
	C106.571136,122.869942 106.700974,122.745674 107.468925,122.658066 
	C108.561699,122.365074 109.016365,122.035439 109.471031,121.705803 
	C109.471031,121.705803 109.412308,121.743446 109.402023,121.710075 
	C111.642708,121.855438 113.893661,122.034164 117.065346,122.286003 
	C114.149918,126.791931 110.759819,124.059479 107.553619,124.033127 
z"/>
<path fill="#518072" opacity="1.000000" stroke="none" 
	d="
M108.384430,114.544037 
	C108.164383,114.060455 108.259430,113.816986 108.492195,113.206459 
	C111.548141,113.008835 114.466354,113.178261 117.384575,113.347687 
	C117.390526,113.826508 117.396469,114.305321 117.402420,114.784134 
	C114.501450,114.784134 111.600479,114.784134 108.384430,114.544037 
z"/>
<path fill="#084D3A" opacity="1.000000" stroke="none" 
	d="
M86.905884,105.971603 
	C86.807487,106.138077 86.638329,106.115662 86.213104,106.078308 
	C86.249733,105.969818 86.542427,105.876266 86.905884,105.971603 
z"/>
<path fill="#084D3A" opacity="1.000000" stroke="none" 
	d="
M67.032364,106.037247 
	C66.938232,105.923172 66.814941,105.771927 66.691650,105.620682 
	C66.775803,105.675064 66.859947,105.729454 67.010086,105.923309 
	C67.076088,106.062767 67.003212,106.000069 67.032364,106.037247 
z"/>
<path fill="#135845" opacity="1.000000" stroke="none" 
	d="
M80.017548,105.695755 
	C78.600906,106.021492 77.209763,106.020416 75.402145,105.981766 
	C75.084541,104.843163 75.183418,103.742119 75.453697,100.732521 
	C77.618065,102.919090 78.830566,104.144020 80.017548,105.695755 
z"/>
<path fill="#EFF5F4" opacity="1.000000" stroke="none" 
	d="
M136.376801,150.922318 
	C135.630310,150.988113 135.169861,151.017654 134.365692,151.002319 
	C135.390686,150.687729 136.759430,150.418030 138.495544,150.263687 
	C138.129562,150.548050 137.396210,150.717072 136.376801,150.922318 
z"/>
<path fill="#135845" opacity="1.000000" stroke="none" 
	d="
M108.937180,121.459747 
	C109.016365,122.035439 108.561699,122.365074 107.694931,122.805008 
	C107.656326,122.348099 108.029823,121.780891 108.937180,121.459747 
z"/>
</svg>